<?xml version="1.0" encoding="UTF-8" standalone="no"?>
<svg
   width="16"
   height="16"
   viewBox="0 0 16 16"
   version="1.1"
   id="svg1"
   sodipodi:docname="rdf-file.svg"
   inkscape:version="1.4.2 (ebf0e940d0, 2025-05-08)"
   xml:space="preserve"
   xmlns:inkscape="http://www.inkscape.org/namespaces/inkscape"
   xmlns:sodipodi="http://sodipodi.sourceforge.net/DTD/sodipodi-0.dtd"
   xmlns="http://www.w3.org/2000/svg"
   xmlns:svg="http://www.w3.org/2000/svg"
   xmlns:rdf="http://www.w3.org/1999/02/22-rdf-syntax-ns#"
   xmlns:cc="http://creativecommons.org/ns#"
   xmlns:dc="http://purl.org/dc/elements/1.1/"><sodipodi:namedview
     id="namedview1"
     pagecolor="#181818"
     bordercolor="#000000"
     borderopacity="0.25"
     inkscape:showpageshadow="2"
     inkscape:pageopacity="0.0"
     inkscape:pagecheckerboard="0"
     inkscape:deskcolor="#d1d1d1"
     inkscape:zoom="25.15625"
     inkscape:cx="-1.9875776"
     inkscape:cy="7.2347826"
     inkscape:window-width="1920"
     inkscape:window-height="1051"
     inkscape:window-x="0"
     inkscape:window-y="0"
     inkscape:window-maximized="1"
     inkscape:current-layer="svg1"
     showgrid="false"><inkscape:grid
       id="grid2"
       units="px"
       originx="0"
       originy="0"
       spacingx="1"
       spacingy="1"
       empcolor="#0099e5"
       empopacity="0.30196078"
       color="#0099e5"
       opacity="0.14901961"
       empspacing="5"
       dotted="false"
       gridanglex="30"
       gridanglez="30"
       visible="false" /></sodipodi:namedview><!-- Generator: Sketch 40.3 (33839) - http://www.bohemiancoding.com/sketch --><title
     id="title1">Slice</title><desc
     id="desc1">Created with Sketch.</desc><defs
     id="defs1" /><metadata
     id="metadata1"><rdf:RDF><cc:Work
         rdf:about=""><dc:title>Slice</dc:title></cc:Work></rdf:RDF></metadata><g
     id="path4"
     style="opacity:1;fill:#dddddd;fill-opacity:1"><path
       id="path1"
       style="baseline-shift:baseline;display:inline;overflow:visible;vector-effect:none;fill:#dddddd;enable-background:accumulate;stop-color:#000000;stop-opacity:1;fill-opacity:1"
       d="M 11.576172 1.6953125 C 11.360857 1.6866816 11.14078 1.7108758 10.921875 1.7695312 C 9.7543807 2.0823598 9.0602178 3.2856308 9.3730469 4.453125 C 9.4173607 4.6154473 9.4882787 4.7682239 9.5683594 4.9160156 L 7.7480469 6.9492188 C 7.2886961 6.7419137 6.7759256 6.6663781 6.2871094 6.796875 C 5.1196155 7.1097041 4.4254521 8.3129748 4.7382812 9.4804688 C 5.0511102 10.647963 6.2543812 11.342126 7.421875 11.029297 C 7.975976 10.876281 8.4198985 10.485195 8.7070312 9.9902344 L 11.636719 10.814453 C 11.647179 10.939187 11.661759 11.064335 11.693359 11.185547 C 12.006188 12.353041 13.207506 13.047203 14.375 12.734375 C 15.542494 12.421546 16.23861 11.220228 15.925781 10.052734 C 15.676076 9.1275041 14.845124 8.4991418 13.894531 8.4589844 L 12.992188 5.4375 C 13.558991 4.8888113 13.806697 4.0853279 13.605469 3.3183594 C 13.351295 2.3697705 12.509205 1.7327131 11.576172 1.6953125 z M 11.433594 2.9414062 C 11.873072 2.9146181 12.28384 3.1983622 12.402344 3.640625 C 12.537777 4.1460682 12.239818 4.6633952 11.734375 4.7988281 C 11.228932 4.9342613 10.711605 4.6363025 10.576172 4.1308594 C 10.440739 3.6254161 10.738697 3.1080892 11.244141 2.9726562 C 11.307321 2.9557271 11.370811 2.9452331 11.433594 2.9414062 z M 10.466797 5.7792969 C 10.895456 6.0070767 11.383085 6.0822598 11.861328 6 L 12.689453 8.7734375 C 12.362217 8.9757996 12.096153 9.2587588 11.914062 9.5976562 L 9.03125 8.7871094 C 9.0237956 8.6384971 9.0080988 8.4898643 8.9707031 8.3457031 C 8.9130682 8.1360424 8.8135747 7.9411671 8.6972656 7.7578125 L 10.466797 5.7792969 z M 6.7988281 7.96875 C 7.2383067 7.941962 7.6490742 8.225706 7.7675781 8.6679688 C 7.9030112 9.1734118 7.6050525 9.6907388 7.0996094 9.8261719 C 6.5941662 9.961605 6.0768395 9.6636463 5.9414062 9.1582031 C 5.8059731 8.6527599 6.1039318 8.135433 6.609375 8 C 6.6725554 7.9830709 6.7360455 7.9725769 6.7988281 7.96875 z M 13.753906 9.6757812 C 14.193385 9.6489928 14.604152 9.9327367 14.722656 10.375 C 14.85809 10.880444 14.558178 11.39777 14.052734 11.533203 C 13.547291 11.668637 13.031917 11.368725 12.896484 10.863281 C 12.761051 10.357838 13.059009 9.8424642 13.564453 9.7070312 C 13.627634 9.690102 13.691124 9.6796082 13.753906 9.6757812 z " /></g></svg>
