<?xml version="1.0" encoding="UTF-8" standalone="no"?>
<!-- Created with Inkscape (http://www.inkscape.org/) -->

<svg
   width="32"
   height="32"
   viewBox="0 0 8.4666662 8.4666666"
   version="1.1"
   id="svg1"
   xml:space="preserve"
   inkscape:version="1.3 (0e150ed6c4, 2023-07-21)"
   sodipodi:docname="0-mentor.svg"
   xmlns:inkscape="http://www.inkscape.org/namespaces/inkscape"
   xmlns:sodipodi="http://sodipodi.sourceforge.net/DTD/sodipodi-0.dtd"
   xmlns="http://www.w3.org/2000/svg"
   xmlns:svg="http://www.w3.org/2000/svg"><sodipodi:namedview
     id="namedview1"
     pagecolor="#ffffff"
     bordercolor="#000000"
     borderopacity="0.25"
     inkscape:showpageshadow="2"
     inkscape:pageopacity="0.0"
     inkscape:pagecheckerboard="0"
     inkscape:deskcolor="#d1d1d1"
     inkscape:document-units="mm"
     showguides="true"
     showgrid="true"
     inkscape:zoom="2"
     inkscape:cx="-58.25"
     inkscape:cy="59"
     inkscape:window-width="1920"
     inkscape:window-height="1010"
     inkscape:window-x="-6"
     inkscape:window-y="-6"
     inkscape:window-maximized="1"
     inkscape:current-layer="layer1"><sodipodi:guide
       position="104.78012,131.34409"
       orientation="1,0"
       id="guide1"
       inkscape:locked="false" /><inkscape:grid
       id="grid1"
       units="px"
       originx="0"
       originy="0"
       spacingx="0.26458333"
       spacingy="0.26458334"
       empcolor="#0099e5"
       empopacity="0.30196078"
       color="#0099e5"
       opacity="0.14901961"
       empspacing="5"
       dotted="false"
       gridanglex="30"
       gridanglez="30"
       visible="true" /><sodipodi:guide
       position="134.93749,159.41666"
       orientation="0,-1"
       id="guide2"
       inkscape:locked="false" /><sodipodi:guide
       position="148.16665,130.31249"
       orientation="0,-1"
       id="guide3"
       inkscape:locked="false" /><sodipodi:guide
       position="137.58333,109.14582"
       orientation="0,-1"
       id="guide4"
       inkscape:locked="false" /><sodipodi:guide
       position="65.303102,121.3826"
       orientation="1,0"
       id="guide5"
       inkscape:locked="false" /><sodipodi:guide
       position="144.25713,122.48943"
       orientation="1,0"
       id="guide6"
       inkscape:locked="false" /></sodipodi:namedview><defs
     id="defs1" /><g
     inkscape:label="Layer 1"
     inkscape:groupmode="layer"
     id="layer1"><path
       id="path24"
       style="color:#000000;fill:#000000;stroke-linecap:round;stroke-linejoin:round;-inkscape-stroke:none;paint-order:fill markers stroke"
       d="M 1.4257528 4.093807 C 1.2588599 4.0931486 1.1202036 4.2312882 1.1208618 4.3981812 L 1.1208618 5.4394613 C 1.1212682 5.5513216 1.1842255 5.6546902 1.2831258 5.7071452 L 3.4375163 6.863147 L 3.4375163 6.1743001 L 1.7306437 5.2575602 L 1.7306437 4.3981812 C 1.731302 4.2312882 1.5926457 4.0931486 1.4257528 4.093807 z M 7.0760539 4.093807 C 6.9091578 4.0931486 6.7710214 4.2312882 6.7716797 4.3981812 L 6.7716797 5.2575602 L 5.0276001 6.1944539 L 5.0276001 6.8843343 L 7.2207479 5.7071452 A 0.17199619 0.17199619 0 0 0 7.2228149 5.7071452 C 7.3199946 5.6535027 7.379351 5.5503711 7.3788778 5.4394613 L 7.3788778 5.4373942 L 7.3788778 4.3981812 C 7.379538 4.2329434 7.2433504 4.0955951 7.0781209 4.093807 A 0.17199619 0.17199619 0 0 0 7.0760539 4.093807 z " /><g
       id="path6"
       style="fill:#000000;stroke:#000000;stroke-opacity:1"
       transform="matrix(0.87636603,0,0,0.87636603,0.52338382,-0.31758517)"><path
         id="path9"
         style="color:#000000;fill:#000000;stroke:#000000;stroke-linecap:round;stroke-linejoin:round;stroke-opacity:1;-inkscape-stroke:none;paint-order:fill markers stroke"
         d="m 4.2529704,1.3043132 a 0.08426642,0.08426642 0 0 0 -0.040308,0.010335 l -3.9041541,2.083594 a 0.08426642,0.08426642 0 0 0 0,0.1488281 l 3.9041545,2.0835938 a 0.08426642,0.08426642 0 0 0 0.080098,0 L 8.1581584,3.5470703 a 0.08426642,0.08426642 0 0 0 0,-0.1488281 L 4.2927612,1.3146484 a 0.08426642,0.08426642 0 0 0 -0.039791,-0.010335 z" /></g><g
       id="g2"
       transform="translate(-2.851951,0.15817074)"
       style="stroke-width:1.00013;stroke-dasharray:none"><g
         id="path1"
         style="stroke-width:1.00013;stroke-dasharray:none"><path
           style="color:#000000;fill:#0068a7;stroke-width:1.00013;stroke-linecap:round;stroke-dasharray:none"
           d="M 7.0830601,4.9227705 V 7.3607697"
           id="path3" /><path
           id="path4"
           style="color:#000000;fill:#000000;stroke-width:1.00013;stroke-linecap:round;stroke-dasharray:none"
           d="M 7.083734,4.2038369 C 6.9230166,4.2038511 6.79281,4.3345746 6.7927957,4.495292 V 6.9426878 A 0.52902412,0.52902412 0 0 0 6.5561177,7.3824543 0.52902412,0.52902412 0 0 0 7.0852843,7.9116209 0.52902412,0.52902412 0 0 0 7.614451,7.3824543 0.52902412,0.52902412 0 0 0 7.3757059,6.9411375 C 7.3768354,6.3223262 7.3801982,4.4302123 7.3751891,4.495292 7.3751748,4.3345746 7.2444515,4.2038512 7.083734,4.2038369 Z" /><path
           id="path12"
           style="color:#000000;fill:#000000;stroke-width:1.00013;stroke-linecap:round;stroke-dasharray:none"
           d="M 7.083734,4.2038369 C 6.9230166,4.2038511 6.79281,4.3345746 6.7927957,4.495292 V 6.9426878 A 0.52902412,0.52902412 0 0 0 6.5561177,7.3824543 0.52902412,0.52902412 0 0 0 7.0852843,7.9116209 0.52902412,0.52902412 0 0 0 7.614451,7.3824543 0.52902412,0.52902412 0 0 0 7.3757059,6.9411375 C 7.3768354,6.3223262 7.3801982,4.4302123 7.3751891,4.495292 7.3751748,4.3345746 7.2444515,4.2038512 7.083734,4.2038369 Z" /></g></g></g></svg>
