<?xml version="1.0" encoding="UTF-8" standalone="no"?>
<!-- Created with Inkscape (http://www.inkscape.org/) -->

<svg
   width="32"
   height="32"
   viewBox="0 0 8.4666662 8.4666666"
   version="1.1"
   id="svg1"
   xml:space="preserve"
   inkscape:version="1.3 (0e150ed6c4, 2023-07-21)"
   sodipodi:docname="0-mentor.svg"
   xmlns:inkscape="http://www.inkscape.org/namespaces/inkscape"
   xmlns:sodipodi="http://sodipodi.sourceforge.net/DTD/sodipodi-0.dtd"
   xmlns="http://www.w3.org/2000/svg"
   xmlns:svg="http://www.w3.org/2000/svg"><sodipodi:namedview
     id="namedview1"
     pagecolor="#ffffff"
     bordercolor="#000000"
     borderopacity="0.25"
     inkscape:showpageshadow="2"
     inkscape:pageopacity="0.0"
     inkscape:pagecheckerboard="0"
     inkscape:deskcolor="#d1d1d1"
     inkscape:document-units="mm"
     showguides="true"
     showgrid="true"
     inkscape:zoom="16.22695"
     inkscape:cx="2.0336539"
     inkscape:cy="24.12653"
     inkscape:window-width="1920"
     inkscape:window-height="1011"
     inkscape:window-x="0"
     inkscape:window-y="0"
     inkscape:window-maximized="1"
     inkscape:current-layer="layer1"><sodipodi:guide
       position="104.78012,131.34409"
       orientation="1,0"
       id="guide1"
       inkscape:locked="false" /><inkscape:grid
       id="grid1"
       units="px"
       originx="0"
       originy="0"
       spacingx="0.26458333"
       spacingy="0.26458334"
       empcolor="#0099e5"
       empopacity="0.30196078"
       color="#0099e5"
       opacity="0.14901961"
       empspacing="5"
       dotted="false"
       gridanglex="30"
       gridanglez="30"
       visible="true" /><sodipodi:guide
       position="134.93749,159.41666"
       orientation="0,-1"
       id="guide2"
       inkscape:locked="false" /><sodipodi:guide
       position="148.16665,130.31249"
       orientation="0,-1"
       id="guide3"
       inkscape:locked="false" /><sodipodi:guide
       position="137.58333,109.14582"
       orientation="0,-1"
       id="guide4"
       inkscape:locked="false" /><sodipodi:guide
       position="65.303102,121.3826"
       orientation="1,0"
       id="guide5"
       inkscape:locked="false" /><sodipodi:guide
       position="144.25713,122.48943"
       orientation="1,0"
       id="guide6"
       inkscape:locked="false" /></sodipodi:namedview><defs
     id="defs1" /><g
     inkscape:label="Layer 1"
     inkscape:groupmode="layer"
     id="layer1"><g
       id="path6"
       style="fill:#000000;stroke:#000000;stroke-opacity:1"
       transform="matrix(0.87636603,0,0,0.87636603,0.52338382,0.16197212)"><path
         id="path9"
         style="color:#000000;fill:#000000;stroke:#000000;stroke-linecap:round;stroke-linejoin:round;stroke-opacity:1;-inkscape-stroke:none;paint-order:fill markers stroke"
         d="m 4.2529704,1.3043132 a 0.08426642,0.08426642 0 0 0 -0.040308,0.010335 l -3.9041541,2.083594 a 0.08426642,0.08426642 0 0 0 0,0.1488281 l 3.9041545,2.0835938 a 0.08426642,0.08426642 0 0 0 0.080098,0 L 8.1581584,3.5470703 a 0.08426642,0.08426642 0 0 0 0,-0.1488281 L 4.2927612,1.3146484 a 0.08426642,0.08426642 0 0 0 -0.039791,-0.010335 z" /></g><path
       style="color:#000000;fill:#000000;stroke:#000000;stroke-width:0.34395833;stroke-linecap:round;stroke-linejoin:round;stroke-dasharray:none;stroke-opacity:1;paint-order:fill markers stroke"
       d="M 1.4257812,4.7445362 A 0.13229166,0.13229166 0 0 0 1.2929687,4.8773486 v 1.041016 a 0.13230489,0.13230489 0 0 0 0.070312,0.117187 l 2.8261719,1.515625 a 0.13230489,0.13230489 0 0 0 0.125,0 l 2.8242193,-1.515625 a 0.13230489,0.13230489 0 0 0 0.068359,-0.117187 V 4.8773486 A 0.13229166,0.13229166 0 0 0 7.0761719,4.7445362 0.13229166,0.13229166 0 0 0 6.9433594,4.8773486 v 0.962891 L 4.2519531,7.2855516 1.5585937,5.8402396 V 4.8773486 A 0.13229166,0.13229166 0 0 0 1.4257812,4.7445362 Z"
       id="path8" /></g></svg>
