<?xml version="1.0" encoding="UTF-8" standalone="no"?>
<svg
   width="16"
   height="16"
   viewBox="0 0 16 16"
   version="1.1"
   id="svg1"
   sodipodi:docname="10-rdf-class-tree.svg"
   inkscape:version="1.3 (0e150ed6c4, 2023-07-21)"
   xmlns:inkscape="http://www.inkscape.org/namespaces/inkscape"
   xmlns:sodipodi="http://sodipodi.sourceforge.net/DTD/sodipodi-0.dtd"
   xmlns="http://www.w3.org/2000/svg"
   xmlns:svg="http://www.w3.org/2000/svg"
   xmlns:rdf="http://www.w3.org/1999/02/22-rdf-syntax-ns#"
   xmlns:cc="http://creativecommons.org/ns#"
   xmlns:dc="http://purl.org/dc/elements/1.1/">
  <sodipodi:namedview
     id="namedview1"
     pagecolor="#ffffff"
     bordercolor="#000000"
     borderopacity="0.25"
     inkscape:showpageshadow="2"
     inkscape:pageopacity="0.0"
     inkscape:pagecheckerboard="0"
     inkscape:deskcolor="#d1d1d1"
     inkscape:zoom="45.254834"
     inkscape:cx="7.767126"
     inkscape:cy="8.5294755"
     inkscape:window-width="1920"
     inkscape:window-height="1010"
     inkscape:window-x="-6"
     inkscape:window-y="-6"
     inkscape:window-maximized="1"
     inkscape:current-layer="svg1"
     showgrid="true">
    <inkscape:grid
       id="grid1"
       units="px"
       originx="0"
       originy="0"
       spacingx="1"
       spacingy="1"
       empcolor="#0099e5"
       empopacity="0.30196078"
       color="#0099e5"
       opacity="0.14901961"
       empspacing="5"
       dotted="false"
       gridanglex="30"
       gridanglez="30"
       visible="true" />
  </sodipodi:namedview>
  <!-- Generator: Sketch 40.3 (33839) - http://www.bohemiancoding.com/sketch -->
  <title
     id="title1">Slice</title>
  <desc
     id="desc1">Created with Sketch.</desc>
  <defs
     id="defs1" />
  <metadata
     id="metadata1">
    <rdf:RDF>
      <cc:Work
         rdf:about="">
        <dc:title>Slice</dc:title>
      </cc:Work>
    </rdf:RDF>
  </metadata>
  <path
     id="rect15"
     style="fill:#000000;stroke:none;stroke-width:1.5;stroke-linecap:round"
     d="M 0 15 L 0 16 L 1 16 L 1 15 L 0 15 z M 2 15 L 2 16 L 3 16 L 3 15 L 2 15 z M 4 15 L 4 16 L 5 16 L 5 15 L 4 15 z M 6 15 L 6 16 L 7 16 L 7 15 L 6 15 z M 8 15 L 8 16 L 9 16 L 9 15 L 8 15 z M 10 15 L 10 16 L 11 16 L 11 15 L 10 15 z M 12 15 L 12 16 L 13 16 L 13 15 L 12 15 z M 14 15 L 14 16 L 15 16 L 15 15 L 14 15 z " />
  <path
     style="color:#000000;fill:#000000;stroke-width:0.999999;stroke-linecap:round;-inkscape-stroke:none"
     d="M 8,1.5 C 5.5200514,1.5 3.5,3.5200514 3.5,6 3.5,8.4799486 5.5200514,10.5 8,10.5 10.479948,10.5 12.5,8.4799486 12.5,6 12.5,3.5200514 10.479948,1.5 8,1.5 Z M 8,2.4 C 9.9935531,2.4 11.6,4.0064465 11.6,6 11.6,7.9935535 9.9935531,9.6 8,9.6 6.0064465,9.6 4.4,7.9935535 4.4,6 4.4,4.0064465 6.0064465,2.4 8,2.4 Z"
     id="path2" />
</svg>
