<?xml version="1.0" encoding="UTF-8" standalone="no"?>
<svg
   width="16"
   height="16"
   viewBox="0 0 16 16"
   version="1.1"
   id="svg1"
   sodipodi:docname="12-rdf-property-tree.svg"
   inkscape:version="1.3 (0e150ed6c4, 2023-07-21)"
   xmlns:inkscape="http://www.inkscape.org/namespaces/inkscape"
   xmlns:sodipodi="http://sodipodi.sourceforge.net/DTD/sodipodi-0.dtd"
   xmlns="http://www.w3.org/2000/svg"
   xmlns:svg="http://www.w3.org/2000/svg"
   xmlns:rdf="http://www.w3.org/1999/02/22-rdf-syntax-ns#"
   xmlns:cc="http://creativecommons.org/ns#"
   xmlns:dc="http://purl.org/dc/elements/1.1/">
  <sodipodi:namedview
     id="namedview1"
     pagecolor="#ffffff"
     bordercolor="#000000"
     borderopacity="0.25"
     inkscape:showpageshadow="2"
     inkscape:pageopacity="0.0"
     inkscape:pagecheckerboard="0"
     inkscape:deskcolor="#d1d1d1"
     inkscape:zoom="50.3125"
     inkscape:cx="7.7416149"
     inkscape:cy="4.7304348"
     inkscape:window-width="1920"
     inkscape:window-height="1010"
     inkscape:window-x="1913"
     inkscape:window-y="-6"
     inkscape:window-maximized="1"
     inkscape:current-layer="svg1"
     showgrid="true">
    <inkscape:grid
       id="grid5"
       units="px"
       originx="0"
       originy="0"
       spacingx="1"
       spacingy="1"
       empcolor="#0099e5"
       empopacity="0.30196078"
       color="#0099e5"
       opacity="0.14901961"
       empspacing="5"
       dotted="false"
       gridanglex="30"
       gridanglez="30"
       visible="true" />
  </sodipodi:namedview>
  <!-- Generator: Sketch 40.3 (33839) - http://www.bohemiancoding.com/sketch -->
  <title
     id="title1">Slice</title>
  <desc
     id="desc1">Created with Sketch.</desc>
  <defs
     id="defs1" />
  <path
     id="path2-4"
     style="color:#000000;fill:#000000;stroke-linecap:round;-inkscape-stroke:none"
     d="M 5.4960938 0.99023438 C 4.121308 0.99023438 2.9960937 2.1154485 2.9960938 3.4902344 C 2.9960938 4.86502 4.121308 5.9902344 5.4960938 5.9902344 C 5.9949995 5.9902344 6.4602401 5.8424102 6.8515625 5.5878906 L 9.2011719 7.9160156 C 9.0275009 8.2119672 8.9277344 8.5562895 8.9277344 8.921875 C 8.9277344 10.020519 9.8290909 10.921875 10.927734 10.921875 C 12.026378 10.921875 12.927734 10.020519 12.927734 8.921875 C 12.927734 7.8232311 12.026378 6.921875 10.927734 6.921875 C 10.555044 6.921875 10.204097 7.0251148 9.9042969 7.2050781 L 7.5644531 4.8886719 C 7.8365844 4.488619 7.9960937 4.0076973 7.9960938 3.4902344 C 7.9960938 2.1154485 6.8708795 0.99023438 5.4960938 0.99023438 z M 5.4960938 1.9902344 C 6.3304409 1.9902344 6.9960938 2.6558871 6.9960938 3.4902344 C 6.9960938 4.3245814 6.3304409 4.9902344 5.4960938 4.9902344 C 4.6617466 4.9902344 3.9960937 4.3245814 3.9960938 3.4902344 C 3.9960938 2.6558871 4.6617466 1.9902344 5.4960938 1.9902344 z M 10.927734 7.921875 C 11.485942 7.921875 11.927734 8.363668 11.927734 8.921875 C 11.927734 9.480082 11.485942 9.921875 10.927734 9.921875 C 10.369528 9.921875 9.9277344 9.480082 9.9277344 8.921875 C 9.9277344 8.363668 10.369528 7.921875 10.927734 7.921875 z " />
  <g
     id="path3" />
  <metadata
     id="metadata1">
    <rdf:RDF>
      <cc:Work
         rdf:about="">
        <dc:title>Slice</dc:title>
      </cc:Work>
    </rdf:RDF>
  </metadata>
  <g
     id="path2" />
  <path
     id="rect15"
     style="fill:#000000;stroke:none;stroke-width:1.5;stroke-linecap:round"
     d="m 0,15 v 1 h 1 v -1 z m 2,0 v 1 h 1 v -1 z m 2,0 v 1 h 1 v -1 z m 2,0 v 1 h 1 v -1 z m 2,0 v 1 h 1 v -1 z m 2,0 v 1 h 1 v -1 z m 2,0 v 1 h 1 v -1 z m 2,0 v 1 h 1 v -1 z" />
</svg>
