<?xml version="1.0" encoding="UTF-8" standalone="no"?>
<svg
   width="16"
   height="16"
   viewBox="0 0 16 16"
   version="1.1"
   id="svg1"
   sodipodi:docname="12-rdf-property-tree-active.svg"
   inkscape:version="1.3 (0e150ed6c4, 2023-07-21)"
   xmlns:inkscape="http://www.inkscape.org/namespaces/inkscape"
   xmlns:sodipodi="http://sodipodi.sourceforge.net/DTD/sodipodi-0.dtd"
   xmlns="http://www.w3.org/2000/svg"
   xmlns:svg="http://www.w3.org/2000/svg"
   xmlns:rdf="http://www.w3.org/1999/02/22-rdf-syntax-ns#"
   xmlns:cc="http://creativecommons.org/ns#"
   xmlns:dc="http://purl.org/dc/elements/1.1/">
  <sodipodi:namedview
     id="namedview1"
     pagecolor="#ffffff"
     bordercolor="#000000"
     borderopacity="0.25"
     inkscape:showpageshadow="2"
     inkscape:pageopacity="0.0"
     inkscape:pagecheckerboard="0"
     inkscape:deskcolor="#d1d1d1"
     inkscape:zoom="35.57631"
     inkscape:cx="6.1136189"
     inkscape:cy="7.2239083"
     inkscape:window-width="1920"
     inkscape:window-height="1010"
     inkscape:window-x="1913"
     inkscape:window-y="-6"
     inkscape:window-maximized="1"
     inkscape:current-layer="svg1"
     showgrid="true">
    <inkscape:grid
       id="grid5"
       units="px"
       originx="0"
       originy="0"
       spacingx="1"
       spacingy="1"
       empcolor="#0099e5"
       empopacity="0.30196078"
       color="#0099e5"
       opacity="0.14901961"
       empspacing="5"
       dotted="false"
       gridanglex="30"
       gridanglez="30"
       visible="true" />
  </sodipodi:namedview>
  <!-- Generator: Sketch 40.3 (33839) - http://www.bohemiancoding.com/sketch -->
  <title
     id="title1">Slice</title>
  <desc
     id="desc1">Created with Sketch.</desc>
  <defs
     id="defs1" />
  <metadata
     id="metadata1">
    <rdf:RDF>
      <cc:Work
         rdf:about="">
        <dc:title>Slice</dc:title>
      </cc:Work>
    </rdf:RDF>
  </metadata>
  <path
     id="path1"
     style="color:#000000;fill:#000000;stroke-width:1;stroke-linecap:round;-inkscape-stroke:none"
     d="M 5.5,1 C 4.1266937,1 3,2.1266937 3,3.5 3,4.8733062 4.1266937,6 5.5,6 5.9533528,6 6.3788042,5.8769933 6.7467448,5.6630859 L 9.0660807,7.9661458 C 8.9177645,8.25189 8.8333333,8.5749516 8.8333333,8.9166666 8.8333333,10.059854 9.7734791,11 10.916667,11 12.059854,11 13,10.059854 13,8.9166666 13,7.7734791 12.059854,6.8333333 10.916667,6.8333333 c -0.350775,0 -0.68206,0.088405 -0.9733079,0.2441407 L 7.6402995,4.7874349 C 7.8689418,4.4104924 8,3.9699852 8,3.5 8,2.1266937 6.8733062,1 5.5,1 Z m 0,1.25 C 6.1977575,2.25 6.75,2.8022425 6.75,3.5 6.75,4.1977575 6.1977575,4.75 5.5,4.75 4.8022425,4.75 4.25,4.1977575 4.25,3.5 4.25,2.8022425 4.8022425,2.25 5.5,2.25 Z m 5.416667,5.8333333 c 0.467638,0 0.833333,0.365695 0.833333,0.8333333 C 11.75,9.384305 11.384305,9.75 10.916667,9.75 c -0.467639,0 -0.833334,-0.365695 -0.833334,-0.8333334 0,-0.4676383 0.365695,-0.8333333 0.833334,-0.8333333 z" />
  <g
     id="path2">
    <path
       style="color:#000000;fill:#000000;stroke-linecap:round;-inkscape-stroke:none"
       d="M 6.9962733,7.0360248 9.9975156,10.017392"
       id="path6" />
  </g>
  <rect
     style="fill:#000000;stroke:none;stroke-width:1.5;stroke-linecap:round"
     id="rect1"
     width="16"
     height="2"
     x="0"
     y="14" />
</svg>
