<?xml version="1.0" encoding="UTF-8" standalone="no"?>
<svg
   width="16"
   height="16"
   viewBox="0 0 16 16"
   version="1.1"
   id="svg1"
   sodipodi:docname="14-rdf-individual-tree.svg"
   inkscape:version="1.3 (0e150ed6c4, 2023-07-21)"
   xmlns:inkscape="http://www.inkscape.org/namespaces/inkscape"
   xmlns:sodipodi="http://sodipodi.sourceforge.net/DTD/sodipodi-0.dtd"
   xmlns="http://www.w3.org/2000/svg"
   xmlns:svg="http://www.w3.org/2000/svg"
   xmlns:rdf="http://www.w3.org/1999/02/22-rdf-syntax-ns#"
   xmlns:cc="http://creativecommons.org/ns#"
   xmlns:dc="http://purl.org/dc/elements/1.1/">
  <sodipodi:namedview
     id="namedview1"
     pagecolor="#ffffff"
     bordercolor="#000000"
     borderopacity="0.25"
     inkscape:showpageshadow="2"
     inkscape:pageopacity="0.0"
     inkscape:pagecheckerboard="0"
     inkscape:deskcolor="#d1d1d1"
     inkscape:zoom="25.15625"
     inkscape:cx="4.9490683"
     inkscape:cy="11.806211"
     inkscape:window-width="1920"
     inkscape:window-height="1010"
     inkscape:window-x="-6"
     inkscape:window-y="-6"
     inkscape:window-maximized="1"
     inkscape:current-layer="svg1"
     showgrid="true">
    <inkscape:grid
       id="grid5"
       units="px"
       originx="0"
       originy="0"
       spacingx="1"
       spacingy="1"
       empcolor="#0099e5"
       empopacity="0.30196078"
       color="#0099e5"
       opacity="0.14901961"
       empspacing="5"
       dotted="false"
       gridanglex="30"
       gridanglez="30"
       visible="true" />
  </sodipodi:namedview>
  <!-- Generator: Sketch 40.3 (33839) - http://www.bohemiancoding.com/sketch -->
  <g
     id="path1"
     style="fill:#000000;stroke-width:1.5"
     transform="matrix(0.66666667,0,0,0.66666667,1.6666667,1)">
    <path
       id="path11"
       style="color:#000000;fill:#000000;stroke-width:1.5;-inkscape-stroke:none"
       d="M 5,1.5 C 4.1774968,1.5 3.5,2.1774968 3.5,3 3.5,3.8225032 4.1774968,4.5 5,4.5 5.8225032,4.5 6.5,3.8225032 6.5,3 6.5,2.1774968 5.8225032,1.5 5,1.5 Z"
       sodipodi:nodetypes="sssss" />
  </g>
  <title
     id="title1">Slice</title>
  <desc
     id="desc1">Created with Sketch.</desc>
  <defs
     id="defs1" />
  <metadata
     id="metadata1">
    <rdf:RDF>
      <cc:Work
         rdf:about="">
        <dc:title>Slice</dc:title>
      </cc:Work>
    </rdf:RDF>
  </metadata>
  <g
     id="circle7" />
  <g
     id="circle8" />
  <g
     id="circle9" />
  <path
     id="rect15"
     style="fill:#000000;stroke:none;stroke-width:1.5;stroke-linecap:round"
     d="m 0,15 v 1 h 1 v -1 z m 2,0 v 1 h 1 v -1 z m 2,0 v 1 h 1 v -1 z m 2,0 v 1 h 1 v -1 z m 2,0 v 1 h 1 v -1 z m 2,0 v 1 h 1 v -1 z m 2,0 v 1 h 1 v -1 z m 2,0 v 1 h 1 v -1 z" />
  <g
     id="g2"
     style="fill:#1a1a1a;stroke-width:1.5"
     transform="matrix(0.66666667,0,0,0.66666667,7.6666666,0.99999999)">
    <path
       id="path2"
       style="color:#000000;fill:#1a1a1a;stroke-width:1.5;-inkscape-stroke:none"
       d="M 5,1.5 C 4.1774968,1.5 3.5,2.1774968 3.5,3 3.5,3.8225032 4.1774968,4.5 5,4.5 5.8225032,4.5 6.5,3.8225032 6.5,3 6.5,2.1774968 5.8225032,1.5 5,1.5 Z"
       sodipodi:nodetypes="sssss" />
  </g>
  <g
     id="g3"
     style="fill:#1a1a1a;stroke-width:1.5"
     transform="matrix(0.66666667,0,0,0.66666667,7.6666667,7)">
    <path
       id="path3"
       style="color:#000000;fill:#1a1a1a;stroke-width:1.5;-inkscape-stroke:none"
       d="M 5,1.5 C 4.1774968,1.5 3.5,2.1774968 3.5,3 3.5,3.8225032 4.1774968,4.5 5,4.5 5.8225032,4.5 6.5,3.8225032 6.5,3 6.5,2.1774968 5.8225032,1.5 5,1.5 Z"
       sodipodi:nodetypes="sssss" />
  </g>
  <g
     id="g4"
     style="fill:#1a1a1a;stroke-width:1.5"
     transform="matrix(0.66666667,0,0,0.66666667,1.6666666,7)">
    <path
       id="path4"
       style="color:#000000;fill:#1a1a1a;stroke-width:1.5;-inkscape-stroke:none"
       d="M 5,1.5 C 4.1774968,1.5 3.5,2.1774968 3.5,3 3.5,3.8225032 4.1774968,4.5 5,4.5 5.8225032,4.5 6.5,3.8225032 6.5,3 6.5,2.1774968 5.8225032,1.5 5,1.5 Z"
       sodipodi:nodetypes="sssss" />
  </g>
</svg>
