<?xml version="1.0" encoding="UTF-8" standalone="no"?>
<svg
   width="24"
   height="24"
   viewBox="0 0 24 24"
   fill="none"
   version="1.1"
   id="svg1"
   sodipodi:docname="17-ref-on.svg"
   inkscape:version="1.3 (0e150ed6c4, 2023-07-21)"
   xmlns:inkscape="http://www.inkscape.org/namespaces/inkscape"
   xmlns:sodipodi="http://sodipodi.sourceforge.net/DTD/sodipodi-0.dtd"
   xmlns="http://www.w3.org/2000/svg"
   xmlns:svg="http://www.w3.org/2000/svg">
  <defs
     id="defs1" />
  <sodipodi:namedview
     id="namedview1"
     pagecolor="#ffffff"
     bordercolor="#000000"
     borderopacity="0.25"
     inkscape:showpageshadow="2"
     inkscape:pageopacity="0.0"
     inkscape:pagecheckerboard="0"
     inkscape:deskcolor="#d1d1d1"
     showgrid="true"
     inkscape:zoom="16.958333"
     inkscape:cx="7.2235872"
     inkscape:cy="13.916462"
     inkscape:window-width="1920"
     inkscape:window-height="1010"
     inkscape:window-x="-6"
     inkscape:window-y="-6"
     inkscape:window-maximized="1"
     inkscape:current-layer="svg1">
    <inkscape:grid
       id="grid1"
       units="px"
       originx="0"
       originy="0"
       spacingx="1"
       spacingy="1"
       empcolor="#0099e5"
       empopacity="0.30196078"
       color="#0099e5"
       opacity="0.14901961"
       empspacing="5"
       dotted="false"
       gridanglex="30"
       gridanglez="30"
       visible="true" />
  </sodipodi:namedview>
  <path
     id="path20"
     style="color:#000000;fill:#000000;stroke-linejoin:bevel;stroke-dasharray:1.5, 1.5;stroke-dashoffset:1.485;-inkscape-stroke:none"
     d="M 7.75 0 L 7 0.75 L 7 1.484375 L 7.765625 1.484375 L 7.75 1.5 L 8.515625 1.5 L 8.515625 0 L 7.75 0 z M 10.015625 0 L 10.015625 1.5 L 11.515625 1.5 L 11.515625 0 L 10.015625 0 z M 13.015625 0 L 13.015625 1.5 L 14.515625 1.5 L 14.515625 0 L 13.015625 0 z M 16.015625 0 L 16.015625 1.5 L 17.515625 1.5 L 17.515625 0 L 16.015625 0 z M 19.015625 0 L 19.015625 1.5 L 20.515625 1.5 L 20.515625 0 L 19.015625 0 z M 20.5 1.515625 L 20.5 3.015625 L 22 3.015625 L 22 1.515625 L 20.5 1.515625 z M 7 2.984375 L 7 4.484375 L 8.5 4.484375 L 8.5 2.984375 L 7 2.984375 z M 20.5 4.515625 L 20.5 6.015625 L 22 6.015625 L 22 4.515625 L 20.5 4.515625 z M 7 5.984375 L 7 6 L 2.5 6 L 1 7.5 L 1 10.982422 L 1 12 L 1 13.5 L 1 22.570312 L 2.5 24 L 8.5 24 L 10 24 L 13.636719 24 L 14.701172 24 L 16 22.570312 L 16 18.035156 L 16.019531 18.035156 L 16.019531 16.535156 L 16 16.535156 L 16 10.5 L 11.5 6 L 8.5 6 L 8.5 5.984375 L 7 5.984375 z M 2.5 7.5 L 10 7.5 L 10 12 L 14.5 12 L 14.5 22.5 L 2.5 22.5 L 2.5 7.5 z M 20.5 7.515625 L 20.5 9.015625 L 22 9.015625 L 22 7.515625 L 20.5 7.515625 z M 11.5 8.1191406 L 13.880859 10.5 L 11.5 10.5 L 11.5 8.1191406 z M 20.5 10.515625 L 20.5 12.015625 L 22 12.015625 L 22 10.515625 L 20.5 10.515625 z M 20.5 13.515625 L 20.5 15.015625 L 22 15.015625 L 22 13.515625 L 20.5 13.515625 z M 20.5 16.515625 L 20.5 17.285156 L 20.519531 17.265625 L 20.519531 18.035156 L 21.25 18.035156 L 22 17.285156 L 22 16.515625 L 20.5 16.515625 z M 17.519531 16.535156 L 17.519531 18.035156 L 19.019531 18.035156 L 19.019531 16.535156 L 17.519531 16.535156 z " />
</svg>
