<?xml version="1.0" encoding="UTF-8" standalone="no"?>
<svg
   width="16"
   height="16"
   viewBox="0 0 16 16"
   version="1.1"
   id="svg1"
   sodipodi:docname="25-language.svg"
   inkscape:version="1.3 (0e150ed6c4, 2023-07-21)"
   xmlns:inkscape="http://www.inkscape.org/namespaces/inkscape"
   xmlns:sodipodi="http://sodipodi.sourceforge.net/DTD/sodipodi-0.dtd"
   xmlns="http://www.w3.org/2000/svg"
   xmlns:svg="http://www.w3.org/2000/svg"
   xmlns:rdf="http://www.w3.org/1999/02/22-rdf-syntax-ns#"
   xmlns:cc="http://creativecommons.org/ns#"
   xmlns:dc="http://purl.org/dc/elements/1.1/">
  <sodipodi:namedview
     id="namedview1"
     pagecolor="#ffffff"
     bordercolor="#000000"
     borderopacity="0.25"
     inkscape:showpageshadow="2"
     inkscape:pageopacity="0.0"
     inkscape:pagecheckerboard="0"
     inkscape:deskcolor="#d1d1d1"
     inkscape:zoom="32"
     inkscape:cx="9.5"
     inkscape:cy="5.96875"
     inkscape:window-width="1920"
     inkscape:window-height="1010"
     inkscape:window-x="1913"
     inkscape:window-y="-6"
     inkscape:window-maximized="1"
     inkscape:current-layer="svg1"
     showgrid="true">
    <inkscape:grid
       id="grid1"
       units="px"
       originx="0"
       originy="0"
       spacingx="1"
       spacingy="1"
       empcolor="#0099e5"
       empopacity="0.30196078"
       color="#0099e5"
       opacity="0.14901961"
       empspacing="5"
       dotted="false"
       gridanglex="30"
       gridanglez="30"
       visible="true" />
  </sodipodi:namedview>
  <!-- Generator: Sketch 40.3 (33839) - http://www.bohemiancoding.com/sketch -->
  <title
     id="title1">Slice</title>
  <desc
     id="desc1">Created with Sketch.</desc>
  <defs
     id="defs1" />
  <metadata
     id="metadata1">
    <rdf:RDF>
      <cc:Work
         rdf:about="">
        <dc:title>Slice</dc:title>
      </cc:Work>
    </rdf:RDF>
  </metadata>
  <g
     id="rect2" />
  <path
     d="M 7.9931556,14.376495 11.044344,6.4980416 h 1.069758 l 3.05136,7.8784534 H 14.075837 L 13.29998,12.286992 H 9.8586365 L 9.0826088,14.376495 Z M 2.5875086,12.360809 1.8656024,11.638732 5.27252,8.2253071 Q 4.6797519,7.6258595 4.1455585,6.8023895 3.6111937,5.9789198 3.2660832,5.1278756 H 4.3555364 Q 4.6520061,5.7497596 5.0769287,6.3716436 5.5018514,6.9933565 5.9945973,7.5032294 6.724382,6.7667653 7.3752108,5.7148204 8.0260396,4.6628755 8.2949347,3.7577097 H 1 V 2.7300852 H 5.4926028 V 1.6235049 H 6.5202272 V 2.7300852 H 11.012831 V 3.7577097 H 9.3355757 Q 9.0022828,4.9117319 8.2731833,6.1705718 7.5439124,7.429412 6.7165035,8.2463728 L 8.4067744,9.9774063 8.0181612,11.032777 5.9945973,8.9576607 Z m 7.6004824,-0.982922 h 2.782464 L 11.579223,7.640246 Z"
     id="path1"
     style="fill:#000000;stroke-width:0.0171271" />
</svg>
