<?xml version="1.0" encoding="UTF-8" standalone="no"?>
<svg
   width="16"
   height="16"
   viewBox="0 0 16 16"
   version="1.1"
   id="svg1"
   sodipodi:docname="4-rdf-class-ref-i.svg"
   inkscape:version="1.3 (0e150ed6c4, 2023-07-21)"
   xmlns:inkscape="http://www.inkscape.org/namespaces/inkscape"
   xmlns:sodipodi="http://sodipodi.sourceforge.net/DTD/sodipodi-0.dtd"
   xmlns="http://www.w3.org/2000/svg"
   xmlns:svg="http://www.w3.org/2000/svg"
   xmlns:rdf="http://www.w3.org/1999/02/22-rdf-syntax-ns#"
   xmlns:cc="http://creativecommons.org/ns#"
   xmlns:dc="http://purl.org/dc/elements/1.1/">
  <sodipodi:namedview
     id="namedview1"
     pagecolor="#ffffff"
     bordercolor="#000000"
     borderopacity="0.25"
     inkscape:showpageshadow="2"
     inkscape:pageopacity="0.0"
     inkscape:pagecheckerboard="0"
     inkscape:deskcolor="#d1d1d1"
     inkscape:zoom="16"
     inkscape:cx="-15.4375"
     inkscape:cy="14.875"
     inkscape:window-width="1920"
     inkscape:window-height="1010"
     inkscape:window-x="-6"
     inkscape:window-y="-6"
     inkscape:window-maximized="1"
     inkscape:current-layer="svg1"
     showguides="true"
     showgrid="true">
    <sodipodi:guide
       position="7.9828403,11.024779"
       orientation="1,0"
       id="guide1"
       inkscape:locked="false" />
    <sodipodi:guide
       position="12.283455,8.0171597"
       orientation="0,-1"
       id="guide2"
       inkscape:locked="false" />
    <inkscape:grid
       id="grid1"
       units="px"
       originx="0"
       originy="0"
       spacingx="1"
       spacingy="1"
       empcolor="#0099e5"
       empopacity="0.30196078"
       color="#0099e5"
       opacity="0.14901961"
       empspacing="5"
       dotted="false"
       gridanglex="30"
       gridanglez="30"
       visible="true" />
  </sodipodi:namedview>
  <!-- Generator: Sketch 40.3 (33839) - http://www.bohemiancoding.com/sketch -->
  <title
     id="title1">Slice</title>
  <desc
     id="desc1">Created with Sketch.</desc>
  <defs
     id="defs1" />
  <metadata
     id="metadata1">
    <rdf:RDF>
      <cc:Work
         rdf:about="">
        <dc:title>Slice</dc:title>
      </cc:Work>
    </rdf:RDF>
  </metadata>
  <path
     id="path2"
     style="stroke-width:4.65802;stroke-dasharray:4.72209, 4.72209"
     d="M 8 2 A 6 6 0 0 0 7.1894531 2.0566406 L 7.3300781 3.0527344 A 5 5 0 0 1 8 3 A 5 5 0 0 1 8.671875 3.046875 L 8.8125 2.0566406 A 6 6 0 0 0 8 2 z M 10.248047 2.4375 L 9.8671875 3.3632812 A 5 5 0 0 1 11.052734 4.0410156 L 11.667969 3.2539062 A 6 6 0 0 0 10.248047 2.4375 z M 5.7578125 2.4492188 A 6 6 0 0 0 4.5332031 3.1191406 L 5.1113281 3.9238281 A 5 5 0 0 1 6.1386719 3.375 L 5.7578125 2.4492188 z M 3.2871094 4.3085938 A 6 6 0 0 0 2.4628906 5.7226562 L 3.3925781 6.0976562 A 5 5 0 0 1 4.0761719 4.9179688 L 3.2871094 4.3085938 z M 12.867188 4.4960938 L 12.052734 5.0742188 A 5 5 0 0 1 12.621094 6.09375 L 13.548828 5.71875 A 6 6 0 0 0 12.867188 4.4960938 z M 2.0605469 7.15625 A 6 6 0 0 0 2 8 A 6 6 0 0 0 2.0566406 8.7988281 L 3.0527344 8.6582031 A 5 5 0 0 1 3 8 A 5 5 0 0 1 3.0566406 7.2890625 L 2.0605469 7.15625 z M 13.939453 7.15625 L 12.947266 7.2890625 A 5 5 0 0 1 13 8 A 5 5 0 0 1 12.947266 8.6582031 L 13.943359 8.7988281 A 6 6 0 0 0 14 8 A 6 6 0 0 0 13.939453 7.15625 z M 12.626953 9.8535156 A 5 5 0 0 1 11.955078 11.044922 L 12.738281 11.658203 A 6 6 0 0 0 13.552734 10.234375 L 12.626953 9.8535156 z M 3.3730469 9.8554688 L 2.4472656 10.236328 A 6 6 0 0 0 3.1191406 11.464844 L 3.921875 10.886719 A 5 5 0 0 1 3.3730469 9.8554688 z M 4.921875 11.925781 L 4.3125 12.714844 A 6 6 0 0 0 5.7324219 13.541016 L 6.1074219 12.611328 A 5 5 0 0 1 4.921875 11.925781 z M 10.923828 12.054688 A 5 5 0 0 1 9.8945312 12.611328 L 10.269531 13.541016 A 6 6 0 0 0 11.494141 12.859375 L 10.923828 12.054688 z M 7.3027344 12.943359 L 7.1699219 13.941406 A 6 6 0 0 0 8 14 A 6 6 0 0 0 8.8320312 13.941406 L 8.6992188 12.943359 A 5 5 0 0 1 8 13 A 5 5 0 0 1 7.3027344 12.943359 z " />
  <path
     id="path3"
     style="stroke-width:0.8"
     d="M 10,8.0000001 A 2,2 0 0 1 8.0000001,10 a 2,2 0 0 1 -2,-1.9999999 2,2 0 0 1 2,-2 2,2 0 0 1 1.9999999,2 z" />
</svg>
