<?xml version="1.0" encoding="UTF-8" standalone="no"?>
<svg
   width="16"
   height="16"
   viewBox="0 0 16 16"
   version="1.1"
   id="svg1"
   sodipodi:docname="4-rdf-class-ref-on.svg"
   inkscape:version="1.3 (0e150ed6c4, 2023-07-21)"
   xmlns:inkscape="http://www.inkscape.org/namespaces/inkscape"
   xmlns:sodipodi="http://sodipodi.sourceforge.net/DTD/sodipodi-0.dtd"
   xmlns="http://www.w3.org/2000/svg"
   xmlns:svg="http://www.w3.org/2000/svg"
   xmlns:rdf="http://www.w3.org/1999/02/22-rdf-syntax-ns#"
   xmlns:cc="http://creativecommons.org/ns#"
   xmlns:dc="http://purl.org/dc/elements/1.1/">
  <sodipodi:namedview
     id="namedview1"
     pagecolor="#ffffff"
     bordercolor="#000000"
     borderopacity="0.25"
     inkscape:showpageshadow="2"
     inkscape:pageopacity="0.0"
     inkscape:pagecheckerboard="0"
     inkscape:deskcolor="#d1d1d1"
     inkscape:zoom="22.627417"
     inkscape:cx="-1.259534"
     inkscape:cy="-0.57452426"
     inkscape:window-width="1920"
     inkscape:window-height="1010"
     inkscape:window-x="-6"
     inkscape:window-y="-6"
     inkscape:window-maximized="1"
     inkscape:current-layer="svg1"
     showguides="true"
     showgrid="false" />
  <!-- Generator: Sketch 40.3 (33839) - http://www.bohemiancoding.com/sketch -->
  <title
     id="title1">Slice</title>
  <desc
     id="desc1">Created with Sketch.</desc>
  <defs
     id="defs1" />
  <metadata
     id="metadata1">
    <rdf:RDF>
      <cc:Work
         rdf:about="">
        <dc:title>Slice</dc:title>
      </cc:Work>
    </rdf:RDF>
  </metadata>
  <path
     id="path2"
     style="stroke-width:4.65802;stroke-dasharray:4.72209, 4.72209"
     d="m 8.0150461,2.0180582 a 6,6 0 0 0 -0.03125,0.00195 6,6 0 0 0 -0.7792976,0.054688 6,6 0 0 0 -2.6562495,1.0624996 6,6 0 0 0 -2.470703,4.0371093 l -0.00197,1.41e-5 a 6,6 0 0 0 -0.00195,0.021483 6,6 0 0 0 -0.058594,0.8222658 6,6 0 0 0 5.1699228,5.9394533 v 0.002 a 6,6 0 0 0 0.015648,0.0019 6,6 0 0 0 0.7832035,0.05469 6,6 0 0 0 0.031253,0.002 6,6 0 0 0 0.8320306,-0.0586 l -0.132829,-0.998063 a 5,5 0 0 1 -0.6992196,0.05664 5,5 0 0 1 -0.031254,-0.002 5,5 0 0 1 -0.6660162,-0.05469 l 7.1e-6,0.004 A 5,5 0 0 1 6.1205105,12.633346 l 0.00192,-0.0039 A 5,5 0 0 1 5.5052803,12.326652 5,5 0 0 1 4.9740304,11.96923 5,5 0 0 1 3.8861394,10.820793 5,5 0 0 1 3.6791081,10.482903 5,5 0 0 1 3.6048887,10.344231 5,5 0 0 1 3.3880918,9.8735277 l -0.00198,0.00198 A 5,5 0 0 1 3.0619237,8.6762598 l 0.00583,2.83e-5 A 5,5 0 0 1 3.0150458,8.0180586 5,5 0 0 1 3.0716865,7.3071207 L 3.06586,7.3070925 A 5,5 0 0 1 3.4037182,6.1137588 l 0.0039,0.00195 A 5,5 0 0 1 3.7084099,5.5024327 5,5 0 0 1 4.0638787,4.9750889 5,5 0 0 1 5.2025505,3.8950108 5,5 0 0 1 5.5228629,3.6996979 5,5 0 0 1 5.6888786,3.6079015 5,5 0 0 1 6.1537225,3.3930579 v -0.00195 A 5,5 0 0 1 7.3451291,3.0688389 l -1.42e-5,0.00197 a 5,5 0 0 1 0.6386721,-0.05078 5,5 0 0 1 0.031251,-0.00196 5,5 0 0 1 0.6718751,0.046875 L 8.8275458,2.0746989 A 6,6 0 0 0 8.0150461,2.0180582 Z M 10.263092,2.4555588 9.8822332,3.3813398 A 5,5 0 0 1 11.067779,4.0590744 L 11.683015,3.2719645 A 6,6 0 0 0 10.263092,2.4555588 Z m 2.619141,2.0585936 -0.814453,0.5781251 a 5,5 0 0 1 0.568361,1.0195299 L 13.563876,5.7368076 A 6,6 0 0 0 12.882235,4.5141513 Z m 1.072266,2.6601559 -0.992187,0.132813 a 5,5 0 0 1 0.05273,0.7109372 5,5 0 0 1 -0.05274,0.6582033 l 0.996093,0.1406251 a 6,6 0 0 0 0.05664,-0.7988277 6,6 0 0 0 -0.06055,-0.8437509 z m -1.3125,2.6972654 A 5,5 0 0 1 11.970124,11.06298 l 0.783203,0.613282 A 6,6 0 0 0 13.56778,10.252434 Z M 10.938874,12.072747 A 5,5 0 0 1 9.9095791,12.62939 l 0.3749999,0.929688 a 6,6 0 0 0 1.224612,-0.681638 z" />
</svg>
