<?xml version="1.0" encoding="UTF-8" standalone="no"?>
<svg
   width="16"
   height="16"
   viewBox="0 0 16 16"
   version="1.1"
   id="svg1"
   sodipodi:docname="5-rdf-class-ref-off.svg"
   inkscape:version="1.3 (0e150ed6c4, 2023-07-21)"
   xmlns:inkscape="http://www.inkscape.org/namespaces/inkscape"
   xmlns:sodipodi="http://sodipodi.sourceforge.net/DTD/sodipodi-0.dtd"
   xmlns="http://www.w3.org/2000/svg"
   xmlns:svg="http://www.w3.org/2000/svg"
   xmlns:rdf="http://www.w3.org/1999/02/22-rdf-syntax-ns#"
   xmlns:cc="http://creativecommons.org/ns#"
   xmlns:dc="http://purl.org/dc/elements/1.1/">
  <sodipodi:namedview
     id="namedview1"
     pagecolor="#ffffff"
     bordercolor="#000000"
     borderopacity="0.25"
     inkscape:showpageshadow="2"
     inkscape:pageopacity="0.0"
     inkscape:pagecheckerboard="0"
     inkscape:deskcolor="#d1d1d1"
     inkscape:zoom="18.718209"
     inkscape:cx="-0.1869837"
     inkscape:cy="9.7231526"
     inkscape:window-width="1920"
     inkscape:window-height="1010"
     inkscape:window-x="-6"
     inkscape:window-y="-6"
     inkscape:window-maximized="1"
     inkscape:current-layer="svg1"
     showguides="true"
     showgrid="false"
     inkscape:lockguides="true" />
  <!-- Generator: Sketch 40.3 (33839) - http://www.bohemiancoding.com/sketch -->
  <title
     id="title1">Slice</title>
  <desc
     id="desc1">Created with Sketch.</desc>
  <defs
     id="defs1" />
  <metadata
     id="metadata1">
    <rdf:RDF>
      <cc:Work
         rdf:about="">
        <dc:title>Slice</dc:title>
      </cc:Work>
    </rdf:RDF>
  </metadata>
  <path
     id="rect1"
     style="fill:#000000;stroke-width:3.82307"
     d="M 7.9991455 10.813762 L -7.9991455 10.813762 L -7.9991455 11.813655 L 7.9991455 11.813655 L 7.9991455 10.813762 z M 4.2426407 7.0710678 A 6 6 0 0 0 3.6294465 6.5379756 L 3.0245388 7.3417571 A 5 5 0 0 1 3.5355339 7.7781746 A 5 5 0 0 1 3.9774756 8.2864076 L 4.777114 7.685643 A 6 6 0 0 0 4.2426407 7.0710678 z M 5.5228907 8.9700362 L 4.5989562 9.3553542 A 5 5 0 0 1 4.8364999 10.065223 L 5.8529659 10.065223 A 6 6 0 0 0 5.5228907 8.9700362 z M 2.3395291 5.8032475 A 6 6 0 0 0 0.99989318 5.4110242 L 0.8396893 6.3888203 A 5 5 0 0 1 1.9542111 6.7271819 L 2.3395291 5.8032475 z M -0.72229853 5.3709732 A 6 6 0 0 0 -2.3050024 5.7880557 L -1.9127791 6.7106091 A 5 5 0 0 1 -0.59524028 6.3598178 L -0.72229853 5.3709732 z M 5.855728 12.564956 L 4.8337378 12.564956 A 5 5 0 0 1 4.615529 13.233393 L 5.5367013 13.624235 A 6 6 0 0 0 5.855728 12.564956 z M -3.6032062 6.5172596 A 6 6 0 0 0 -4.2426407 7.0710678 A 6 6 0 0 0 -4.7674465 7.6759756 L -3.963665 8.2808833 A 5 5 0 0 1 -3.5355339 7.7781746 A 5 5 0 0 1 -2.9927742 7.3155168 L -3.6032062 6.5172596 z M 4.7964489 14.916915 L 4.0009538 14.309245 A 5 5 0 0 1 3.5355339 14.849242 A 5 5 0 0 1 3.0328252 15.277373 L 3.6377329 16.081155 A 6 6 0 0 0 4.2426407 15.556349 A 6 6 0 0 0 4.7964489 14.916915 z M 1.9611165 15.896092 A 5 5 0 0 1 0.64357766 16.263456 L 0.76373057 17.25092 A 6 6 0 0 0 2.3464344 16.820026 L 1.9611165 15.896092 z M -4.5837645 9.3539731 L -5.5076989 8.9686552 A 6 6 0 0 0 -5.8446795 10.065223 L -4.8254514 10.065223 A 5 5 0 0 1 -4.5837645 9.3539731 z M -0.79963833 16.248264 A 5 5 0 0 1 -1.9210655 15.914046 L -2.3132888 16.836599 A 6 6 0 0 0 -0.96536648 17.220536 L -0.79963833 16.248264 z M -4.8254514 12.564956 L -5.8391552 12.564956 A 6 6 0 0 0 -5.5215096 13.628378 L -4.5989562 13.236155 A 5 5 0 0 1 -4.8254514 12.564956 z M -3.9885242 14.31615 L -4.7881625 14.927963 A 6 6 0 0 0 -4.2426407 15.556349 A 6 6 0 0 0 -3.6128737 16.103252 L -3.0010606 15.303614 A 5 5 0 0 1 -3.5355339 14.849242 A 5 5 0 0 1 -3.9885242 14.31615 z "
     transform="rotate(-45)" />
</svg>
