<?xml version="1.0" encoding="UTF-8" standalone="no"?>
<svg
   width="16"
   height="16"
   viewBox="0 0 16 16"
   version="1.1"
   id="svg1"
   sodipodi:docname="6-rdf-class-off.svg"
   inkscape:version="1.3 (0e150ed6c4, 2023-07-21)"
   xmlns:inkscape="http://www.inkscape.org/namespaces/inkscape"
   xmlns:sodipodi="http://sodipodi.sourceforge.net/DTD/sodipodi-0.dtd"
   xmlns="http://www.w3.org/2000/svg"
   xmlns:svg="http://www.w3.org/2000/svg"
   xmlns:rdf="http://www.w3.org/1999/02/22-rdf-syntax-ns#"
   xmlns:cc="http://creativecommons.org/ns#"
   xmlns:dc="http://purl.org/dc/elements/1.1/">
  <sodipodi:namedview
     id="namedview1"
     pagecolor="#ffffff"
     bordercolor="#000000"
     borderopacity="0.25"
     inkscape:showpageshadow="2"
     inkscape:pageopacity="0.0"
     inkscape:pagecheckerboard="0"
     inkscape:deskcolor="#d1d1d1"
     inkscape:zoom="22.627417"
     inkscape:cx="4.9276504"
     inkscape:cy="10.606602"
     inkscape:window-width="1920"
     inkscape:window-height="1010"
     inkscape:window-x="-6"
     inkscape:window-y="-6"
     inkscape:window-maximized="1"
     inkscape:current-layer="svg1" />
  <!-- Generator: Sketch 40.3 (33839) - http://www.bohemiancoding.com/sketch -->
  <title
     id="title1">Slice</title>
  <desc
     id="desc1">Created with Sketch.</desc>
  <defs
     id="defs1" />
  <metadata
     id="metadata1">
    <rdf:RDF>
      <cc:Work
         rdf:about="">
        <dc:title>Slice</dc:title>
      </cc:Work>
    </rdf:RDF>
  </metadata>
  <path
     id="path2"
     style="stroke-width:4.65802;stroke-dasharray:4.72209, 4.72209"
     d="M 8 2 A 6 6 0 0 0 2 8 A 6 6 0 0 0 3.3515625 11.779297 L 2.5917969 12.539062 L 3.2988281 13.246094 L 4.0390625 12.503906 A 6 6 0 0 0 4.0429688 12.505859 L 4.7597656 11.789062 A 5 5 0 0 1 4.7578125 11.787109 L 11.796875 4.7480469 A 5 5 0 0 1 11.798828 4.75 L 12.507812 4.0410156 A 6 6 0 0 0 12.505859 4.0390625 L 13.199219 3.3457031 L 12.492188 2.6386719 L 11.785156 3.3457031 A 6 6 0 0 0 8 2 z M 8 3 A 5 5 0 0 1 11.072266 4.0585938 L 4.0644531 11.066406 A 5 5 0 0 1 3 8 A 5 5 0 0 1 8 3 z M 13.101562 4.8613281 L 12.369141 5.59375 A 5 5 0 0 1 13 8 A 5 5 0 0 1 8 13 A 5 5 0 0 1 5.6015625 12.361328 L 4.8613281 13.101562 A 6 6 0 0 0 8 14 A 6 6 0 0 0 14 8 A 6 6 0 0 0 13.101562 4.8613281 z " />
</svg>
