<?xml version="1.0" encoding="UTF-8" standalone="no"?>
<svg
   width="16"
   height="16"
   viewBox="0 0 16 16"
   fill="currentColor"
   version="1.1"
   id="svg1"
   sodipodi:docname="8-rdf-label-tag.svg"
   inkscape:version="1.3 (0e150ed6c4, 2023-07-21)"
   xmlns:inkscape="http://www.inkscape.org/namespaces/inkscape"
   xmlns:sodipodi="http://sodipodi.sourceforge.net/DTD/sodipodi-0.dtd"
   xmlns="http://www.w3.org/2000/svg"
   xmlns:svg="http://www.w3.org/2000/svg">
  <defs
     id="defs1" />
  <sodipodi:namedview
     id="namedview1"
     pagecolor="#ffffff"
     bordercolor="#000000"
     borderopacity="0.25"
     inkscape:showpageshadow="2"
     inkscape:pageopacity="0.0"
     inkscape:pagecheckerboard="0"
     inkscape:deskcolor="#d1d1d1"
     inkscape:zoom="22.627417"
     inkscape:cx="-0.77339804"
     inkscape:cy="7.8665629"
     inkscape:window-width="1920"
     inkscape:window-height="1010"
     inkscape:window-x="1913"
     inkscape:window-y="-6"
     inkscape:window-maximized="1"
     inkscape:current-layer="svg1"
     showgrid="true">
    <inkscape:grid
       id="grid1"
       units="px"
       originx="0"
       originy="0"
       spacingx="1"
       spacingy="1"
       empcolor="#0099e5"
       empopacity="0.30196078"
       color="#0099e5"
       opacity="0.14901961"
       empspacing="5"
       dotted="false"
       gridanglex="30"
       gridanglez="30"
       visible="true" />
  </sodipodi:namedview>
  <g
     id="g1"
     transform="translate(0,-0.35624545)">
    <path
       id="path1"
       d="m 11.157823,3.361683 c -3.2176274,0.00481 -6.4353158,0.00204 -9.6529611,0.00204 l -0.4999465,0.4999465 -0.00253,8.9972961 0.4999465,0.499947 c 0,0 -6.1013371,0.01769 9.6580111,0.002 l 3.8113,-4.6600346 V 7.9958206 l -0.0014,-0.00141 z m -0.435715,1.0019375 3.187465,3.9843393 -3.192752,4.0130642 c -2.9055753,0.0058 -5.810424,-0.01321 -8.7159189,-0.0014 l 0.00529,-7.9974025 z"
       sodipodi:nodetypes="cccccccccccccccc" />
    <path
       d="M 7.1621094,7.5234375 6.1660156,7.34375 q 0.1679688,-0.6015625 0.578125,-0.890625 0.4101563,-0.2890625 1.21875,-0.2890625 0.734375,0 1.09375,0.1757812 0.359375,0.171875 0.5039063,0.4414063 0.1484375,0.265625 0.1484375,0.9804687 l -0.011719,1.2812501 q 0,0.546875 0.050781,0.8085937 0.054687,0.2578125 0.1992187,0.5546875 H 8.8613281 Q 8.8183594,10.296875 8.7558594,10.082031 8.7285156,9.984375 8.7167969,9.953125 8.4355469,10.226563 8.1152344,10.363281 7.7949219,10.5 7.4316406,10.5 6.7910156,10.5 6.4199219,10.152344 6.0527344,9.8046875 6.0527344,9.2734375 q 0,-0.3515625 0.1679687,-0.625 0.1679688,-0.2773437 0.46875,-0.421875 Q 6.9941406,8.078125 7.5644531,7.96875 8.3339844,7.8242187 8.6308594,7.6992187 v -0.109375 q 0,-0.3164062 -0.15625,-0.4492187 -0.15625,-0.1367188 -0.5898438,-0.1367188 -0.2929687,0 -0.4570312,0.1171875 -0.1640625,0.1132813 -0.265625,0.4023438 z m 1.46875,0.890625 Q 8.4199219,8.484375 7.9628906,8.5820313 7.5058594,8.6796875 7.3652344,8.7734375 7.1503906,8.9257813 7.1503906,9.1601563 q 0,0.2304687 0.171875,0.3984375 0.171875,0.1679687 0.4375,0.1679687 0.296875,0 0.5664063,-0.1953125 0.1992187,-0.1484375 0.2617187,-0.3632812 0.042969,-0.140625 0.042969,-0.5351563 z"
       id="text1"
       style="font-weight:bold;font-size:8px;font-family:Arial;-inkscape-font-specification:'Arial Bold';fill:#000000;stroke-width:1.5"
       aria-label="a" />
  </g>
</svg>
