<?xml version="1.0" encoding="UTF-8" standalone="no"?>
<svg
   width="16"
   height="16"
   viewBox="0 0 16 16"
   version="1.1"
   id="svg1"
   sodipodi:docname="ue006-rdf-ontology.svg"
   inkscape:version="1.4.2 (ebf0e940d0, 2025-05-08)"
   xml:space="preserve"
   xmlns:inkscape="http://www.inkscape.org/namespaces/inkscape"
   xmlns:sodipodi="http://sodipodi.sourceforge.net/DTD/sodipodi-0.dtd"
   xmlns="http://www.w3.org/2000/svg"
   xmlns:svg="http://www.w3.org/2000/svg"
   xmlns:rdf="http://www.w3.org/1999/02/22-rdf-syntax-ns#"
   xmlns:cc="http://creativecommons.org/ns#"
   xmlns:dc="http://purl.org/dc/elements/1.1/"><sodipodi:namedview
     id="namedview1"
     pagecolor="#ffffff"
     bordercolor="#000000"
     borderopacity="0.25"
     inkscape:showpageshadow="2"
     inkscape:pageopacity="0.0"
     inkscape:pagecheckerboard="false"
     inkscape:deskcolor="#d1d1d1"
     inkscape:zoom="8"
     inkscape:cx="-19.375"
     inkscape:cy="6.625"
     inkscape:window-width="1920"
     inkscape:window-height="1051"
     inkscape:window-x="0"
     inkscape:window-y="0"
     inkscape:window-maximized="1"
     inkscape:current-layer="svg1"
     showgrid="true"
     showborder="false"><inkscape:grid
       id="grid2"
       units="px"
       originx="0"
       originy="0"
       spacingx="1"
       spacingy="1"
       empcolor="#0099e5"
       empopacity="0.30196078"
       color="#0099e5"
       opacity="0.14901961"
       empspacing="5"
       dotted="false"
       gridanglex="30"
       gridanglez="30"
       visible="true" /></sodipodi:namedview><!-- Generator: Sketch 40.3 (33839) - http://www.bohemiancoding.com/sketch --><title
     id="title1">Slice</title><desc
     id="desc1">Created with Sketch.</desc><defs
     id="defs1" /><metadata
     id="metadata1"><rdf:RDF><cc:Work
         rdf:about=""><dc:title>Slice</dc:title></cc:Work></rdf:RDF></metadata><g
     id="path4"
     style="opacity:1;stroke:#ffffff;stroke-opacity:1;stroke-width:0.01;stroke-dasharray:none" /><g
     id="rect2"
     transform="translate(20,2.9999999)" /><g
     id="path3"
     style="opacity:1;fill:#000000"><path
       id="path8"
       style="baseline-shift:baseline;display:inline;overflow:visible;vector-effect:none;fill:#000000;stroke-linejoin:round;enable-background:accumulate;stop-color:#000000;stop-opacity:1"
       d="M 6.5019531 1.9101562 C 3.9790898 1.9101562 1.9179687 3.9712773 1.9179688 6.4941406 C 1.9179688 9.017004 3.9790898 11.078125 6.5019531 11.078125 C 9.0248165 11.078125 11.085937 9.017004 11.085938 6.4941406 C 11.085938 3.9712773 9.0248165 1.9101562 6.5019531 1.9101562 z M 6.5019531 3.4804688 C 8.1751473 3.4804688 9.515625 4.8209464 9.515625 6.4941406 C 9.515625 8.1673348 8.1751473 9.5078125 6.5019531 9.5078125 C 4.8287589 9.5078125 3.4882813 8.1673348 3.4882812 6.4941406 C 3.4882812 4.8209464 4.8287589 3.4804688 6.5019531 3.4804688 z M 11.449219 8.7226562 C 10.89994 9.9345881 9.9186298 10.912433 8.703125 11.455078 C 8.7456215 12.876425 9.924491 14.029297 11.355469 14.029297 C 12.812992 14.029296 14.009766 12.832523 14.009766 11.375 C 14.009765 9.9490027 12.863752 8.7728803 11.449219 8.7226562 z " /></g><g
     id="circle3"
     style="opacity:1" /></svg>
