<?xml version="1.0" encoding="UTF-8" standalone="no"?>
<svg
   width="16"
   height="16"
   viewBox="0 0 16 16"
   version="1.1"
   id="svg1"
   sodipodi:docname="ue003-rdf-class-i.svg"
   inkscape:version="1.4.2 (ebf0e940d0, 2025-05-08)"
   xmlns:inkscape="http://www.inkscape.org/namespaces/inkscape"
   xmlns:sodipodi="http://sodipodi.sourceforge.net/DTD/sodipodi-0.dtd"
   xmlns="http://www.w3.org/2000/svg"
   xmlns:svg="http://www.w3.org/2000/svg"
   xmlns:rdf="http://www.w3.org/1999/02/22-rdf-syntax-ns#"
   xmlns:cc="http://creativecommons.org/ns#"
   xmlns:dc="http://purl.org/dc/elements/1.1/">
  <sodipodi:namedview
     id="namedview1"
     pagecolor="#ffffff"
     bordercolor="#000000"
     borderopacity="0.25"
     inkscape:showpageshadow="2"
     inkscape:pageopacity="0.0"
     inkscape:pagecheckerboard="0"
     inkscape:deskcolor="#d1d1d1"
     inkscape:zoom="16"
     inkscape:cx="13.75"
     inkscape:cy="24.375"
     inkscape:window-width="1920"
     inkscape:window-height="1051"
     inkscape:window-x="0"
     inkscape:window-y="0"
     inkscape:window-maximized="1"
     inkscape:current-layer="svg1" />
  <!-- Generator: Sketch 40.3 (33839) - http://www.bohemiancoding.com/sketch -->
  <title
     id="title1">Slice</title>
  <desc
     id="desc1">Created with Sketch.</desc>
  <defs
     id="defs1" />
  <metadata
     id="metadata1">
    <rdf:RDF>
      <cc:Work
         rdf:about="">
        <dc:title>Slice</dc:title>
      </cc:Work>
    </rdf:RDF>
  </metadata>
  <g
     id="path2"
     style="opacity:1;stroke:none">
    <path
       id="path4"
       style="baseline-shift:baseline;display:inline;overflow:visible;vector-effect:none;enable-background:accumulate;stop-color:#000000;stop-opacity:1;stroke:none"
       d="M 8 2.8828125 C 5.1757575 2.8828125 2.8828125 5.1757576 2.8828125 8 C 2.8828128 10.824242 5.1757577 13.117185 8 13.117188 C 10.824242 13.117188 13.117185 10.824242 13.117188 8 C 13.117188 5.1757575 10.824243 2.8828123 8 2.8828125 z M 8 4.1015625 C 10.155374 4.1015628 11.898435 5.8446263 11.898438 8 C 11.898434 10.155374 10.155374 11.898435 8 11.898438 C 5.8446261 11.898438 4.1015628 10.155374 4.1015625 8 C 4.1015625 5.8446261 5.844626 4.1015625 8 4.1015625 z M 8 5.5 A 2.5 2.5 0 0 0 5.5 8 A 2.5 2.5 0 0 0 8 10.5 A 2.5 2.5 0 0 0 10.5 8 A 2.5 2.5 0 0 0 8 5.5 z " />
  </g>
</svg>
