<?xml version="1.0" encoding="UTF-8" standalone="no"?>
<svg
   width="16"
   height="16"
   viewBox="0 0 16 16"
   fill="currentColor"
   version="1.1"
   id="svg1"
   sodipodi:docname="11-list.svg"
   inkscape:version="1.3 (0e150ed6c4, 2023-07-21)"
   xmlns:inkscape="http://www.inkscape.org/namespaces/inkscape"
   xmlns:sodipodi="http://sodipodi.sourceforge.net/DTD/sodipodi-0.dtd"
   xmlns="http://www.w3.org/2000/svg"
   xmlns:svg="http://www.w3.org/2000/svg">
  <defs
     id="defs1" />
  <sodipodi:namedview
     id="namedview1"
     pagecolor="#ffffff"
     bordercolor="#000000"
     borderopacity="0.25"
     inkscape:showpageshadow="2"
     inkscape:pageopacity="0.0"
     inkscape:pagecheckerboard="0"
     inkscape:deskcolor="#d1d1d1"
     inkscape:zoom="22.627417"
     inkscape:cx="3.1598834"
     inkscape:cy="8.2643105"
     inkscape:window-width="1920"
     inkscape:window-height="1010"
     inkscape:window-x="-6"
     inkscape:window-y="-6"
     inkscape:window-maximized="1"
     inkscape:current-layer="svg1"
     showgrid="true">
    <inkscape:grid
       id="grid1"
       units="px"
       originx="0"
       originy="0"
       spacingx="1"
       spacingy="1"
       empcolor="#0099e5"
       empopacity="0.30196078"
       color="#0099e5"
       opacity="0.14901961"
       empspacing="5"
       dotted="false"
       gridanglex="30"
       gridanglez="30"
       visible="true" />
  </sodipodi:namedview>
  <path
     id="path1"
     style="color:#000000;fill:#000000;-inkscape-stroke:none"
     d="M 4 1 C 2.899681 1 2 1.9076523 2 3.0097656 C 2 4.111879 2.899681 5.0195313 4 5.0195312 C 5.100319 5.0195312 6 4.111879 6 3.0097656 C 6 1.9076523 5.100319 1 4 1 z M 4 2 C 4.5565319 2 5 2.444764 5 3.0097656 C 5 3.5747673 4.5565319 4.0195312 4 4.0195312 C 3.4434681 4.0195312 3 3.5747673 3 3.0097656 C 3 2.444764 3.4434681 2 4 2 z M 7 2.5 L 7 3.5 L 13.982422 3.5 L 13.982422 2.5 L 7 2.5 z M 4 6.0390625 C 2.899681 6.0390625 2 6.9447617 2 8.046875 C 2 9.1489883 2.899681 10.056641 4 10.056641 C 5.100319 10.056641 6 9.1489883 6 8.046875 C 6 6.9447617 5.100319 6.0390625 4 6.0390625 z M 4 7.0390625 C 4.5565319 7.0390625 5 7.4818734 5 8.046875 C 5 8.6118766 4.5565319 9.0566406 4 9.0566406 C 3.4434681 9.0566406 3 8.6118766 3 8.046875 C 3 7.4818734 3.4434681 7.0390625 4 7.0390625 z M 7 7.546875 L 7 8.546875 L 13.982422 8.546875 L 13.982422 7.546875 L 7 7.546875 z M 4 11 C 2.899681 11 2 11.907652 2 13.009766 C 2 14.111879 2.899681 15.019531 4 15.019531 C 5.100319 15.019531 6 14.111879 6 13.009766 C 6 11.907652 5.100319 11 4 11 z M 4 12 C 4.5565319 12 5 12.444763 5 13.009766 C 5 13.574767 4.5565319 14.019531 4 14.019531 C 3.4434681 14.019531 3 13.574767 3 13.009766 C 3 12.444763 3.4434681 12 4 12 z M 7 12.509766 L 7 13.509766 L 13.982422 13.509766 L 13.982422 12.509766 L 7 12.509766 z " />
</svg>
