<?xml version="1.0" encoding="UTF-8" standalone="no"?>
<svg
   width="16"
   height="16"
   viewBox="0 0 16 16"
   version="1.1"
   id="svg1"
   sodipodi:docname="9-rdf-concept-scheme.svg"
   inkscape:version="1.3 (0e150ed6c4, 2023-07-21)"
   xmlns:inkscape="http://www.inkscape.org/namespaces/inkscape"
   xmlns:sodipodi="http://sodipodi.sourceforge.net/DTD/sodipodi-0.dtd"
   xmlns="http://www.w3.org/2000/svg"
   xmlns:svg="http://www.w3.org/2000/svg"
   xmlns:rdf="http://www.w3.org/1999/02/22-rdf-syntax-ns#"
   xmlns:cc="http://creativecommons.org/ns#"
   xmlns:dc="http://purl.org/dc/elements/1.1/">
  <sodipodi:namedview
     id="namedview1"
     pagecolor="#ffffff"
     bordercolor="#000000"
     borderopacity="0.25"
     inkscape:showpageshadow="2"
     inkscape:pageopacity="0.0"
     inkscape:pagecheckerboard="0"
     inkscape:deskcolor="#d1d1d1"
     inkscape:zoom="32"
     inkscape:cx="0.390625"
     inkscape:cy="11.15625"
     inkscape:window-width="1920"
     inkscape:window-height="1010"
     inkscape:window-x="-6"
     inkscape:window-y="-6"
     inkscape:window-maximized="1"
     inkscape:current-layer="svg1"
     showgrid="true">
    <inkscape:grid
       id="grid1"
       units="px"
       originx="0"
       originy="0"
       spacingx="1"
       spacingy="1"
       empcolor="#0099e5"
       empopacity="0.30196078"
       color="#0099e5"
       opacity="0.14901961"
       empspacing="5"
       dotted="false"
       gridanglex="30"
       gridanglez="30"
       visible="true" />
  </sodipodi:namedview>
  <!-- Generator: Sketch 40.3 (33839) - http://www.bohemiancoding.com/sketch -->
  <title
     id="title1">Slice</title>
  <desc
     id="desc1">Created with Sketch.</desc>
  <defs
     id="defs1" />
  <metadata
     id="metadata1">
    <rdf:RDF>
      <cc:Work
         rdf:about="">
        <dc:title>Slice</dc:title>
      </cc:Work>
    </rdf:RDF>
  </metadata>
  <g
     id="rect2" />
  <path
     id="rect3"
     style="stroke-linecap:round;stroke-linejoin:round;stroke-dashoffset:0.3;paint-order:markers stroke fill"
     d="M 2 0 C 0.89200111 0 0 0.89200111 0 2 L 0 14 C 0 15.107999 0.89200111 16 2 16 L 14 16 C 15.107999 16 16 15.107999 16 14 L 16 2 C 16 0.89200111 15.107999 0 14 0 L 2 0 z M 7.1152344 4.2480469 L 9.1152344 4.2480469 A 0.50005 0.50005 0 0 1 9.6152344 4.7480469 L 9.6152344 6.7480469 A 0.50005 0.50005 0 0 1 9.1152344 7.2480469 L 7.1152344 7.2480469 A 0.50005 0.50005 0 0 1 6.6152344 6.7480469 L 6.6152344 4.7480469 A 0.50005 0.50005 0 0 1 7.1152344 4.2480469 z M 4.4921875 8.7519531 L 6.4921875 8.7519531 A 0.50005 0.50005 0 0 1 6.9921875 9.2519531 L 6.9921875 11.251953 A 0.50005 0.50005 0 0 1 6.4921875 11.751953 L 4.4921875 11.751953 A 0.50005 0.50005 0 0 1 3.9921875 11.251953 L 3.9921875 9.2519531 A 0.50005 0.50005 0 0 1 4.4921875 8.7519531 z M 9.5078125 8.7519531 L 11.507812 8.7519531 A 0.50005 0.50005 0 0 1 12.007812 9.2519531 L 12.007812 11.251953 A 0.50005 0.50005 0 0 1 11.507812 11.751953 L 9.5078125 11.751953 A 0.50005 0.50005 0 0 1 9.0078125 11.251953 L 9.0078125 9.2519531 A 0.50005 0.50005 0 0 1 9.5078125 8.7519531 z " />
</svg>
