<?xml version="1.0" encoding="UTF-8" standalone="no"?>
<!-- Created with Inkscape (http://www.inkscape.org/) -->

<svg
   width="32"
   height="32"
   viewBox="0 0 8.4666662 8.4666666"
   version="1.1"
   id="svg1"
   xml:space="preserve"
   inkscape:version="1.4.2 (ebf0e940d0, 2025-05-08)"
   sodipodi:docname="ue000-mentor.svg"
   xmlns:inkscape="http://www.inkscape.org/namespaces/inkscape"
   xmlns:sodipodi="http://sodipodi.sourceforge.net/DTD/sodipodi-0.dtd"
   xmlns="http://www.w3.org/2000/svg"
   xmlns:svg="http://www.w3.org/2000/svg"><sodipodi:namedview
     id="namedview1"
     pagecolor="#ffffff"
     bordercolor="#000000"
     borderopacity="0.25"
     inkscape:showpageshadow="2"
     inkscape:pageopacity="0.0"
     inkscape:pagecheckerboard="0"
     inkscape:deskcolor="#d1d1d1"
     inkscape:document-units="mm"
     showguides="true"
     showgrid="true"
     inkscape:zoom="11.313708"
     inkscape:cx="16.175068"
     inkscape:cy="16.837981"
     inkscape:window-width="1920"
     inkscape:window-height="1008"
     inkscape:window-x="0"
     inkscape:window-y="0"
     inkscape:window-maximized="1"
     inkscape:current-layer="layer1"><sodipodi:guide
       position="104.78012,131.34409"
       orientation="1,0"
       id="guide1"
       inkscape:locked="false" /><inkscape:grid
       id="grid1"
       units="px"
       originx="0"
       originy="0"
       spacingx="0.26458333"
       spacingy="0.26458334"
       empcolor="#0099e5"
       empopacity="0.30196078"
       color="#0099e5"
       opacity="0.14901961"
       empspacing="5"
       dotted="false"
       gridanglex="30"
       gridanglez="30"
       visible="true" /><sodipodi:guide
       position="134.93749,159.41666"
       orientation="0,-1"
       id="guide2"
       inkscape:locked="false" /><sodipodi:guide
       position="148.16665,130.31249"
       orientation="0,-1"
       id="guide3"
       inkscape:locked="false" /><sodipodi:guide
       position="137.58333,109.14582"
       orientation="0,-1"
       id="guide4"
       inkscape:locked="false" /><sodipodi:guide
       position="65.303102,121.3826"
       orientation="1,0"
       id="guide5"
       inkscape:locked="false" /><sodipodi:guide
       position="144.25713,122.48943"
       orientation="1,0"
       id="guide6"
       inkscape:locked="false" /></sodipodi:namedview><defs
     id="defs1" /><g
     inkscape:label="Layer 1"
     inkscape:groupmode="layer"
     id="layer1"><path
       id="path24"
       style="color:#000000;fill:#000000;stroke-linecap:round;stroke-linejoin:round;-inkscape-stroke:none;paint-order:fill markers stroke"
       d="M 1.4257528 4.093807 C 1.2588599 4.0931486 1.1202036 4.2312882 1.1208618 4.3981812 L 1.1208618 5.4394613 C 1.1212682 5.5513216 1.1842255 5.6546902 1.2831258 5.7071452 L 3.4375163 6.863147 L 3.4375163 6.1743001 L 1.7306437 5.2575602 L 1.7306437 4.3981812 C 1.731302 4.2312882 1.5926457 4.0931486 1.4257528 4.093807 z M 7.0760539 4.093807 C 6.9091578 4.0931486 6.7710214 4.2312882 6.7716797 4.3981812 L 6.7716797 5.2575602 L 5.0276001 6.1944539 L 5.0276001 6.8843343 L 7.2207479 5.7071452 A 0.17199619 0.17199619 0 0 0 7.2228149 5.7071452 C 7.3199946 5.6535027 7.379351 5.5503711 7.3788778 5.4394613 L 7.3788778 5.4373942 L 7.3788778 4.3981812 C 7.379538 4.2329434 7.2433504 4.0955951 7.0781209 4.093807 A 0.17199619 0.17199619 0 0 0 7.0760539 4.093807 z " /><g
       id="path6"
       style="fill:none;stroke:#000000;stroke-opacity:1;stroke-width:0.75477404;stroke-dasharray:none"
       transform="matrix(0.87636603,0,0,0.87636603,0.52338382,-0.31758517)"><path
         id="path9"
         style="color:#000000;fill:none;stroke:#000000;stroke-linecap:round;stroke-linejoin:round;stroke-opacity:1;paint-order:fill markers stroke;stroke-width:0.75477404;stroke-dasharray:none"
         d="m 4.2529704,1.3043132 a 0.08426642,0.08426642 0 0 0 -0.040308,0.010335 l -3.9041541,2.083594 a 0.08426642,0.08426642 0 0 0 0,0.1488281 l 3.9041545,2.0835938 a 0.08426642,0.08426642 0 0 0 0.080098,0 L 8.1581584,3.5470703 a 0.08426642,0.08426642 0 0 0 0,-0.1488281 L 4.2927612,1.3146484 a 0.08426642,0.08426642 0 0 0 -0.039791,-0.010335 z" /></g><path
       style="color:#000000;fill:#0068a7;stroke-width:1.32292;stroke-linecap:round;stroke-dasharray:none"
       d="M 4.2311091,5.0809412 V 7.5189404"
       id="path3" /><path
       id="path4"
       style="color:#000000;fill:#000000;stroke-width:1.32292;stroke-linecap:round;stroke-dasharray:none"
       d="M 4.231783,4.3620076 C 4.0710656,4.3620218 3.940859,4.4927453 3.9408447,4.6534627 V 7.1008585 A 0.52902412,0.52902412 0 0 0 3.7041667,7.540625 0.52902412,0.52902412 0 0 0 4.2333333,8.0697916 0.52902412,0.52902412 0 0 0 4.7625,7.540625 0.52902412,0.52902412 0 0 0 4.5237549,7.0993082 C 4.5248844,6.4804969 4.5282472,4.588383 4.5232381,4.6534627 4.5232238,4.4927453 4.3925005,4.3620219 4.231783,4.3620076 Z" /><path
       id="path12"
       style="color:#000000;fill:#000000;stroke-width:1.05833333;stroke-linecap:round;stroke-dasharray:none"
       d="M 4.231783,4.3620076 C 4.0710656,4.3620218 3.940859,4.4927453 3.9408447,4.6534627 V 7.1008585 A 0.52902412,0.52902412 0 0 0 3.7041667,7.540625 0.52902412,0.52902412 0 0 0 4.2333333,8.0697916 0.52902412,0.52902412 0 0 0 4.7625,7.540625 0.52902412,0.52902412 0 0 0 4.5237549,7.0993082 C 4.5248844,6.4804969 4.5282472,4.588383 4.5232381,4.6534627 4.5232238,4.4927453 4.3925005,4.3620219 4.231783,4.3620076 Z" /></g></svg>
