<?xml version="1.0" encoding="UTF-8" standalone="no"?>
<svg
   width="16"
   height="16"
   viewBox="0 0 16 16"
   version="1.1"
   id="svg1"
   sodipodi:docname="ue016-rdf-file.svg"
   inkscape:version="1.4.2 (ebf0e940d0, 2025-05-08)"
   xml:space="preserve"
   xmlns:inkscape="http://www.inkscape.org/namespaces/inkscape"
   xmlns:sodipodi="http://sodipodi.sourceforge.net/DTD/sodipodi-0.dtd"
   xmlns="http://www.w3.org/2000/svg"
   xmlns:svg="http://www.w3.org/2000/svg"
   xmlns:rdf="http://www.w3.org/1999/02/22-rdf-syntax-ns#"
   xmlns:cc="http://creativecommons.org/ns#"
   xmlns:dc="http://purl.org/dc/elements/1.1/"><sodipodi:namedview
     id="namedview1"
     pagecolor="#ffffff"
     bordercolor="#000000"
     borderopacity="0.25"
     inkscape:showpageshadow="2"
     inkscape:pageopacity="0.0"
     inkscape:pagecheckerboard="0"
     inkscape:deskcolor="#d1d1d1"
     inkscape:zoom="22.627417"
     inkscape:cx="13.435029"
     inkscape:cy="6.3418639"
     inkscape:window-width="1920"
     inkscape:window-height="1080"
     inkscape:window-x="0"
     inkscape:window-y="0"
     inkscape:window-maximized="1"
     inkscape:current-layer="svg1"
     showgrid="false"><inkscape:grid
       id="grid2"
       units="px"
       originx="0"
       originy="0"
       spacingx="1"
       spacingy="1"
       empcolor="#0099e5"
       empopacity="0.30196078"
       color="#0099e5"
       opacity="0.14901961"
       empspacing="5"
       dotted="false"
       gridanglex="30"
       gridanglez="30"
       visible="false" /></sodipodi:namedview><!-- Generator: Sketch 40.3 (33839) - http://www.bohemiancoding.com/sketch --><title
     id="title1">Slice</title><desc
     id="desc1">Created with Sketch.</desc><defs
     id="defs1" /><metadata
     id="metadata1"><rdf:RDF><cc:Work
         rdf:about=""><dc:title>Slice</dc:title></cc:Work></rdf:RDF></metadata><path
     id="path2"
     style="baseline-shift:baseline;display:inline;overflow:visible;vector-effect:none;fill:#000000;fill-opacity:1;stroke:none;stroke-width:0.209;stroke-dasharray:none;stroke-opacity:1;enable-background:accumulate;stop-color:#000000"
     d="M 11.697266 2.5644531 C 11.480359 2.5557631 11.259361 2.5796439 11.039062 2.6386719 C 9.8639441 2.9535436 9.1636335 4.1666414 9.4785156 5.3417969 C 9.5173996 5.4842325 9.5814403 5.6108424 9.6464844 5.7363281 L 7.9746094 7.6054688 C 7.5371592 7.4262178 7.0578376 7.338474 6.5917969 7.4628906 C 5.4167987 7.7777305 4.7144234 8.988939 5.0292969 10.164062 C 5.3441685 11.33918 6.5572667 12.041444 7.7324219 11.726562 L 7.734375 11.726562 L 7.734375 11.724609 C 8.2635811 11.578468 8.6691165 11.196917 8.9570312 10.742188 L 11.660156 11.501953 C 11.669756 11.600343 11.676735 11.69955 11.703125 11.800781 L 11.705078 11.800781 C 12.019917 12.975779 13.231127 13.676201 14.40625 13.361328 C 15.581216 13.046497 16.283655 11.835398 15.96875 10.660156 C 15.724835 9.7567273 14.922025 9.1570004 14.003906 9.0820312 L 13.164062 6.2695312 C 13.69414 5.7201125 13.940403 4.9472612 13.744141 4.1992188 C 13.488287 3.2443588 12.637617 2.602147 11.697266 2.5644531 z M 11.632812 3.9648438 C 11.978376 3.9739837 12.290036 4.2070084 12.384766 4.5605469 C 12.500259 4.9915632 12.250997 5.4295207 11.820312 5.5449219 C 11.389245 5.6604127 10.951338 5.409199 10.835938 4.9785156 C 10.720446 4.5474989 10.969706 4.1114951 11.400391 3.9960938 C 11.456231 3.9811298 11.513613 3.9698949 11.564453 3.9667969 C 11.589803 3.9652569 11.611833 3.9642837 11.632812 3.9648438 z M 11.269531 6.3925781 L 11.271484 6.3925781 C 11.319044 6.3913081 11.365765 6.3974291 11.412109 6.4082031 C 11.599701 6.4537841 11.75221 6.5918637 11.8125 6.7753906 L 12.667969 9.3847656 C 12.808477 9.8109792 12.427937 10.214599 11.994141 10.099609 L 9.25 9.3730469 L 9.2480469 9.3730469 C 8.8248076 9.2627311 8.6856643 8.7456108 8.9960938 8.4375 L 10.888672 6.5566406 C 10.990147 6.4553821 11.126214 6.3959025 11.269531 6.3925781 z M 7.1855469 8.7910156 C 7.5312193 8.800105 7.8408111 9.0331596 7.9355469 9.3867188 C 8.0510373 9.8177349 7.8017774 10.255693 7.3710938 10.371094 C 6.9403526 10.486511 6.50214 10.233492 6.3867188 9.8027344 C 6.2712283 9.371718 6.5243946 8.9337605 6.9550781 8.8183594 C 7.0087245 8.8039848 7.0639051 8.7962174 7.1171875 8.7929688 C 7.1425315 8.7914287 7.1645559 8.7904556 7.1855469 8.7910156 z M 13.861328 10.429688 C 14.207377 10.438788 14.516617 10.669967 14.611328 11.023438 C 14.726746 11.45418 14.473726 11.890438 14.042969 12.005859 C 13.612154 12.121296 13.177994 11.870486 13.0625 11.439453 C 12.946989 11.008362 13.197948 10.572506 13.628906 10.457031 C 13.682556 10.442651 13.737741 10.434881 13.791016 10.431641 C 13.816476 10.430141 13.840438 10.429088 13.861328 10.429688 z " /><g
     id="path4"
     style="opacity:1;stroke:#ffffff;stroke-opacity:1;stroke-width:0.01;stroke-dasharray:none" /></svg>
