<?xml version="1.0" encoding="UTF-8" standalone="no"?>
<svg
   width="16"
   height="16"
   viewBox="0 0 16 16"
   fill="none"
   version="1.1"
   id="svg1"
   sodipodi:docname="ue016-rdf-object-property.svg"
   inkscape:version="1.4.2 (ebf0e940d0, 2025-05-08)"
   xmlns:inkscape="http://www.inkscape.org/namespaces/inkscape"
   xmlns:sodipodi="http://sodipodi.sourceforge.net/DTD/sodipodi-0.dtd"
   xmlns="http://www.w3.org/2000/svg"
   xmlns:svg="http://www.w3.org/2000/svg">
  <defs
     id="defs1" />
  <sodipodi:namedview
     id="namedview1"
     pagecolor="#ffffff"
     bordercolor="#000000"
     borderopacity="0.25"
     inkscape:showpageshadow="2"
     inkscape:pageopacity="0.0"
     inkscape:pagecheckerboard="0"
     inkscape:deskcolor="#d1d1d1"
     showgrid="true"
     inkscape:zoom="22.627417"
     inkscape:cx="1.0606602"
     inkscape:cy="15.556349"
     inkscape:window-width="1920"
     inkscape:window-height="1051"
     inkscape:window-x="0"
     inkscape:window-y="0"
     inkscape:window-maximized="1"
     inkscape:current-layer="svg1">
    <inkscape:grid
       id="grid1"
       units="px"
       originx="0"
       originy="0"
       spacingx="1"
       spacingy="1"
       empcolor="#0099e5"
       empopacity="0.30196078"
       color="#0099e5"
       opacity="0.14901961"
       empspacing="5"
       dotted="false"
       gridanglex="30"
       gridanglez="30"
       visible="true" />
  </sodipodi:namedview>
  <g
     id="path2"
     style="opacity:1;fill:#000000">
    <path
       style="baseline-shift:baseline;display:inline;overflow:visible;vector-effect:none;fill:#000000;fill-opacity:0.615686;stroke-linecap:round;stroke-linejoin:round;enable-background:accumulate;stop-color:#000000;stop-opacity:1"
       d="M 2.5922669,8.0276127 H 12.813985"
       id="path5" />
    <path
       style="baseline-shift:baseline;display:inline;overflow:visible;vector-effect:none;fill:#000000;stroke-linecap:round;stroke-linejoin:round;enable-background:accumulate;stop-color:#000000;stop-opacity:1"
       d="M 2.5917969,7.4277344 A 0.60000002,0.60000002 0 0 0 1.9921875,8.0273438 0.60000002,0.60000002 0 0 0 2.5917969,8.6269531 H 12.814453 a 0.60000002,0.60000002 0 0 0 0.59961,-0.5996093 0.60000002,0.60000002 0 0 0 -0.59961,-0.5996094 z"
       id="path6" />
    <g
       id="g4"
       style="fill:#000000">
      <path
         style="baseline-shift:baseline;display:inline;overflow:visible;vector-effect:none;fill:#000000;stroke-linecap:round;enable-background:accumulate;stop-color:#000000;stop-opacity:1;opacity:1"
         d="m 9.0898438,4.0039062 a 0.60000002,0.60000002 0 0 0 0,0.8476563 L 12.265625,8.0273438 9.0898438,11.203125 a 0.60000002,0.60000002 0 0 0 0,0.849609 0.60000002,0.60000002 0 0 0 0.8476562,0 L 13.962891,8.0273438 9.9375,4.0039062 a 0.60000002,0.60000002 0 0 0 -0.8476562,0 z"
         id="path4" />
    </g>
  </g>
</svg>
