<?xml version="1.0" encoding="UTF-8" standalone="no"?>
<svg
   width="16"
   height="16"
   viewBox="0 0 16 16"
   version="1.1"
   id="svg1"
   sodipodi:docname="14-ontology-ref.svg"
   inkscape:version="1.3 (0e150ed6c4, 2023-07-21)"
   xmlns:inkscape="http://www.inkscape.org/namespaces/inkscape"
   xmlns:sodipodi="http://sodipodi.sourceforge.net/DTD/sodipodi-0.dtd"
   xmlns="http://www.w3.org/2000/svg"
   xmlns:svg="http://www.w3.org/2000/svg"
   xmlns:rdf="http://www.w3.org/1999/02/22-rdf-syntax-ns#"
   xmlns:cc="http://creativecommons.org/ns#"
   xmlns:dc="http://purl.org/dc/elements/1.1/">
  <sodipodi:namedview
     id="namedview1"
     pagecolor="#ffffff"
     bordercolor="#000000"
     borderopacity="0.25"
     inkscape:showpageshadow="2"
     inkscape:pageopacity="0.0"
     inkscape:pagecheckerboard="0"
     inkscape:deskcolor="#d1d1d1"
     inkscape:zoom="25.15625"
     inkscape:cx="3.2397516"
     inkscape:cy="4.1341615"
     inkscape:window-width="1920"
     inkscape:window-height="1010"
     inkscape:window-x="-6"
     inkscape:window-y="-6"
     inkscape:window-maximized="1"
     inkscape:current-layer="svg1"
     showgrid="true">
    <inkscape:grid
       id="grid1"
       units="px"
       originx="0"
       originy="0"
       spacingx="1"
       spacingy="1"
       empcolor="#0099e5"
       empopacity="0.30196078"
       color="#0099e5"
       opacity="0.14901961"
       empspacing="5"
       dotted="false"
       gridanglex="30"
       gridanglez="30"
       visible="true" />
  </sodipodi:namedview>
  <!-- Generator: Sketch 40.3 (33839) - http://www.bohemiancoding.com/sketch -->
  <title
     id="title1">Slice</title>
  <desc
     id="desc1">Created with Sketch.</desc>
  <defs
     id="defs1" />
  <metadata
     id="metadata1">
    <rdf:RDF>
      <cc:Work
         rdf:about="">
        <dc:title>Slice</dc:title>
      </cc:Work>
    </rdf:RDF>
  </metadata>
  <path
     id="rect3"
     style="fill:#000000;stroke:none;stroke-width:0.999998;stroke-linejoin:bevel;stroke-dashoffset:0.3;paint-order:markers stroke fill"
     d="m 5.4414062,5.0143605 c -0.8309982,0 -1.5,0.669002 -1.5,1.5 0,0.830999 0.6690018,1.5 1.5,1.5 0.8309984,0 1.5,-0.669001 1.5,-1.5 0,-0.830998 -0.6690016,-1.5 -1.5,-1.5 z m 5.1171878,0 c -0.830999,0 -1.5000003,0.669002 -1.5000002,1.5 0,0.830999 0.6690012,1.5 1.5000002,1.5 0.830998,0 1.5,-0.669001 1.5,-1.5 0,-0.830998 -0.669002,-1.5 -1.5,-1.5 z M 8,9.4987355 c -0.8309996,0 -1.5,0.6690005 -1.5,1.4999995 0,0.831 0.6690004,1.5 1.5,1.5 0.8309992,0 1.5,-0.669 1.5,-1.5 C 9.5,10.167736 8.8309992,9.4987355 8,9.4987355 Z" />
</svg>
