<?xml version="1.0" encoding="UTF-8" standalone="no"?>
<svg
   width="16"
   height="16"
   viewBox="0 0 16 16"
   version="1.1"
   id="svg1"
   sodipodi:docname="10-ontology.svg"
   inkscape:version="1.3 (0e150ed6c4, 2023-07-21)"
   xmlns:inkscape="http://www.inkscape.org/namespaces/inkscape"
   xmlns:sodipodi="http://sodipodi.sourceforge.net/DTD/sodipodi-0.dtd"
   xmlns="http://www.w3.org/2000/svg"
   xmlns:svg="http://www.w3.org/2000/svg"
   xmlns:rdf="http://www.w3.org/1999/02/22-rdf-syntax-ns#"
   xmlns:cc="http://creativecommons.org/ns#"
   xmlns:dc="http://purl.org/dc/elements/1.1/">
  <sodipodi:namedview
     id="namedview1"
     pagecolor="#ffffff"
     bordercolor="#000000"
     borderopacity="0.25"
     inkscape:showpageshadow="2"
     inkscape:pageopacity="0.0"
     inkscape:pagecheckerboard="0"
     inkscape:deskcolor="#d1d1d1"
     inkscape:zoom="25.15625"
     inkscape:cx="3.2397516"
     inkscape:cy="4.1341615"
     inkscape:window-width="1920"
     inkscape:window-height="1010"
     inkscape:window-x="-6"
     inkscape:window-y="-6"
     inkscape:window-maximized="1"
     inkscape:current-layer="svg1"
     showgrid="true">
    <inkscape:grid
       id="grid1"
       units="px"
       originx="0"
       originy="0"
       spacingx="1"
       spacingy="1"
       empcolor="#0099e5"
       empopacity="0.30196078"
       color="#0099e5"
       opacity="0.14901961"
       empspacing="5"
       dotted="false"
       gridanglex="30"
       gridanglez="30"
       visible="true" />
  </sodipodi:namedview>
  <!-- Generator: Sketch 40.3 (33839) - http://www.bohemiancoding.com/sketch -->
  <title
     id="title1">Slice</title>
  <desc
     id="desc1">Created with Sketch.</desc>
  <defs
     id="defs1" />
  <path
     id="path5"
     style="fill:#000000;stroke-linejoin:bevel;stroke-dashoffset:0.3;paint-order:markers stroke fill"
     d="M 8 0 A 8 8 0 0 0 0 8 A 8 8 0 0 0 8 16 A 8 8 0 0 0 16 8 A 8 8 0 0 0 8 0 z M 5.4414062 5.0136719 C 6.2724038 5.0136719 6.9414062 5.6826747 6.9414062 6.5136719 C 6.9414062 7.34467 6.2724038 8.0136719 5.4414062 8.0136719 C 4.6104089 8.0136719 3.9414062 7.34467 3.9414062 6.5136719 C 3.9414062 5.6826747 4.6104089 5.0136719 5.4414062 5.0136719 z M 10.558594 5.0136719 C 11.389591 5.0136719 12.058594 5.6826747 12.058594 6.5136719 C 12.058594 7.34467 11.389591 8.0136719 10.558594 8.0136719 C 9.7275956 8.0136719 9.0585938 7.34467 9.0585938 6.5136719 C 9.0585937 5.6826747 9.7275956 5.0136719 10.558594 5.0136719 z M 8 9.4980469 C 8.8309984 9.4980469 9.5 10.167049 9.5 10.998047 C 9.5 11.829046 8.8309984 12.498047 8 12.498047 C 7.1690012 12.498047 6.5 11.829046 6.5 10.998047 C 6.5 10.167049 7.1690012 9.4980469 8 9.4980469 z " />
  <metadata
     id="metadata1">
    <rdf:RDF>
      <cc:Work
         rdf:about="">
        <dc:title>Slice</dc:title>
      </cc:Work>
    </rdf:RDF>
  </metadata>
</svg>
