<?xml version="1.0" encoding="UTF-8" standalone="no"?>
<svg
   width="16"
   height="16"
   viewBox="0 0 16 16"
   version="1.1"
   id="svg1"
   sodipodi:docname="ue017-sparql-file.svg"
   inkscape:version="1.4.2 (ebf0e940d0, 2025-05-08)"
   xml:space="preserve"
   xmlns:inkscape="http://www.inkscape.org/namespaces/inkscape"
   xmlns:sodipodi="http://sodipodi.sourceforge.net/DTD/sodipodi-0.dtd"
   xmlns="http://www.w3.org/2000/svg"
   xmlns:svg="http://www.w3.org/2000/svg"
   xmlns:rdf="http://www.w3.org/1999/02/22-rdf-syntax-ns#"
   xmlns:cc="http://creativecommons.org/ns#"
   xmlns:dc="http://purl.org/dc/elements/1.1/"><sodipodi:namedview
     id="namedview1"
     pagecolor="#ffffff"
     bordercolor="#000000"
     borderopacity="0.25"
     inkscape:showpageshadow="2"
     inkscape:pageopacity="0.0"
     inkscape:pagecheckerboard="0"
     inkscape:deskcolor="#d1d1d1"
     inkscape:zoom="22.627417"
     inkscape:cx="1.1048543"
     inkscape:cy="3.557631"
     inkscape:window-width="1920"
     inkscape:window-height="1080"
     inkscape:window-x="0"
     inkscape:window-y="0"
     inkscape:window-maximized="1"
     inkscape:current-layer="svg1"
     showgrid="false"><inkscape:grid
       id="grid2"
       units="px"
       originx="0"
       originy="0"
       spacingx="1"
       spacingy="1"
       empcolor="#0099e5"
       empopacity="0.30196078"
       color="#0099e5"
       opacity="0.14901961"
       empspacing="5"
       dotted="false"
       gridanglex="30"
       gridanglez="30"
       visible="false" /></sodipodi:namedview><!-- Generator: Sketch 40.3 (33839) - http://www.bohemiancoding.com/sketch --><title
     id="title1">Slice</title><desc
     id="desc1">Created with Sketch.</desc><g
     id="path4"
     style="opacity:1;fill:#000000;fill-opacity:1"><path
       id="path7"
       style="baseline-shift:baseline;display:inline;overflow:visible;vector-effect:none;fill:#000000;enable-background:accumulate;stop-color:#000000;stop-opacity:1;fill-opacity:1"
       d="M 11.476562 1.6953125 C 11.261247 1.6866825 11.041171 1.7108752 10.822266 1.7695312 C 10.736546 1.7925012 10.652675 1.8193585 10.572266 1.8515625 C 10.492666 1.8840665 10.41506 1.9212405 10.339844 1.9628906 C 10.252194 2.0117286 10.168009 2.0665456 10.087891 2.1269531 C 9.6811399 2.4338451 9.3944296 2.8732376 9.2773438 3.3691406 L 9.2558594 3.390625 C 9.1765 3.7302423 9.1769859 4.0931628 9.2734375 4.453125 C 9.3177513 4.6154473 9.3886693 4.7682239 9.46875 4.9160156 L 7.6484375 6.9492188 C 7.1890867 6.7419136 6.6763163 6.6663781 6.1875 6.796875 C 6.133278 6.811404 6.0814239 6.8293792 6.0292969 6.8476562 C 6.0063829 6.8550962 5.9835925 6.8629047 5.9609375 6.8710938 C 5.8967145 6.8960108 5.8340976 6.9247161 5.7734375 6.9550781 C 5.7083865 6.9876391 5.6446865 7.0221601 5.5839844 7.0605469 C 4.7948572 7.55957 4.3844981 8.5318799 4.6386719 9.4804688 C 4.7228709 9.7947031 4.8712543 10.075297 5.0664062 10.310547 C 5.1315573 10.388267 5.20204 10.461364 5.2773438 10.529297 C 5.6788469 10.892406 6.2008439 11.093549 6.7421875 11.09375 C 7.1478552 11.09374 7.5455119 10.9808 7.890625 10.767578 C 8.4398808 10.401337 8.5250047 10.184211 8.6367188 9.9980469 C 8.7484327 9.8118831 8.914657 9.2904699 8.9277344 8.9082031 C 8.9428738 8.4656637 8.8091316 8.0715975 8.5976562 7.7578125 L 10.367188 5.7792969 C 10.795257 6.0067655 11.282138 6.0817076 11.759766 6 L 11.767578 6.0253906 C 12.192377 5.9536636 12.586495 5.7579639 12.900391 5.4628906 L 12.892578 5.4375 C 13.459383 4.8888113 13.707087 4.0853279 13.505859 3.3183594 C 13.251686 2.3697705 12.409596 1.7327131 11.476562 1.6953125 z M 11.416016 2.9394531 C 11.823697 2.9501731 12.191638 3.2260036 12.302734 3.640625 C 12.438167 4.1460682 12.138258 4.6633952 11.632812 4.7988281 C 11.12737 4.9342613 10.611997 4.6363025 10.476562 4.1308594 C 10.341128 3.6254161 10.639088 3.1080894 11.144531 2.9726562 C 11.207711 2.9557272 11.271202 2.9452332 11.333984 2.9414062 C 11.361454 2.9397363 11.388836 2.9387331 11.416016 2.9394531 z M 13.474609 7.0019531 C 12.822309 7.0019531 12.214723 7.1747391 11.763672 7.5410156 C 11.312621 7.9072922 11.027683 8.4697145 11.017578 9.1972656 L 11.015625 9.3496094 L 12.693359 9.3496094 L 12.699219 9.2050781 C 12.709739 8.9483556 12.804823 8.7702704 12.943359 8.6484375 C 13.081896 8.5266046 13.268695 8.4628906 13.46875 8.4628906 C 13.886649 8.4628906 14.191406 8.7117684 14.191406 9.1269531 C 14.191406 9.3239157 14.126176 9.479564 14.005859 9.6289062 C 13.885541 9.7782489 13.707351 9.9158974 13.498047 10.050781 C 13.197892 10.236326 12.941769 10.42537 12.767578 10.734375 C 12.593139 11.043821 12.509766 11.45526 12.509766 12.080078 L 12.509766 12.345703 L 14.09375 12.345703 L 14.09375 12.080078 C 14.09375 11.752935 14.14993 11.553732 14.261719 11.390625 C 14.373506 11.227518 14.554408 11.091338 14.826172 10.929688 C 15.508612 10.521218 15.96875 9.9457183 15.96875 9.0800781 C 15.96875 8.4359013 15.703196 7.9022734 15.255859 7.5449219 C 14.808524 7.187571 14.188741 7.0019537 13.474609 7.0019531 z M 6.78125 7.9667969 C 7.1889314 7.9775169 7.5568712 8.2533473 7.6679688 8.6679688 C 7.8034017 9.1734117 7.5054431 9.6907388 7 9.8261719 C 6.4945568 9.961605 5.97723 9.6636463 5.8417969 9.1582031 C 5.7063638 8.6527599 6.0043224 8.135433 6.5097656 8 C 6.572946 7.9830709 6.6364359 7.9725769 6.6992188 7.96875 C 6.7266857 7.96708 6.754071 7.9660769 6.78125 7.9667969 z M 13.306641 12.707031 C 13.022076 12.707031 12.768729 12.802411 12.587891 12.974609 C 12.407052 13.146802 12.302734 13.393618 12.302734 13.671875 C 12.302734 14.224317 12.737512 14.632814 13.306641 14.632812 C 13.871607 14.632812 14.304688 14.224317 14.304688 13.671875 C 14.304688 13.115361 13.871607 12.707031 13.306641 12.707031 z " /></g><defs
     id="defs1" /><metadata
     id="metadata1"><rdf:RDF><cc:Work
         rdf:about=""><dc:title>Slice</dc:title></cc:Work></rdf:RDF></metadata><g
     id="text1"
     style="opacity:1;fill:#000000;fill-opacity:1" /></svg>
