<?xml version="1.0" encoding="UTF-8" standalone="no"?>
<svg
   width="16"
   height="16"
   viewBox="0 0 16 16"
   version="1.1"
   id="svg1"
   sodipodi:docname="16-collection-o.svg"
   inkscape:version="1.3 (0e150ed6c4, 2023-07-21)"
   xml:space="preserve"
   xmlns:inkscape="http://www.inkscape.org/namespaces/inkscape"
   xmlns:sodipodi="http://sodipodi.sourceforge.net/DTD/sodipodi-0.dtd"
   xmlns="http://www.w3.org/2000/svg"
   xmlns:svg="http://www.w3.org/2000/svg"
   xmlns:rdf="http://www.w3.org/1999/02/22-rdf-syntax-ns#"
   xmlns:cc="http://creativecommons.org/ns#"
   xmlns:dc="http://purl.org/dc/elements/1.1/"><sodipodi:namedview
     id="namedview1"
     pagecolor="#ffffff"
     bordercolor="#000000"
     borderopacity="0.25"
     inkscape:showpageshadow="2"
     inkscape:pageopacity="0.0"
     inkscape:pagecheckerboard="0"
     inkscape:deskcolor="#d1d1d1"
     inkscape:zoom="22.627418"
     inkscape:cx="10.849669"
     inkscape:cy="6.2313782"
     inkscape:window-width="1920"
     inkscape:window-height="1010"
     inkscape:window-x="-6"
     inkscape:window-y="-6"
     inkscape:window-maximized="1"
     inkscape:current-layer="svg1"
     showgrid="true"><inkscape:grid
       id="grid1"
       units="px"
       originx="0"
       originy="0"
       spacingx="1"
       spacingy="1"
       empcolor="#0099e5"
       empopacity="0.30196078"
       color="#0099e5"
       opacity="0.14901961"
       empspacing="5"
       dotted="false"
       gridanglex="30"
       gridanglez="30"
       visible="true" /></sodipodi:namedview><!-- Generator: Sketch 40.3 (33839) - http://www.bohemiancoding.com/sketch --><title
     id="title1">Slice</title><desc
     id="desc1">Created with Sketch.</desc><defs
     id="defs1" /><metadata
     id="metadata1"><rdf:RDF><cc:Work
         rdf:about=""><dc:title>Slice</dc:title></cc:Work></rdf:RDF></metadata><path
     id="path1"
     style="stroke-width:0.025"
     d="m 1.9960937,5.9921875 v 1.0019531 h 1.671875 V 7.4960938 H 2.6660156 C 2.476635,7.4960938 2.3175635,7.5593896 2.1894531,7.6875 2.0613427,7.8156104 1.9960937,7.9746819 1.9960937,8.1640625 V 10.001953 H 4.6699219 V 9 H 3 V 8.4980469 h 1.0019531 c 0.1893806,0 0.3484521,-0.063296 0.4765625,-0.1914063 C 4.606626,8.1785302 4.6699219,8.0194587 4.6699219,7.8300782 V 6.6601563 C 4.6699218,6.4707757 4.606626,6.3117042 4.4785156,6.1835938 4.3504052,6.0554834 4.1913337,5.9921875 4.0019531,5.9921875 Z"
     sodipodi:nodetypes="ccccssscccccssssssc" /><path
     id="path4"
     style="stroke-width:0.025"
     d="m 1.996094,11 v 1.003906 h 1.669922 v 0.5 H 2.664063 v 1.003906 h 1.001953 v 0.5 H 1.996094 v 1.003906 H 4 c 0.189382,0 0.348453,-0.06525 0.476563,-0.193359 0.12811,-0.128111 0.193359,-0.285229 0.193359,-0.47461 v -0.669921 c 0,-0.189381 -0.065249,-0.348452 -0.193359,-0.476563 C 4.348453,13.069155 4.189382,13.005859 4,13.005859 c 0.189382,0 0.348453,-0.0633 0.476563,-0.191406 0.12811,-0.128111 0.193359,-0.287182 0.193359,-0.476563 v -0.667969 c 0,-0.18938 -0.065249,-0.348451 -0.193359,-0.476562 C 4.348453,11.065249 4.189382,11 4,11 Z"
     sodipodi:nodetypes="ccccccccccsssssccssssc" /><path
     id="path5"
     style="stroke-width:0.025"
     d="M 1.998047,1 V 2.0039063 H 3.0000001 V 5.0058594 H 4.001953 V 1 Z"
     sodipodi:nodetypes="ccccccc" /><path
     style="fill:#000000;fill-opacity:1;stroke-width:3.51118"
     d="m 6.7016893,2.5029297 v 1 H 14 v -1 z"
     id="path7"
     sodipodi:nodetypes="ccccc" /><path
     style="fill:#000000;fill-opacity:1;stroke-width:3.51118"
     d="M 6.7016893,7.4970702 V 8.4970703 H 14 V 7.4970702 Z"
     id="path8"
     sodipodi:nodetypes="ccccc" /><path
     style="fill:#000000;fill-opacity:1;stroke-width:3.51118"
     d="m 6.7016893,12.505859 v 1 H 14 v -1 z"
     id="path9"
     sodipodi:nodetypes="ccccc" /></svg>
