<?xml version="1.0" encoding="UTF-8" standalone="no"?>
<svg
   width="16"
   height="16"
   viewBox="0 0 16 16"
   version="1.1"
   id="svg1"
   sodipodi:docname="22-go-to-shape.svg"
   inkscape:version="1.3 (0e150ed6c4, 2023-07-21)"
   xml:space="preserve"
   xmlns:inkscape="http://www.inkscape.org/namespaces/inkscape"
   xmlns:sodipodi="http://sodipodi.sourceforge.net/DTD/sodipodi-0.dtd"
   xmlns="http://www.w3.org/2000/svg"
   xmlns:svg="http://www.w3.org/2000/svg"
   xmlns:rdf="http://www.w3.org/1999/02/22-rdf-syntax-ns#"
   xmlns:cc="http://creativecommons.org/ns#"
   xmlns:dc="http://purl.org/dc/elements/1.1/"><sodipodi:namedview
     id="namedview1"
     pagecolor="#ffffff"
     bordercolor="#000000"
     borderopacity="0.25"
     inkscape:showpageshadow="2"
     inkscape:pageopacity="0.0"
     inkscape:pagecheckerboard="0"
     inkscape:deskcolor="#d1d1d1"
     inkscape:zoom="35.57631"
     inkscape:cx="10.273691"
     inkscape:cy="9.1352926"
     inkscape:window-width="1920"
     inkscape:window-height="1010"
     inkscape:window-x="-6"
     inkscape:window-y="-6"
     inkscape:window-maximized="1"
     inkscape:current-layer="svg1"
     showgrid="true"><inkscape:grid
       id="grid1"
       units="px"
       originx="0"
       originy="0"
       spacingx="1"
       spacingy="1"
       empcolor="#0099e5"
       empopacity="0.30196078"
       color="#0099e5"
       opacity="0.14901961"
       empspacing="5"
       dotted="false"
       gridanglex="30"
       gridanglez="30"
       visible="true" /></sodipodi:namedview><!-- Generator: Sketch 40.3 (33839) - http://www.bohemiancoding.com/sketch --><title
     id="title1">Slice</title><desc
     id="desc1">Created with Sketch.</desc><defs
     id="defs1" /><metadata
     id="metadata1"><rdf:RDF><cc:Work
         rdf:about=""><dc:title>Slice</dc:title></cc:Work></rdf:RDF></metadata><path
     id="path1"
     style="color:#000000;fill:#000000;stroke-width:1.5333;stroke-dashoffset:0.874353;-inkscape-stroke:none"
     d="M 10.507812 1.4863281 L 8.984375 2.3984375 L 8.984375 3.6875 L 10.507812 2.7753906 L 14.921875 5.4140625 L 14.923828 10.695312 L 10.513672 13.335938 L 6.1015625 10.697266 L 6.0996094 7.3457031 L 5.0234375 7.3457031 L 5.0253906 11.34375 L 10.513672 14.626953 L 16 11.335938 L 15.996094 4.7695312 L 15.726562 4.6054688 L 10.507812 1.4863281 z M 5.8925781 1.5 L 5.1855469 2.2070312 L 5.2285156 2.25 L 5.4785156 2.5 L 6.4785156 3.5 L 3.4785156 3.5 C 2.8154763 3.5 2.179777 3.7635823 1.7109375 4.2324219 C 1.242098 4.7012614 0.97851563 5.3369607 0.97851562 6 C 0.97851562 6.6630493 1.242098 7.2987386 1.7109375 7.7675781 C 2.179777 8.2364177 2.8154763 8.5 3.4785156 8.5 L 3.9785156 8.5 L 3.9785156 7.5 L 3.4785156 7.5 C 3.080696 7.5 2.6992785 7.3418566 2.4179688 7.0605469 C 2.136669 6.7792472 1.9785156 6.3978296 1.9785156 6 C 1.9785156 5.6021804 2.136669 5.2207628 2.4179688 4.9394531 C 2.6992785 4.6581534 3.080696 4.5 3.4785156 4.5 L 4.9785156 4.5 L 5.4785156 4.5 L 6.4785156 4.5 L 5.1855469 5.7929688 L 5.8925781 6.5 L 5.9785156 6.4140625 L 8.0390625 4.3535156 L 8.0390625 3.6464844 L 5.8925781 1.5 z " /></svg>
