<?xml version="1.0" encoding="UTF-8" standalone="no"?>
<svg
   width="16"
   height="16"
   viewBox="0 0 16 16"
   fill="currentColor"
   version="1.1"
   id="svg1"
   sodipodi:docname="ue023-document-check.svg"
   inkscape:version="1.4.3 (0d15f75042, 2025-12-25)"
   xmlns:inkscape="http://www.inkscape.org/namespaces/inkscape"
   xmlns:sodipodi="http://sodipodi.sourceforge.net/DTD/sodipodi-0.dtd"
   xmlns="http://www.w3.org/2000/svg"
   xmlns:svg="http://www.w3.org/2000/svg">
  <defs
     id="defs1" />
  <sodipodi:namedview
     id="namedview1"
     pagecolor="#ffffff"
     bordercolor="#000000"
     borderopacity="0.25"
     inkscape:showpageshadow="2"
     inkscape:pageopacity="0.0"
     inkscape:pagecheckerboard="0"
     inkscape:deskcolor="#d1d1d1"
     inkscape:zoom="26.594627"
     inkscape:cx="5.0762134"
     inkscape:cy="12.784537"
     inkscape:window-width="1920"
     inkscape:window-height="1043"
     inkscape:window-x="1920"
     inkscape:window-y="0"
     inkscape:window-maximized="1"
     inkscape:current-layer="svg1"
     showgrid="false">
    <inkscape:grid
       id="grid1"
       units="px"
       originx="0"
       originy="0"
       spacingx="1"
       spacingy="1"
       empcolor="#0099e5"
       empopacity="0.30196078"
       color="#0099e5"
       opacity="0.14901961"
       empspacing="5"
       enabled="true"
       visible="false" />
  </sodipodi:namedview>
  <path
     id="path1-3"
     style="fill:#000000"
     d="m 3.498047,0.5 c -1.105,0 -2,0.895 -2,2 v 10 c 0,1.105 0.895,2 2,2 H 5.7597658 C 5.5067657,14.193 5.2894689,13.857 5.1054689,13.5 H 3.498047 c -0.552,0 -1,-0.448 -1,-1 v -10 c 0,-0.552 0.448,-1 1,-1 h 3 V 4 c 0,0.828 0.672,1.5 1.5,1.5 h 2.5 v 0.025391 c 0.344,0.031 0.677,0.0955 1,0.1875 V 4.9140625 c 0,-0.398 -0.158453,-0.7785469 -0.439453,-1.0605469 L 8.1445314,0.93945312 C 7.8635314,0.65845314 7.4819845,0.5 7.0839845,0.5 Z m 4,1.2070312 L 10.291016,4.5 H 7.998047 c -0.276,0 -0.5,-0.224 -0.5,-0.5 z m 2.503906,4.7851563 c -2.4850003,0 -4.4999998,2.0149997 -4.4999998,4.5000005 1e-7,2.484999 2.0149996,4.5 4.4999998,4.5 2.485,0 4.5,-2.015001 4.5,-4.5 0,-2.4850008 -2.015,-4.5000005 -4.5,-4.5000005 z m 2,3 c 0.127944,-1.3e-6 0.255886,0.048849 0.353516,0.1464844 0.19523,0.1952 0.19523,0.5118311 0,0.7070311 l -2.5,2.5 c -0.19526,0.1953 -0.511761,0.1953 -0.707031,0 l -1.5000004,-1.5 c -0.19526,-0.1952 -0.19526,-0.511831 0,-0.707031 0.19527,-0.1953 0.5117713,-0.1953 0.7070313,0 l 1.1464841,1.146484 2.146485,-2.1464841 c 0.09764,-0.09763 0.225571,-0.1464831 0.353515,-0.1464844 z" />
  <g
     id="path5"
     style="opacity:1;fill:#000000;fill-opacity:1" />
  <path
     d="m -45.5,34.5 h 10.095 C -35.93,35.4 -36.89,36 -38,36 h -7.5 c -3.315,0 -6,-2.685 -6,-6 V 18 c 0,-1.11 0.6,-2.07 1.5,-2.595 V 30 c 0,2.475 2.025,4.5 4.5,4.5 z M -32,20.121 V 30 c 0,1.6545 -1.3455,3 -3,3 h -10.5 c -1.6545,0 -3,-1.3455 -3,-3 V 15 c 0,-1.6545 1.3455,-3 3,-3 h 5.379 c 0.5925,0 1.1715,0.24 1.5915,0.6585 l 5.871,5.871 C -32.234,18.954 -32,19.5195 -32,20.121 Z m -7.5,-1.371 c 0,0.414 0.3375,0.75 0.75,0.75 h 4.9395 L -39.5,13.8105 Z m 6,11.25 v -9 h -5.25 C -39.9905,21 -41,19.9905 -41,18.75 V 13.5 h -4.5 c -0.828,0 -1.5,0.6735 -1.5,1.5 v 15 c 0,0.8265 0.672,1.5 1.5,1.5 H -35 c 0.828,0 1.5,-0.6735 1.5,-1.5 z"
     id="path1" />
  <path
     d="m -41.467194,26.646 c 0.195,0.195 0.195,0.512 0,0.707 l -2,2 c -0.195,0.195 -0.512,0.195 -0.707,0 l -1,-1 c -0.194997,-0.195 -0.194997,-0.512 0,-0.707 0.195,-0.195 0.512,-0.195 0.707,0 l 0.646,0.646 1.646,-1.646 c 0.195,-0.195 0.513,-0.195 0.708,0 z m 5.64599,1.854 h -3.99999 c -0.276,0 -0.5,-0.224 -0.5,-0.5 0,-0.276 0.224,-0.5 0.5,-0.5 h 3.99999 c 0.276,0 0.5,0.224 0.5,0.5 0,0.276 -0.224,0.5 -0.5,0.5 z m -5.64599,-6.354 c 0.195,0.195 0.195,0.512 0,0.707 l -2,2 c -0.195,0.195 -0.512,0.195 -0.707,0 l -1,-1 c -0.194997,-0.195 -0.194997,-0.512 0,-0.707 0.195,-0.195 0.512,-0.195 0.707,0 l 0.646,0.646 1.646,-1.646 c 0.195,-0.195 0.513,-0.195 0.708,0 z m 5.64599,1.854 h -3.99999 c -0.276,0 -0.5,-0.224 -0.5,-0.5 0,-0.276 0.224,-0.5 0.5,-0.5 h 3.99999 c 0.276,0 0.5,0.224 0.5,0.5 0,0.276 -0.224,0.5 -0.5,0.5 z"
     id="path1-2"
     sodipodi:nodetypes="sssscsscssssssssssssscsscsssssssss"
     style="stroke:#000000;stroke-width:0.4;stroke-dasharray:none" />
</svg>
