<?xml version="1.0" encoding="UTF-8" standalone="no"?>
<svg
   width="16"
   height="16"
   viewBox="0 0 16 16"
   fill="currentColor"
   version="1.1"
   id="svg1"
   sodipodi:docname="ue020-databases.svg"
   inkscape:version="1.4.3 (0d15f75042, 2025-12-25)"
   xmlns:inkscape="http://www.inkscape.org/namespaces/inkscape"
   xmlns:sodipodi="http://sodipodi.sourceforge.net/DTD/sodipodi-0.dtd"
   xmlns="http://www.w3.org/2000/svg"
   xmlns:svg="http://www.w3.org/2000/svg">
  <defs
     id="defs1" />
  <sodipodi:namedview
     id="namedview1"
     pagecolor="#ffffff"
     bordercolor="#000000"
     borderopacity="0.25"
     inkscape:showpageshadow="2"
     inkscape:pageopacity="0.0"
     inkscape:pagecheckerboard="0"
     inkscape:deskcolor="#d1d1d1"
     inkscape:zoom="41.632258"
     inkscape:cx="10.616767"
     inkscape:cy="6.8336433"
     inkscape:window-width="1920"
     inkscape:window-height="1152"
     inkscape:window-x="0"
     inkscape:window-y="0"
     inkscape:window-maximized="1"
     inkscape:current-layer="svg1"
     showgrid="true">
    <inkscape:grid
       id="grid1"
       units="px"
       originx="0"
       originy="0"
       spacingx="1"
       spacingy="1"
       empcolor="#0099e5"
       empopacity="0.30196078"
       color="#0099e5"
       opacity="0.14901961"
       empspacing="5"
       enabled="true"
       visible="true" />
  </sodipodi:namedview>
  <path
     id="path1"
     style="fill:#1a1a1a;stroke-width:1"
     d="M 8 0.22265625 C 4.9322223 0.22265625 2.4453125 1.4655555 2.4453125 3 C 2.4453125 3.044444 2.4662581 3.0864144 2.4707031 3.1308594 L 2.4453125 3.1308594 L 2.4453125 12.988281 L 2.5058594 13.384766 C 2.7797479 14.568356 4.6156921 15.522911 7 15.734375 L 7 14.619141 C 4.9105358 14.417112 3.700939 13.612958 3.5898438 13.134766 L 3.5546875 12.988281 L 3.5546875 4.65625 A 8.2377777 8.2377777 0 0 0 8 5.7773438 A 8.2377777 8.2377777 0 0 0 12.445312 4.6503906 L 12.445312 9 L 13.554688 9 L 13.554688 3.1308594 L 13.529297 3.1308594 C 13.533697 3.0864154 13.554687 3.044444 13.554688 3 C 13.554688 1.4655555 11.067778 0.22265625 8 0.22265625 z M 8 1.3691406 C 10.713333 1.3691406 12.445314 2.44 12.445312 3 C 12.445312 3.56 10.713333 4.6308594 8 4.6308594 C 5.2866667 4.6308594 3.5546875 3.5555555 3.5546875 3 C 3.5546875 2.4444444 5.2866667 1.3691406 8 1.3691406 z M 10.802734 9.6777344 C 10.658162 9.6785198 10.517865 9.7372354 10.416016 9.8398438 L 7.7578125 12.498047 A 0.15001501 0.15001501 0 0 0 7.7578125 12.708984 L 10.417969 15.369141 C 10.630117 15.581081 10.977304 15.581081 11.189453 15.369141 C 11.401394 15.156992 11.401394 14.809805 11.189453 14.597656 L 9.7421875 13.150391 L 15.378906 13.150391 C 15.678907 13.150333 15.925723 12.903516 15.925781 12.603516 C 15.925724 12.303515 15.678907 12.056698 15.378906 12.056641 L 9.7421875 12.056641 L 11.189453 10.609375 A 0.15001501 0.15001501 0 0 0 11.191406 10.609375 C 11.401592 10.397516 11.401592 10.051703 11.191406 9.8398438 C 11.088853 9.7365768 10.948239 9.6778058 10.802734 9.6777344 z " />
  <g
     id="path5"
     style="opacity:1;fill:#000000;fill-opacity:1" />
</svg>
