<?xml version="1.0" encoding="UTF-8" standalone="no"?>
<svg
   width="16"
   height="16"
   viewBox="0 0 16 16"
   fill="currentColor"
   version="1.1"
   id="svg1"
   sodipodi:docname="ue024-run-query.svg"
   inkscape:version="1.4.3 (0d15f75042, 2025-12-25)"
   xmlns:inkscape="http://www.inkscape.org/namespaces/inkscape"
   xmlns:sodipodi="http://sodipodi.sourceforge.net/DTD/sodipodi-0.dtd"
   xmlns="http://www.w3.org/2000/svg"
   xmlns:svg="http://www.w3.org/2000/svg">
  <defs
     id="defs1" />
  <sodipodi:namedview
     id="namedview1"
     pagecolor="#ffffff"
     bordercolor="#000000"
     borderopacity="0.25"
     inkscape:showpageshadow="2"
     inkscape:pageopacity="0.0"
     inkscape:pagecheckerboard="0"
     inkscape:deskcolor="#d1d1d1"
     inkscape:zoom="31.68959"
     inkscape:cx="14.941815"
     inkscape:cy="7.8101357"
     inkscape:window-width="1920"
     inkscape:window-height="1014"
     inkscape:window-x="0"
     inkscape:window-y="29"
     inkscape:window-maximized="1"
     inkscape:current-layer="svg1"
     showgrid="false">
    <inkscape:grid
       id="grid1"
       units="px"
       originx="0"
       originy="0"
       spacingx="1"
       spacingy="1"
       empcolor="#0099e5"
       empopacity="0.30196078"
       color="#0099e5"
       opacity="0.14901961"
       empspacing="5"
       enabled="true"
       visible="false" />
  </sodipodi:namedview>
  <path
     id="path1"
     style="fill:#000000"
     d="M 5.5 1 C 4.673 1 4 1.673 4 2.5 L 4 5.2128906 C 4.32298 5.1209006 4.65602 5.0563906 5 5.0253906 L 5 2.5 C 5 2.225 5.225 2 5.5 2 C 5.587 2 5.6691406 2.0224531 5.7441406 2.0644531 L 13.744141 6.5644531 C 13.901041 6.6524931 14 6.81911 14 7 C 14 7.18088 13.902041 7.3465069 13.744141 7.4355469 L 10.808594 9.0878906 C 10.898574 9.4267906 10.958402 9.7777719 10.982422 10.138672 L 14.234375 8.3085938 C 14.707075 8.0425337 15 7.54182 15 7 C 15 6.45818 14.707075 5.9574662 14.234375 5.6914062 L 6.234375 1.1914062 C 6.011375 1.0664063 5.756 1 5.5 1 z M 5.5 6 C 3.015 6 1 8.0149998 1 10.5 C 1 12.985 3.015 15 5.5 15 C 7.985 15 10 12.985 10 10.5 C 10 8.0149998 7.985 6 5.5 6 z M 5.6308594 7.4765625 C 6.7968304 7.4765625 7.6074219 8.1371742 7.6074219 9.0683594 C 7.6074219 9.665273 7.3378568 10.149737 6.8085938 10.503906 C 6.3111657 10.834198 6.0351562 11.034481 6.0351562 11.496094 L 6.0351562 11.746094 L 4.9804688 11.746094 L 4.9804688 11.416016 C 4.9804688 10.624111 5.2756934 10.385563 5.8964844 10.023438 C 6.3023854 9.7767123 6.4648438 9.4822701 6.4648438 9.171875 C 6.4648438 8.7261795 6.1345115 8.4355469 5.6171875 8.4355469 C 5.0481285 8.4355469 4.6992187 8.7978372 4.6992188 9.3828125 L 3.5722656 9.3828125 C 3.5722656 8.2645944 4.3972384 7.4765625 5.6308594 7.4765625 z M 5.5234375 12.212891 C 5.8975025 12.212891 6.1992187 12.514606 6.1992188 12.888672 C 6.1992188 13.266717 5.8975035 13.564453 5.5234375 13.564453 C 5.1493715 13.564453 4.8457031 13.266717 4.8457031 12.888672 C 4.8457031 12.514606 5.1493705 12.212891 5.5234375 12.212891 z " />
  <g
     id="path5"
     style="opacity:1;fill:#000000;fill-opacity:1" />
  <g
     id="g1"
     transform="translate(-18,3)" />
</svg>
