<?xml version="1.0" encoding="UTF-8" standalone="no"?>
<svg
   width="16"
   height="16"
   viewBox="0 0 16 16"
   fill="currentColor"
   version="1.1"
   id="svg1"
   sodipodi:docname="ue022-add-notebook.svg"
   inkscape:version="1.4.3 (0d15f75042, 2025-12-25)"
   xmlns:inkscape="http://www.inkscape.org/namespaces/inkscape"
   xmlns:sodipodi="http://sodipodi.sourceforge.net/DTD/sodipodi-0.dtd"
   xmlns="http://www.w3.org/2000/svg"
   xmlns:svg="http://www.w3.org/2000/svg">
  <defs
     id="defs1" />
  <sodipodi:namedview
     id="namedview1"
     pagecolor="#ffffff"
     bordercolor="#000000"
     borderopacity="0.25"
     inkscape:showpageshadow="2"
     inkscape:pageopacity="0.0"
     inkscape:pagecheckerboard="0"
     inkscape:deskcolor="#d1d1d1"
     inkscape:zoom="13.77286"
     inkscape:cx="5.0824594"
     inkscape:cy="12.016386"
     inkscape:window-width="1920"
     inkscape:window-height="1014"
     inkscape:window-x="0"
     inkscape:window-y="29"
     inkscape:window-maximized="1"
     inkscape:current-layer="svg1"
     showgrid="false">
    <inkscape:grid
       id="grid1"
       units="px"
       originx="0"
       originy="0"
       spacingx="1"
       spacingy="1"
       empcolor="#0099e5"
       empopacity="0.30196078"
       color="#0099e5"
       opacity="0.14901961"
       empspacing="5"
       enabled="true"
       visible="false" />
  </sodipodi:namedview>
  <g
     id="path5"
     style="opacity:1;fill:#000000;fill-opacity:1" />
  <g
     id="g2"
     transform="translate(0,-0.5)">
    <path
       id="path1-5"
       d="m 4.3535156,1 c -0.9665,0 -1.75,0.7835 -1.75,1.75 v 10.5 c 0,0.9665 0.7835,1.75 1.75,1.75 H 7.2148438 C 6.9512106,14.693006 6.7225879,14.357605 6.5332031,14 H 4.3535156 c -0.41421,0 -0.75,-0.3358 -0.75,-0.75 V 2.75 c 0,-0.41421 0.33579,-0.75 0.75,-0.75 h 7.5000004 c 0.4142,0 0.75,0.33579 0.75,0.75 v 3.3964844 c 0.343618,0.081269 0.678526,0.1957395 1,0.3417968 V 2.75 c 0,-0.9665 -0.7835,-1.75 -1.75,-1.75 z m 1,2 c -0.41421,0 -0.75,0.33579 -0.75,0.75 v 1.5 c 0,0.41421 0.33579,0.75 0.75,0.75 h 5.5000004 c 0.4142,0 0.75,-0.33579 0.75,-0.75 v -1.5 c 0,-0.41421 -0.3358,-0.75 -0.75,-0.75 z m 0.25,1 H 10.603516 V 5 H 5.6035156 Z m 9.0000004,0 v 2 h 0.625 c 0.2071,0 0.375,-0.16789 0.375,-0.375 v -1.25 c 0,-0.20711 -0.1679,-0.375 -0.375,-0.375 z"
       sodipodi:nodetypes="ssssccssssssccsssssssssssscccccccssssc" />
    <path
       id="path1"
       d="m 11.853516,6.0234375 v 0.00195 c 0.172,0.0155 0.341187,0.038687 0.507812,0.070312 a 5.4500542,5.4500542 0 0 0 -0.507812,-0.072266 z m 0.507812,0.072266 c 0.166625,0.031625 0.330688,0.071188 0.492188,0.1171875 v -0.00195 A 5.4500542,5.4500542 0 0 0 12.361328,6.0957031 Z M 11.353516,7 c -2.4850004,0 -4.5000004,2.0150002 -4.5000004,4.5 0,2.485 2.015,4.5 4.5000004,4.5 2.485,0 4.5,-2.015 4.5,-4.5 0,-2.4849998 -2.015,-4.5 -4.5,-4.5 z m 0,1.5 c 0.276,0 0.5,0.224 0.5,0.5 v 2 h 2 c 0.276,0 0.5,0.224 0.5,0.5 0,0.276 -0.224,0.5 -0.5,0.5 h -2 v 2 c 0,0.276 -0.224,0.5 -0.5,0.5 -0.276,0 -0.5,-0.224 -0.5,-0.5 V 12 H 8.8535156 c -0.276,0 -0.5,-0.224 -0.5,-0.5 0,-0.276 0.224,-0.5 0.5,-0.5 H 10.853516 V 9 c 0,-0.276 0.224,-0.5 0.5,-0.5 z" />
  </g>
</svg>
