<?xml version="1.0" encoding="UTF-8" standalone="no"?>
<svg
   width="16"
   height="16"
   viewBox="0 0 16 16"
   fill="currentColor"
   version="1.1"
   id="svg1"
   sodipodi:docname="ue013-rdf-tree.svg"
   inkscape:version="1.4.2 (ebf0e940d0, 2025-05-08)"
   xmlns:inkscape="http://www.inkscape.org/namespaces/inkscape"
   xmlns:sodipodi="http://sodipodi.sourceforge.net/DTD/sodipodi-0.dtd"
   xmlns="http://www.w3.org/2000/svg"
   xmlns:svg="http://www.w3.org/2000/svg">
  <defs
     id="defs1" />
  <sodipodi:namedview
     id="namedview1"
     pagecolor="#ffffff"
     bordercolor="#000000"
     borderopacity="0.25"
     inkscape:showpageshadow="2"
     inkscape:pageopacity="0.0"
     inkscape:pagecheckerboard="0"
     inkscape:deskcolor="#d1d1d1"
     inkscape:zoom="16"
     inkscape:cx="17.625"
     inkscape:cy="10.34375"
     inkscape:window-width="1920"
     inkscape:window-height="1008"
     inkscape:window-x="0"
     inkscape:window-y="0"
     inkscape:window-maximized="1"
     inkscape:current-layer="svg1"
     showgrid="true">
    <inkscape:grid
       id="grid1"
       units="px"
       originx="0"
       originy="0"
       spacingx="1"
       spacingy="1"
       empcolor="#0099e5"
       empopacity="0.30196078"
       color="#0099e5"
       opacity="0.14901961"
       empspacing="5"
       dotted="false"
       gridanglex="30"
       gridanglez="30"
       visible="true" />
  </sodipodi:namedview>
  <path
     id="path16"
     style="baseline-shift:baseline;display:inline;overflow:visible;vector-effect:none;fill:#000000;enable-background:accumulate;stop-color:#000000"
     d="M 13 1 C 11.901495 1 11 1.901495 11 3 C 11 3.3692328 11.10235 3.7157076 11.279297 4.0136719 L 9.7363281 5.5566406 C 9.2455665 5.2064092 8.6458546 5 8 5 C 7.235627 5 6.5368802 5.2892225 6.0058594 5.7636719 L 4.8242188 4.8183594 C 4.9375792 4.5681684 5 4.2909073 5 4 C 5 2.901495 4.098505 2 3 2 C 1.901495 2 1 2.901495 1 4 C 1 5.098505 1.901495 6 3 6 C 3.4476936 6 3.8627049 5.8494367 4.1972656 5.5976562 L 5.3789062 6.5449219 C 5.1376213 6.9766203 5 7.4725123 5 8 C 5 8.5274876 5.1376214 9.0233797 5.3789062 9.4550781 L 4.1972656 10.402344 C 3.8627049 10.150563 3.4476935 10 3 10 C 1.901495 10 1 10.901495 1 12 C 1 13.098505 1.901495 14 3 14 C 4.098505 14 5 13.098505 5 12 C 5 11.709093 4.9375793 11.431832 4.8242188 11.181641 L 6.0058594 10.236328 C 6.5368802 10.710778 7.235627 11 8 11 C 8.6458545 11 9.2455666 10.793591 9.7363281 10.443359 L 11.279297 11.986328 C 11.10235 12.284292 11 12.630767 11 13 C 11 14.098505 11.901495 15 13 15 C 14.098505 15 15 14.098505 15 13 C 15 11.901495 14.098505 11 13 11 C 12.630767 11 12.284292 11.10235 11.986328 11.279297 L 10.443359 9.7363281 C 10.793591 9.2455666 11 8.6458545 11 8 C 11 7.3541455 10.793591 6.7544334 10.443359 6.2636719 L 11.986328 4.7207031 C 12.284292 4.8976499 12.630767 5 13 5 C 14.098505 5 15 4.098505 15 3 C 15 1.901495 14.098505 1 13 1 z M 13 2 C 13.558065 2 14 2.4419351 14 3 C 14 3.5580649 13.558065 4 13 4 C 12.441935 4 12 3.5580649 12 3 C 12 2.4419351 12.441935 2 13 2 z M 3 3 C 3.5580649 3 4 3.4419351 4 4 C 4 4.5580649 3.5580649 5 3 5 C 2.4419351 5 2 4.5580649 2 4 C 2 3.4419351 2.4419351 3 3 3 z M 8 6 C 9.1104918 6 10 6.8895082 10 8 C 10 9.1104918 9.1104918 10 8 10 C 6.8895082 10 6 9.1104918 6 8 C 6 6.8895082 6.8895082 6 8 6 z M 3 11 C 3.5580649 11 4 11.441935 4 12 C 4 12.558065 3.5580649 13 3 13 C 2.4419351 13 2 12.558065 2 12 C 2 11.441935 2.4419351 11 3 11 z M 13 12 C 13.558065 12 14 12.441935 14 13 C 14 13.558065 13.558065 14 13 14 C 12.441935 14 12 13.558065 12 13 C 12 12.441935 12.441935 12 13 12 z " />
</svg>
