<?xml version="1.0" encoding="UTF-8" standalone="no"?>
<svg
   width="16"
   height="16"
   viewBox="0 0 16 16"
   fill="currentColor"
   version="1.1"
   id="svg1"
   sodipodi:docname="database-connection.svg"
   inkscape:version="1.4.3 (0d15f75042, 2025-12-25)"
   xmlns:inkscape="http://www.inkscape.org/namespaces/inkscape"
   xmlns:sodipodi="http://sodipodi.sourceforge.net/DTD/sodipodi-0.dtd"
   xmlns="http://www.w3.org/2000/svg"
   xmlns:svg="http://www.w3.org/2000/svg">
  <defs
     id="defs1" />
  <sodipodi:namedview
     id="namedview1"
     pagecolor="#ffffff"
     bordercolor="#000000"
     borderopacity="0.25"
     inkscape:showpageshadow="2"
     inkscape:pageopacity="0.0"
     inkscape:pagecheckerboard="0"
     inkscape:deskcolor="#d1d1d1"
     inkscape:zoom="41.632258"
     inkscape:cx="8.5870913"
     inkscape:cy="7.0017821"
     inkscape:window-width="1920"
     inkscape:window-height="1152"
     inkscape:window-x="0"
     inkscape:window-y="0"
     inkscape:window-maximized="1"
     inkscape:current-layer="svg1"
     showgrid="true">
    <inkscape:grid
       id="grid1"
       units="px"
       originx="0"
       originy="0"
       spacingx="1"
       spacingy="1"
       empcolor="#0099e5"
       empopacity="0.30196078"
       color="#0099e5"
       opacity="0.14901961"
       empspacing="5"
       enabled="true"
       visible="true" />
  </sodipodi:namedview>
  <path
     id="path1"
     style="fill:#ffffff;stroke-width:1"
     d="M 8.1157154,1.7715725 C 5.6542555,1.7715725 3.6588603,2.7688242 3.6588603,4 c 0,0.03566 0.016806,0.069335 0.020373,0.1049963 H 3.6588603 V 12.01419 l 0.048581,0.318124 c 0.2197569,0.949664 1.6928438,1.715561 3.6059154,1.88523 V 13.322726 C 5.6368551,13.160626 4.6663238,12.515406 4.5771856,12.131724 L 4.5489776,12.01419 V 5.3289076 a 6.6096574,6.6096574 0 0 0 3.5667378,0.89952 6.6096574,6.6096574 0 0 0 3.5667376,-0.9042214 v 3.4899496 h 0.890118 V 4.1049963 h -0.02038 c 0.0036,-0.03566 0.02038,-0.069336 0.02038,-0.1049963 0,-1.2311758 -1.995396,-2.2284275 -4.4568556,-2.2284275 z m 0,0.9198924 c 2.1770676,0 3.5667396,0.8592139 3.5667376,1.3085351 0,0.4493212 -1.38967,1.3085353 -3.5667376,1.3085353 C 5.9386472,5.3085353 4.5489776,4.4457552 4.5489776,4 c 0,-0.4457552 1.3896696,-1.3085351 3.5667378,-1.3085351 z m 2.2487996,6.6664773 c -0.115998,6.302e-4 -0.228567,0.047742 -0.310287,0.1300701 L 7.921394,11.620847 a 0.12036594,0.12036594 0 0 0 0,0.169247 l 2.134401,2.134401 c 0.17022,0.170052 0.448788,0.170052 0.619007,0 0.170053,-0.17022 0.170053,-0.448788 0,-0.619007 L 9.5135757,12.144261 h 4.5226733 c 0.240708,-4.7e-5 0.438744,-0.198082 0.43879,-0.43879 -4.5e-5,-0.240709 -0.198082,-0.438744 -0.43879,-0.438791 H 9.5135757 l 1.1612263,-1.161227 a 0.12036594,0.12036594 0 0 0 0.0016,0 c 0.168644,-0.1699867 0.168644,-0.4474536 0,-0.6174407 C 10.594118,9.405155 10.4813,9.3579996 10.364553,9.3579422 Z" />
  <g
     id="path5"
     style="opacity:1;fill:#ffffff;fill-opacity:1;stroke-width:1.24632"
     transform="matrix(0.80235929,0,0,0.80235929,1.8025981,1.5786164)" />
</svg>
