<?xml version="1.0" encoding="UTF-8" standalone="no"?>
<svg
   width="16"
   height="16"
   viewBox="0 0 16 16"
   version="1.1"
   id="svg1"
   sodipodi:docname="test.svg"
   inkscape:version="1.3 (0e150ed6c4, 2023-07-21)"
   xmlns:inkscape="http://www.inkscape.org/namespaces/inkscape"
   xmlns:sodipodi="http://sodipodi.sourceforge.net/DTD/sodipodi-0.dtd"
   xmlns="http://www.w3.org/2000/svg"
   xmlns:svg="http://www.w3.org/2000/svg"
   xmlns:rdf="http://www.w3.org/1999/02/22-rdf-syntax-ns#"
   xmlns:cc="http://creativecommons.org/ns#"
   xmlns:dc="http://purl.org/dc/elements/1.1/">
  <sodipodi:namedview
     id="namedview1"
     pagecolor="#ffffff"
     bordercolor="#000000"
     borderopacity="0.25"
     inkscape:showpageshadow="2"
     inkscape:pageopacity="0.0"
     inkscape:pagecheckerboard="0"
     inkscape:deskcolor="#d1d1d1"
     inkscape:zoom="25.15625"
     inkscape:cx="15.980124"
     inkscape:cy="16"
     inkscape:window-width="1920"
     inkscape:window-height="1011"
     inkscape:window-x="0"
     inkscape:window-y="0"
     inkscape:window-maximized="1"
     inkscape:current-layer="svg1" />
  <!-- Generator: Sketch 40.3 (33839) - http://www.bohemiancoding.com/sketch -->
  <title
     id="title1">Slice</title>
  <desc
     id="desc1">Created with Sketch.</desc>
  <defs
     id="defs1" />
  <path
     d="m 8,2 c 0.55078,0 1.08203,0.07227 1.59375,0.2168 0.51175,0.14062 0.98825,0.34179 1.42965,0.60351 0.4454,0.26172 0.8496,0.57617 1.2129,0.94336 0.3672,0.36328 0.6817,0.76758 0.9434,1.21289 0.2617,0.44141 0.4629,0.91797 0.6035,1.42969 C 13.9277,6.91797 14,7.44922 14,8 14,8.55078 13.9277,9.08203 13.7832,9.59375 13.6426,10.1055 13.4414,10.584 13.1797,11.0293 12.918,11.4707 12.6035,11.875 12.2363,12.2422 11.873,12.6055 11.4688,12.918 11.0234,13.1797 10.582,13.4414 10.1055,13.6445 9.59375,13.7891 9.08203,13.9297 8.55078,14 8,14 7.44922,14 6.91797,13.9297 6.40625,13.7891 5.89453,13.6445 5.41602,13.4414 4.9707,13.1797 4.5293,12.918 4.125,12.6055 3.75781,12.2422 3.39453,11.875 3.08203,11.4707 2.82031,11.0293 2.55859,10.584 2.35547,10.1055 2.21094,9.59375 2.07031,9.08203 2,8.55078 2,8 2,7.44922 2.07031,6.91797 2.21094,6.40625 2.35547,5.89453 2.55859,5.41797 2.82031,4.97656 3.08203,4.53125 3.39453,4.12695 3.75781,3.76367 4.125,3.39648 4.5293,3.08203 4.9707,2.82031 5.41602,2.55859 5.89453,2.35742 6.40625,2.2168 6.91797,2.07227 7.44922,2 8,2 Z"
     fill="#c5c5c5"
     id="path1"
     style="fill:#000000" />
  <metadata
     id="metadata1">
    <rdf:RDF>
      <cc:Work
         rdf:about="">
        <dc:title>Slice</dc:title>
      </cc:Work>
    </rdf:RDF>
  </metadata>
</svg>
