<?xml version="1.0" encoding="UTF-8" standalone="no"?>
<svg
   width="16"
   height="16"
   viewBox="0 0 16 16"
   version="1.1"
   id="svg1"
   sodipodi:docname="2-rdf-class-eq.svg"
   inkscape:version="1.3 (0e150ed6c4, 2023-07-21)"
   xmlns:inkscape="http://www.inkscape.org/namespaces/inkscape"
   xmlns:sodipodi="http://sodipodi.sourceforge.net/DTD/sodipodi-0.dtd"
   xmlns="http://www.w3.org/2000/svg"
   xmlns:svg="http://www.w3.org/2000/svg"
   xmlns:rdf="http://www.w3.org/1999/02/22-rdf-syntax-ns#"
   xmlns:cc="http://creativecommons.org/ns#"
   xmlns:dc="http://purl.org/dc/elements/1.1/">
  <sodipodi:namedview
     id="namedview1"
     pagecolor="#ffffff"
     bordercolor="#000000"
     borderopacity="0.25"
     inkscape:showpageshadow="2"
     inkscape:pageopacity="0.0"
     inkscape:pagecheckerboard="0"
     inkscape:deskcolor="#d1d1d1"
     inkscape:zoom="35.57631"
     inkscape:cx="8.587175"
     inkscape:cy="9.6693558"
     inkscape:window-width="1920"
     inkscape:window-height="1010"
     inkscape:window-x="-6"
     inkscape:window-y="-6"
     inkscape:window-maximized="1"
     inkscape:current-layer="svg1" />
  <!-- Generator: Sketch 40.3 (33839) - http://www.bohemiancoding.com/sketch -->
  <title
     id="title1">Slice</title>
  <desc
     id="desc1">Created with Sketch.</desc>
  <defs
     id="defs1" />
  <metadata
     id="metadata1">
    <rdf:RDF>
      <cc:Work
         rdf:about="">
        <dc:title>Slice</dc:title>
      </cc:Work>
    </rdf:RDF>
  </metadata>
  <path
     id="path1"
     style="color:#000000;fill:#000000;stroke-width:0.833333;-inkscape-stroke:none"
     d="M 8 3 C 5.2435173 3 3 5.2435173 3 8 C 3 10.756505 5.24352 13 8 13 C 10.756502 13 13 10.756502 13 8 C 13 5.24352 10.756505 3 8 3 z M 8 4.5 C 9.9295542 4.5 11.5 6.0704638 11.5 8 C 11.5 9.9295512 9.9295512 11.5 8 11.5 C 6.0704638 11.5 4.5 9.9295542 4.5 8 C 4.5 6.0704621 6.0704621 4.5 8 4.5 z M 8 6 C 6.8974058 6 6 6.8974058 6 8 C 6 9.1026034 6.8974068 10 8 10 C 9.1026019 10 10 9.1026019 10 8 C 10 6.8974068 9.1026034 6 8 6 z " />
</svg>
