<?xml version="1.0" encoding="UTF-8" standalone="no"?>
<svg
   width="16"
   height="16"
   viewBox="0 0 16 16"
   version="1.1"
   id="svg1"
   sodipodi:docname="3-rdf-class-ref.svg"
   inkscape:version="1.3 (0e150ed6c4, 2023-07-21)"
   xmlns:inkscape="http://www.inkscape.org/namespaces/inkscape"
   xmlns:sodipodi="http://sodipodi.sourceforge.net/DTD/sodipodi-0.dtd"
   xmlns="http://www.w3.org/2000/svg"
   xmlns:svg="http://www.w3.org/2000/svg"
   xmlns:rdf="http://www.w3.org/1999/02/22-rdf-syntax-ns#"
   xmlns:cc="http://creativecommons.org/ns#"
   xmlns:dc="http://purl.org/dc/elements/1.1/">
  <sodipodi:namedview
     id="namedview1"
     pagecolor="#ffffff"
     bordercolor="#000000"
     borderopacity="0.25"
     inkscape:showpageshadow="2"
     inkscape:pageopacity="0.0"
     inkscape:pagecheckerboard="0"
     inkscape:deskcolor="#d1d1d1"
     inkscape:zoom="35.57631"
     inkscape:cx="8.6012293"
     inkscape:cy="2.9232936"
     inkscape:window-width="1920"
     inkscape:window-height="1010"
     inkscape:window-x="-6"
     inkscape:window-y="-6"
     inkscape:window-maximized="1"
     inkscape:current-layer="svg1"
     showguides="true">
    <sodipodi:guide
       position="7.9828403,11.024779"
       orientation="1,0"
       id="guide1"
       inkscape:locked="false" />
    <sodipodi:guide
       position="12.283455,8.0171597"
       orientation="0,-1"
       id="guide2"
       inkscape:locked="false" />
  </sodipodi:namedview>
  <!-- Generator: Sketch 40.3 (33839) - http://www.bohemiancoding.com/sketch -->
  <title
     id="title1">Slice</title>
  <desc
     id="desc1">Created with Sketch.</desc>
  <defs
     id="defs1" />
  <metadata
     id="metadata1">
    <rdf:RDF>
      <cc:Work
         rdf:about="">
        <dc:title>Slice</dc:title>
      </cc:Work>
    </rdf:RDF>
  </metadata>
  <path
     id="path1"
     style="color:#000000;fill:#000000;stroke-width:0.833333;-inkscape-stroke:none"
     d="M 8 3 C 7.5957151 3 7.2029279 3.0495633 6.8261719 3.140625 L 7.4023438 4.5527344 C 7.5968481 4.5190707 7.7960409 4.5 8 4.5 C 8.2154935 4.5 8.4260112 4.5211058 8.6308594 4.5585938 L 9.2207031 3.1523438 C 8.8297845 3.0538336 8.4210202 3 8 3 z M 5.4375 3.7089844 C 4.7436618 4.1251201 4.1572063 4.7051824 3.734375 5.3945312 L 5.1425781 5.984375 C 5.3804447 5.6481866 5.6749258 5.3555432 6.0136719 5.1210938 L 5.4375 3.7089844 z M 10.605469 3.734375 L 10.013672 5.140625 C 10.350487 5.3785428 10.642095 5.6745684 10.876953 6.0136719 L 12.291016 5.4355469 C 11.874945 4.7423427 11.294338 4.1569124 10.605469 3.734375 z M 3.1523438 6.7773438 C 3.0535349 7.1688155 3 7.5783246 3 8 C 3 8.4036295 3.0498508 8.7956776 3.140625 9.171875 L 4.5527344 8.5957031 C 4.5192832 8.401791 4.5 8.2033021 4.5 8 C 4.5 7.7838495 4.5208815 7.5726231 4.5585938 7.3671875 L 3.1523438 6.7773438 z M 12.859375 6.8261719 L 11.447266 7.4023438 C 11.480929 7.596848 11.5 7.7960411 11.5 8 C 11.5 8.2154932 11.478894 8.4260114 11.441406 8.6308594 L 12.847656 9.2207031 C 12.946166 8.8297848 13 8.4210197 13 8 C 13 7.5957155 12.950436 7.2029277 12.859375 6.8261719 z M 5.1210938 9.984375 L 3.7089844 10.560547 C 4.1251823 11.255019 4.7047027 11.842502 5.3945312 12.265625 L 5.9863281 10.857422 C 5.6491595 10.619092 5.3559977 10.324106 5.1210938 9.984375 z M 10.859375 10.013672 C 10.621458 10.350487 10.325431 10.642095 9.9863281 10.876953 L 10.564453 12.291016 C 11.257657 11.874944 11.84309 11.294338 12.265625 10.605469 L 10.859375 10.013672 z M 7.3671875 11.441406 L 6.7773438 12.847656 C 7.1688153 12.946464 7.578325 13 8 13 C 8.4042877 13 8.7970708 12.950436 9.1738281 12.859375 L 8.5976562 11.447266 C 8.4031511 11.480929 8.2039605 11.5 8 11.5 C 7.7838497 11.5 7.5726229 11.479118 7.3671875 11.441406 z " />
</svg>
