<?xml version="1.0" encoding="UTF-8" standalone="no"?>
<svg
   width="16"
   height="16"
   viewBox="0 0 16 16"
   version="1.1"
   id="svg1"
   sodipodi:docname="4-rdf-class-ref-eq.svg"
   inkscape:version="1.3 (0e150ed6c4, 2023-07-21)"
   xmlns:inkscape="http://www.inkscape.org/namespaces/inkscape"
   xmlns:sodipodi="http://sodipodi.sourceforge.net/DTD/sodipodi-0.dtd"
   xmlns="http://www.w3.org/2000/svg"
   xmlns:svg="http://www.w3.org/2000/svg"
   xmlns:rdf="http://www.w3.org/1999/02/22-rdf-syntax-ns#"
   xmlns:cc="http://creativecommons.org/ns#"
   xmlns:dc="http://purl.org/dc/elements/1.1/">
  <sodipodi:namedview
     id="namedview1"
     pagecolor="#ffffff"
     bordercolor="#000000"
     borderopacity="0.25"
     inkscape:showpageshadow="2"
     inkscape:pageopacity="0.0"
     inkscape:pagecheckerboard="0"
     inkscape:deskcolor="#d1d1d1"
     inkscape:zoom="25.15625"
     inkscape:cx="-7.1354037"
     inkscape:cy="9.3813665"
     inkscape:window-width="1920"
     inkscape:window-height="1010"
     inkscape:window-x="-6"
     inkscape:window-y="-6"
     inkscape:window-maximized="1"
     inkscape:current-layer="svg1" />
  <!-- Generator: Sketch 40.3 (33839) - http://www.bohemiancoding.com/sketch -->
  <title
     id="title1">Slice</title>
  <desc
     id="desc1">Created with Sketch.</desc>
  <defs
     id="defs1" />
  <metadata
     id="metadata1">
    <rdf:RDF>
      <cc:Work
         rdf:about="">
        <dc:title>Slice</dc:title>
      </cc:Work>
    </rdf:RDF>
  </metadata>
  <path
     id="path2"
     style="fill:#000000;stroke-width:1.5247;stroke-dasharray:1.54567, 1.54567"
     d="M 8 3 C 7.5957155 3 7.2029275 3.0495631 6.8261719 3.140625 L 7.4023438 4.5527344 C 7.5968479 4.5190707 7.7960411 4.5 8 4.5 C 8.2154933 4.5 8.4260114 4.5211058 8.6308594 4.5585938 L 9.2207031 3.1523438 C 8.8297849 3.0538334 8.4210198 3 8 3 z M 5.4375 3.7089844 C 4.7436627 4.1251197 4.1572056 4.7051831 3.734375 5.3945312 L 5.1425781 5.984375 C 5.3804449 5.6481869 5.6749263 5.3555429 6.0136719 5.1210938 L 5.4375 3.7089844 z M 10.605469 3.734375 L 10.013672 5.140625 C 10.350487 5.3785426 10.642095 5.6745687 10.876953 6.0136719 L 12.291016 5.4355469 C 11.874945 4.742343 11.294337 4.1569116 10.605469 3.734375 z M 8 6 A 2 2 0 0 0 6 8 A 2 2 0 0 0 8 10 A 2 2 0 0 0 10 8 A 2 2 0 0 0 8 6 z M 3.1523438 6.7773438 C 3.0535348 7.1688151 3 7.578325 3 8 C 3 8.4036286 3.0498501 8.7956784 3.140625 9.171875 L 4.5527344 8.5957031 C 4.5192834 8.4017913 4.5 8.2033018 4.5 8 C 4.5 7.7838497 4.5208838 7.5726229 4.5585938 7.3671875 L 3.1523438 6.7773438 z M 12.859375 6.8261719 L 11.447266 7.4023438 C 11.480929 7.5968479 11.5 7.7960413 11.5 8 C 11.5 8.2154928 11.478886 8.4260116 11.441406 8.6308594 L 12.847656 9.2207031 C 12.946162 8.8297855 13 8.4210196 13 8 C 13 7.5957159 12.950436 7.2029274 12.859375 6.8261719 z M 5.1210938 9.984375 L 3.7089844 10.560547 C 4.125182 11.255018 4.7047039 11.842502 5.3945312 12.265625 L 5.9863281 10.857422 C 5.6491595 10.619092 5.3559975 10.324106 5.1210938 9.984375 z M 10.859375 10.013672 C 10.621458 10.350487 10.325431 10.642095 9.9863281 10.876953 L 10.564453 12.291016 C 11.257656 11.874944 11.84309 11.294337 12.265625 10.605469 L 10.859375 10.013672 z M 7.3671875 11.441406 L 6.7773438 12.847656 C 7.1688149 12.946461 7.5783254 13 8 13 C 8.4042873 13 8.7970712 12.95044 9.1738281 12.859375 L 8.5976562 11.447266 C 8.4031513 11.480929 8.2039603 11.5 8 11.5 C 7.7838499 11.5 7.5726227 11.479117 7.3671875 11.441406 z " />
</svg>
