<?xml version="1.0" encoding="UTF-8" standalone="no"?>
<svg
   width="16"
   height="16"
   viewBox="0 0 16 16"
   version="1.1"
   id="svg1"
   sodipodi:docname="class-ref-eq.svg"
   inkscape:version="1.3 (0e150ed6c4, 2023-07-21)"
   xmlns:inkscape="http://www.inkscape.org/namespaces/inkscape"
   xmlns:sodipodi="http://sodipodi.sourceforge.net/DTD/sodipodi-0.dtd"
   xmlns="http://www.w3.org/2000/svg"
   xmlns:svg="http://www.w3.org/2000/svg"
   xmlns:rdf="http://www.w3.org/1999/02/22-rdf-syntax-ns#"
   xmlns:cc="http://creativecommons.org/ns#"
   xmlns:dc="http://purl.org/dc/elements/1.1/">
  <sodipodi:namedview
     id="namedview1"
     pagecolor="#ffffff"
     bordercolor="#000000"
     borderopacity="0.25"
     inkscape:showpageshadow="2"
     inkscape:pageopacity="0.0"
     inkscape:pagecheckerboard="0"
     inkscape:deskcolor="#d1d1d1"
     inkscape:zoom="50.3125"
     inkscape:cx="2.4049689"
     inkscape:cy="7.0062112"
     inkscape:window-width="1920"
     inkscape:window-height="1011"
     inkscape:window-x="0"
     inkscape:window-y="0"
     inkscape:window-maximized="1"
     inkscape:current-layer="svg1" />
  <!-- Generator: Sketch 40.3 (33839) - http://www.bohemiancoding.com/sketch -->
  <title
     id="title1">Slice</title>
  <desc
     id="desc1">Created with Sketch.</desc>
  <defs
     id="defs1" />
  <metadata
     id="metadata1">
    <rdf:RDF>
      <cc:Work
         rdf:about="">
        <dc:title>Slice</dc:title>
      </cc:Work>
    </rdf:RDF>
  </metadata>
  <path
     id="path1"
     style="color:#000000;fill:#000000;-inkscape-stroke:none"
     d="M 8 2 C 4.6922173 2 2 4.6922173 2 8 C 2 11.30781 4.6922206 14 8 14 C 11.307807 14 14 11.307807 14 8 C 14 4.6922206 11.30781 2 8 2 z M 8 3 C 10.767378 3 13 5.2326516 13 8 C 13 10.767381 10.767381 13 8 13 C 5.2326516 13 3 10.767378 3 8 C 3 5.2326549 5.2326549 3 8 3 z M 5.15625 5.4160156 L 5.15625 6.4160156 L 10.84375 6.4160156 L 10.84375 5.4160156 L 5.15625 5.4160156 z M 5.15625 7.5097656 L 5.15625 8.5097656 L 10.84375 8.5097656 L 10.84375 7.5097656 L 5.15625 7.5097656 z M 5.15625 9.5839844 L 5.15625 10.583984 L 10.84375 10.583984 L 10.84375 9.5839844 L 5.15625 9.5839844 z " />
</svg>
