<?xml version="1.0" encoding="UTF-8" standalone="no"?>
<svg
   width="16"
   height="16"
   viewBox="0 0 16 16"
   fill="currentColor"
   version="1.1"
   id="svg1"
   sodipodi:docname="database-dark.svg"
   inkscape:version="1.4.2 (ebf0e940d0, 2025-05-08)"
   xmlns:inkscape="http://www.inkscape.org/namespaces/inkscape"
   xmlns:sodipodi="http://sodipodi.sourceforge.net/DTD/sodipodi-0.dtd"
   xmlns="http://www.w3.org/2000/svg"
   xmlns:svg="http://www.w3.org/2000/svg">
  <defs
     id="defs1" />
  <sodipodi:namedview
     id="namedview1"
     pagecolor="#ffffff"
     bordercolor="#000000"
     borderopacity="0.25"
     inkscape:showpageshadow="2"
     inkscape:pageopacity="0.0"
     inkscape:pagecheckerboard="0"
     inkscape:deskcolor="#d1d1d1"
     inkscape:zoom="46.375"
     inkscape:cx="8"
     inkscape:cy="8"
     inkscape:window-width="1920"
     inkscape:window-height="979"
     inkscape:window-x="0"
     inkscape:window-y="0"
     inkscape:window-maximized="1"
     inkscape:current-layer="svg1" />
  <path
     d="M13 3.5C13 2.119 10.761 1 8 1S3 2.119 3 3.5c0 .04.02.077.024.117H3v8.872l.056.357C3.336 14.056 5.429 15 8 15c2.571 0 4.664-.944 4.944-2.154l.056-.357V3.617h-.024c.004-.04.024-.077.024-.117zM8 2.032c2.442 0 4 .964 4 1.468s-1.558 1.468-4 1.468S4 4 4 3.5s1.558-1.468 4-1.468zm4 10.458l-.03.131C11.855 13.116 10.431 14 8 14s-3.855-.884-3.97-1.379L4 12.49v-7.5A7.414 7.414 0 0 0 8 6a7.414 7.414 0 0 0 4-1.014v7.504z"
     id="path1" />
</svg>
