<?xml version="1.0" encoding="UTF-8" standalone="no"?>
<svg
   width="16"
   height="16"
   viewBox="0 0 16 16"
   fill="currentColor"
   version="1.1"
   id="svg1"
   sodipodi:docname="mentor-notebook.svg"
   inkscape:version="1.4.2 (ebf0e940d0, 2025-05-08)"
   xml:space="preserve"
   xmlns:inkscape="http://www.inkscape.org/namespaces/inkscape"
   xmlns:sodipodi="http://sodipodi.sourceforge.net/DTD/sodipodi-0.dtd"
   xmlns="http://www.w3.org/2000/svg"
   xmlns:svg="http://www.w3.org/2000/svg"><defs
     id="defs1" /><sodipodi:namedview
     id="namedview1"
     pagecolor="#181818"
     bordercolor="#000000"
     borderopacity="0.25"
     inkscape:showpageshadow="2"
     inkscape:pageopacity="0.0"
     inkscape:pagecheckerboard="0"
     inkscape:deskcolor="#d1d1d1"
     showguides="true"
     inkscape:zoom="16"
     inkscape:cx="-11.4375"
     inkscape:cy="15.40625"
     inkscape:window-width="1920"
     inkscape:window-height="1080"
     inkscape:window-x="0"
     inkscape:window-y="0"
     inkscape:window-maximized="1"
     inkscape:current-layer="svg1"
     showgrid="true"><inkscape:grid
       id="grid1"
       units="px"
       originx="0"
       originy="0"
       spacingx="1"
       spacingy="1"
       empcolor="#0099e5"
       empopacity="0.30196078"
       color="#0099e5"
       opacity="0.14901961"
       empspacing="5"
       enabled="true"
       visible="true" /><sodipodi:guide
       position="10,76"
       orientation="1,0"
       id="guide1"
       inkscape:locked="false" /></sodipodi:namedview><g
     id="path12"
     style="opacity:1" /><g
     id="g1"
     transform="translate(0,0.06348357)"><path
       id="path1"
       style="baseline-shift:baseline;display:inline;overflow:visible;vector-effect:none;fill:#cccccc;fill-opacity:1;stroke-width:1.03819;stroke-linecap:round;stroke-linejoin:round;paint-order:fill markers stroke;enable-background:accumulate;stop-color:#000000"
       d="M 10.010144,1.8047365 C 9.8737489,1.8049443 9.7389128,1.8396141 9.6187949,1.9040946 L 4.3812051,4.698287 c -0.5509463,0.2927428 -0.5509463,1.1712678 0,1.4640106 l 4.9881807,2.6623909 v 3.3051775 c 0,0.265979 -0.3623767,0.402546 -0.362961,0.6732 -1.45e-4,0.538212 0.4391483,0.979532 0.9773588,0.979388 0.5382114,1.45e-4 0.9775044,-0.441176 0.9773594,-0.979388 -4.92e-4,-0.272262 -0.169635,-0.492459 -0.364989,-0.675228 8.31e-4,-0.473771 0.0035,-1.434489 0.004,-2.2649592 2.61e-4,-0.3865125 4.22e-4,-0.7441464 0,-1.0118299 l 4.986159,-2.6887513 c 0.550945,-0.2927428 0.550945,-1.1712677 0,-1.4640106 L 10.407537,1.9061223 c -0.120046,-0.065667 -0.25452,-0.1003287 -0.391349,-0.1013856 -0.0021,-8.8e-6 -0.004,-8.8e-6 -0.0061,0 z m 0,1.5147038 3.917547,2.1128798 L 10.010144,7.5431722 6.0520429,5.4323201 Z M 5.6850263,7.35865 C 5.3365828,7.3572742 5.0489742,7.6445369 5.0503512,7.9933251 v 1.5937846 c 8.298e-4,0.2338455 0.1306423,0.4483763 0.3366009,0.5576213 l 2.6056148,1.425485 c 0.1119131,0.06045 0.2477528,-0.02083 0.2473813,-0.148024 V 10.36778 c -6.26e-5,-0.06204 -0.034383,-0.118988 -0.089219,-0.148023 L 6.3197013,9.2079268 V 7.9933251 7.9912974 C 6.3201588,7.6432607 6.032913,7.3572784 5.6850263,7.35865 Z m 8.6502347,0 c -0.347134,-4.506e-4 -0.633096,0.2855163 -0.632647,0.6326474 v 1.2166294 l -1.774849,1.0594022 c -0.05484,0.02904 -0.08916,0.08597 -0.08922,0.148023 v 1.05644 c -3.71e-4,0.127196 0.135468,0.208479 0.247381,0.148024 l 2.551467,-1.475085 c 0.0021,-6.53e-4 0.004,-0.0013 0.0061,-0.0021 0.203015,-0.112032 0.325374,-0.3274742 0.324392,-0.5575721 v -0.002 -1.5897292 -0.00203 c 4.48e-4,-0.3248052 -0.273121,-0.5627028 -0.59006,-0.5961549 l -0.01018,-0.010143 h -0.0021 c -0.0025,-2.771e-4 -0.0017,-8.137e-4 -0.0041,-0.00203 l -0.0021,-0.00203 -0.0021,-0.00203 c 0,-0.00258 -0.0033,-0.00908 -0.0061,-0.014191 l -0.0021,-0.00203 -0.0021,-0.00203 h -0.0021 v -0.00203 h -0.0021 -0.0021 c -0.0019,1.06e-5 -0.0036,-1.2e-5 -0.0055,-1.79e-5 z"
       sodipodi:nodetypes="cccccscccccccccccccccccccccccccccccccccccccccccsccccccccccccccc" /><circle
       style="fill:#cccccc;fill-opacity:1;stroke:none;stroke-width:0.342319"
       id="path5"
       cx="9.9805832"
       cy="12.820402"
       r="1.2479006" /><rect
       style="fill:#cccccc;fill-opacity:1;stroke:none;stroke-width:0.269084"
       id="rect1"
       width="1.3455076"
       height="5.0348172"
       x="9.3110304"
       y="7.7682486"
       rx="5.5000005"
       ry="0.67103845" /></g></svg>
