<?xml version="1.0" encoding="UTF-8" standalone="no"?>
<svg
   width="16"
   height="16"
   viewBox="0 0 16 16"
   fill="currentColor"
   version="1.1"
   id="svg1"
   sodipodi:docname="notebook.svg"
   inkscape:version="1.4.2 (ebf0e940d0, 2025-05-08)"
   xmlns:inkscape="http://www.inkscape.org/namespaces/inkscape"
   xmlns:sodipodi="http://sodipodi.sourceforge.net/DTD/sodipodi-0.dtd"
   xmlns="http://www.w3.org/2000/svg"
   xmlns:svg="http://www.w3.org/2000/svg">
  <defs
     id="defs1" />
  <sodipodi:namedview
     id="namedview1"
     pagecolor="#ffffff"
     bordercolor="#000000"
     borderopacity="0.25"
     inkscape:showpageshadow="2"
     inkscape:pageopacity="0.0"
     inkscape:pagecheckerboard="0"
     inkscape:deskcolor="#d1d1d1"
     inkscape:zoom="64"
     inkscape:cx="12.375"
     inkscape:cy="7.609375"
     inkscape:window-width="1920"
     inkscape:window-height="1051"
     inkscape:window-x="0"
     inkscape:window-y="0"
     inkscape:window-maximized="1"
     inkscape:current-layer="svg1"
     showgrid="true">
    <inkscape:grid
       id="grid1"
       units="px"
       originx="0"
       originy="0"
       spacingx="1"
       spacingy="1"
       empcolor="#0099e5"
       empopacity="0.30196078"
       color="#0099e5"
       opacity="0.14901961"
       empspacing="5"
       enabled="true"
       visible="true" />
  </sodipodi:namedview>
  <path
     d="M 7.2876015,5.746071 V 4.9947615 H 11.04415 V 5.746071 Z M 5.0336725,4.0556244 c 0,-0.7261408 0.5886511,-1.3147919 1.3147919,-1.3147919 h 5.6348226 c 0.726141,0 1.314792,0.5886511 1.314792,1.3147919 v 7.8887526 c 0,0.726141 -0.588651,1.314791 -1.314792,1.314791 H 6.3484644 c -0.7261408,0 -1.3147919,-0.58865 -1.3147919,-1.314791 z M 6.3484644,3.4921421 c -0.3112,0 -0.5634823,0.2522823 -0.5634823,0.5634823 v 7.8887526 c 0,0.311192 0.2522823,0.563482 0.5634823,0.563482 h 5.6348226 c 0.311193,0 0.563483,-0.25229 0.563483,-0.563482 V 4.0556244 c 0,-0.3112 -0.25229,-0.5634823 -0.563483,-0.5634823 z m 8.1704936,1.5026194 h -0.469569 v 1.5026193 h 0.469569 c 0.155595,0 0.281741,-0.1261374 0.281741,-0.2817411 V 5.2765025 c 0,-0.1556038 -0.126146,-0.281741 -0.281741,-0.281741 z m -0.469569,2.253929 h 0.469569 c 0.155595,0 0.281741,0.1261374 0.281741,0.2817412 v 0.9391371 c 0,0.1556037 -0.126146,0.2817411 -0.281741,0.2817411 h -0.469569 z m 0.469569,2.253929 h -0.469569 v 1.5026195 h 0.469569 c 0.155595,0 0.281741,-0.126145 0.281741,-0.281742 V 9.784361 c 0,-0.1555965 -0.126146,-0.2817414 -0.281741,-0.2817415 z"
     id="path1"
     style="fill:#9cdcfe;fill-opacity:1;stroke:#9cdcfe;stroke-width:0.433;stroke-dasharray:none;stroke-opacity:1"
     sodipodi:nodetypes="cccccsssssssssssssssssssccsssscssssccsccssss" />
  <path
     id="path2"
     style="fill:#569cd6;fill-opacity:1;stroke:#569cd6;stroke-width:0.433;stroke-dasharray:none;stroke-opacity:1"
     d="M 14.048828 4.9941406 L 14.048828 6.4980469 L 14.519531 6.4980469 C 14.675126 6.4980469 14.800781 6.3704474 14.800781 6.2148438 L 14.800781 5.2773438 C 14.800781 5.12174 14.675126 4.9941406 14.519531 4.9941406 L 14.048828 4.9941406 z M 14.048828 7.2480469 L 14.048828 8.7519531 L 14.519531 8.7519531 C 14.675126 8.7519531 14.800781 8.6243537 14.800781 8.46875 L 14.800781 7.53125 C 14.800781 7.3756462 14.675126 7.2480469 14.519531 7.2480469 L 14.048828 7.2480469 z M 14.048828 9.5019531 L 14.048828 11.005859 L 14.519531 11.005859 C 14.675126 11.005859 14.800781 10.878253 14.800781 10.722656 L 14.800781 9.7851562 C 14.800781 9.6295598 14.675126 9.5019532 14.519531 9.5019531 L 14.048828 9.5019531 z " />
</svg>
