<?xml version="1.0" encoding="UTF-8" standalone="no"?>
<svg
   width="16"
   height="16"
   viewBox="0 0 16 16"
   fill="currentColor"
   version="1.1"
   id="svg1"
   sodipodi:docname="notebook.svg"
   inkscape:version="1.4.2 (ebf0e940d0, 2025-05-08)"
   xmlns:inkscape="http://www.inkscape.org/namespaces/inkscape"
   xmlns:sodipodi="http://sodipodi.sourceforge.net/DTD/sodipodi-0.dtd"
   xmlns="http://www.w3.org/2000/svg"
   xmlns:svg="http://www.w3.org/2000/svg">
  <defs
     id="defs1" />
  <sodipodi:namedview
     id="namedview1"
     pagecolor="#ffffff"
     bordercolor="#000000"
     borderopacity="0.25"
     inkscape:showpageshadow="2"
     inkscape:pageopacity="0.0"
     inkscape:pagecheckerboard="0"
     inkscape:deskcolor="#d1d1d1"
     inkscape:zoom="50.875"
     inkscape:cx="8"
     inkscape:cy="8"
     inkscape:window-width="1920"
     inkscape:window-height="1051"
     inkscape:window-x="0"
     inkscape:window-y="0"
     inkscape:window-maximized="1"
     inkscape:current-layer="svg1" />
  <path
     d="m 6.5710812,3.4690642 c -0.3753518,0 -0.6796404,0.3042886 -0.6796404,0.6796404 v 1.3592807 c 0,0.3753518 0.3042886,0.6796404 0.6796404,0.6796404 h 4.9840298 c 0.375343,0 0.679641,-0.3042886 0.679641,-0.6796404 V 4.1487046 c 0,-0.3753518 -0.304298,-0.6796404 -0.679641,-0.6796404 z M 6.797628,5.2814385 V 4.3752514 h 4.530936 V 5.2814385 Z M 4.0790665,3.2425174 c 0,-0.8758299 0.7099976,-1.5858275 1.5858275,-1.5858275 h 6.796404 c 0.87583,0 1.585828,0.7099976 1.585828,1.5858275 v 9.5149656 c 0,0.87583 -0.709998,1.585827 -1.585828,1.585827 H 5.664894 c -0.8758299,0 -1.5858275,-0.709997 -1.5858275,-1.585827 z M 5.664894,2.562877 c -0.3753518,0 -0.6796404,0.3042886 -0.6796404,0.6796404 v 9.5149656 c 0,0.375342 0.3042886,0.67964 0.6796404,0.67964 h 6.796404 c 0.375343,0 0.679641,-0.304298 0.679641,-0.67964 V 3.2425174 c 0,-0.3753518 -0.304298,-0.6796404 -0.679641,-0.6796404 z m 9.854786,1.8123744 h -0.566367 v 1.8123743 h 0.566367 c 0.187671,0 0.33982,-0.1521398 0.33982,-0.3398202 v -1.132734 c 0,-0.1876804 -0.152149,-0.3398201 -0.33982,-0.3398201 z m -0.566367,2.7185615 h 0.566367 c 0.187671,0 0.33982,0.1521398 0.33982,0.3398202 v 1.132734 c 0,0.1876804 -0.152149,0.3398201 -0.33982,0.3398201 h -0.566367 z m 0.566367,2.7185615 h -0.566367 v 1.8123746 h 0.566367 c 0.187671,0 0.33982,-0.152149 0.33982,-0.339821 v -1.132733 c 0,-0.1876717 -0.152149,-0.3398206 -0.33982,-0.3398206 z"
     id="path1"
     style="fill:#dddddd;fill-opacity:1;stroke:#dddddd;stroke-width:0.281;stroke-dasharray:none;stroke-opacity:1" />
</svg>
