<?xml version="1.0" encoding="UTF-8" standalone="no"?>
<svg
   width="16"
   height="16"
   viewBox="0 0 16 16"
   version="1.1"
   id="svg1"
   sodipodi:docname="sparql-file-light.svg"
   inkscape:version="1.4.2 (ebf0e940d0, 2025-05-08)"
   xml:space="preserve"
   xmlns:inkscape="http://www.inkscape.org/namespaces/inkscape"
   xmlns:sodipodi="http://sodipodi.sourceforge.net/DTD/sodipodi-0.dtd"
   xmlns="http://www.w3.org/2000/svg"
   xmlns:svg="http://www.w3.org/2000/svg"
   xmlns:rdf="http://www.w3.org/1999/02/22-rdf-syntax-ns#"
   xmlns:cc="http://creativecommons.org/ns#"
   xmlns:dc="http://purl.org/dc/elements/1.1/"><sodipodi:namedview
     id="namedview1"
     pagecolor="#181818"
     bordercolor="#000000"
     borderopacity="0.25"
     inkscape:showpageshadow="2"
     inkscape:pageopacity="0.0"
     inkscape:pagecheckerboard="0"
     inkscape:deskcolor="#d1d1d1"
     inkscape:zoom="22.627417"
     inkscape:cx="1.1048543"
     inkscape:cy="3.5355339"
     inkscape:window-width="1920"
     inkscape:window-height="1051"
     inkscape:window-x="0"
     inkscape:window-y="0"
     inkscape:window-maximized="1"
     inkscape:current-layer="svg1"
     showgrid="false"><inkscape:grid
       id="grid2"
       units="px"
       originx="0"
       originy="0"
       spacingx="1"
       spacingy="1"
       empcolor="#0099e5"
       empopacity="0.30196078"
       color="#0099e5"
       opacity="0.14901961"
       empspacing="5"
       dotted="false"
       gridanglex="30"
       gridanglez="30"
       visible="false" /></sodipodi:namedview><!-- Generator: Sketch 40.3 (33839) - http://www.bohemiancoding.com/sketch --><title
     id="title1">Slice</title><desc
     id="desc1">Created with Sketch.</desc><g
     id="path4"
     style="opacity:1;fill:#569cd6;fill-opacity:1"><path
       id="path7"
       style="baseline-shift:baseline;display:inline;overflow:visible;vector-effect:none;fill:#569cd6;enable-background:accumulate;stop-color:#000000;stop-opacity:1;fill-opacity:1"
       d="m 11.476562,1.6953125 c -0.215315,-0.00863 -0.435391,0.015563 -0.654296,0.074219 -0.08572,0.02297 -0.169591,0.049827 -0.25,0.082031 -0.0796,0.032504 -0.157206,0.069678 -0.232422,0.1113281 -0.08765,0.048838 -0.171835,0.103655 -0.251953,0.1640625 C 9.6811403,2.4338451 9.3944296,2.8732376 9.2773438,3.3691406 L 9.2558594,3.390625 C 9.1765,3.7302423 9.1769859,4.0931628 9.2734375,4.453125 9.3177513,4.6154473 9.3886693,4.7682239 9.46875,4.9160156 L 7.6484375,6.9492188 C 7.1890867,6.7419136 6.6763163,6.6663781 6.1875,6.796875 c -0.054222,0.014529 -0.1060761,0.032504 -0.1582031,0.050781 -0.022914,0.00744 -0.045704,0.015249 -0.068359,0.023438 -0.064223,0.024917 -0.1268399,0.053622 -0.1875,0.083984 -0.065051,0.032561 -0.128751,0.067082 -0.1894531,0.1054688 -0.7891272,0.4990231 -1.1994863,1.471333 -0.9453125,2.4199219 0.084199,0.3142343 0.2325823,0.5948282 0.4277343,0.8300782 0.065151,0.07772 0.1356338,0.150817 0.2109376,0.21875 0.4015031,0.363109 0.9235001,0.564252 1.4648437,0.564453 C 7.1478556,11.09374 7.5455119,10.9808 7.890625,10.767578 8.4398808,10.401337 8.5250048,10.184211 8.6367188,9.9980469 8.7484328,9.8118831 8.914657,9.2904699 8.9277344,8.9082031 8.9428738,8.4656637 8.8091315,8.0715975 8.5976562,7.7578125 L 10.367188,5.7792969 C 10.795258,6.0067655 11.282138,6.0817076 11.759766,6 l 0.0078,0.025391 c 0.424799,-0.071727 0.818917,-0.2674267 1.132813,-0.5625 L 12.892578,5.4375 C 13.459383,4.8888113 13.707087,4.0853279 13.505859,3.3183594 13.251686,2.3697705 12.409596,1.7327131 11.476562,1.6953125 Z m -0.06055,1.2441406 c 0.407681,0.01072 0.775622,0.2865505 0.886718,0.7011719 0.135433,0.5054432 -0.164477,1.0227702 -0.669922,1.1582031 -0.505443,0.1354332 -1.020816,-0.1625256 -1.15625,-0.6679687 -0.135434,-0.5054433 0.162526,-1.0227701 0.667969,-1.1582032 0.06318,-0.016929 0.126671,-0.027423 0.189453,-0.03125 0.02747,-0.00167 0.05485,-0.00267 0.08203,-0.00195 z M 6.78125,7.9667969 C 7.1889314,7.9775169 7.5568713,8.2533474 7.6679688,8.6679688 7.8034017,9.1734117 7.5054431,9.6907388 7,9.8261719 6.4945568,9.961605 5.97723,9.6636463 5.8417969,9.1582031 5.7063638,8.6527599 6.0043224,8.135433 6.5097656,8 6.572946,7.9830709 6.636436,7.9725769 6.6992188,7.96875 c 0.027467,-0.00167 0.054852,-0.00267 0.082031,-0.00195 z"
       sodipodi:nodetypes="sscccccccccccssscccczscccccccsssssssssssssss" /></g><defs
     id="defs1" /><metadata
     id="metadata1"><rdf:RDF><cc:Work
         rdf:about=""><dc:title>Slice</dc:title></cc:Work></rdf:RDF></metadata><g
     id="text1"
     style="opacity:1;fill:#005fb8;fill-opacity:1"><path
       id="path10"
       style="font-weight:bold;font-size:9.81898px;font-family:Inter;-inkscape-font-specification:'Inter Bold';text-align:center;baseline-shift:baseline;text-anchor:middle;display:inline;overflow:visible;vector-effect:none;fill:#005fb8;enable-background:accumulate;stop-color:#000000;stop-opacity:1;fill-opacity:1"
       d="M 13.474609 7.0019531 C 12.822309 7.0019531 12.214723 7.1747391 11.763672 7.5410156 C 11.312621 7.9072922 11.027683 8.4697145 11.017578 9.1972656 L 11.015625 9.3496094 L 12.693359 9.3496094 L 12.699219 9.2050781 C 12.709739 8.9483556 12.804823 8.7702704 12.943359 8.6484375 C 13.081896 8.5266046 13.268695 8.4628906 13.46875 8.4628906 C 13.886649 8.4628906 14.191406 8.7117684 14.191406 9.1269531 C 14.191406 9.3239157 14.126176 9.4795639 14.005859 9.6289062 C 13.885541 9.7782488 13.707351 9.9158972 13.498047 10.050781 C 13.197892 10.236326 12.941769 10.42537 12.767578 10.734375 C 12.593139 11.043821 12.509766 11.45526 12.509766 12.080078 L 12.509766 12.345703 L 14.09375 12.345703 L 14.09375 12.080078 C 14.09375 11.752935 14.14993 11.553732 14.261719 11.390625 C 14.373506 11.227518 14.554408 11.091338 14.826172 10.929688 C 15.508612 10.521219 15.96875 9.9457183 15.96875 9.0800781 C 15.96875 8.4359013 15.703196 7.9022734 15.255859 7.5449219 C 14.808524 7.187571 14.188741 7.0019537 13.474609 7.0019531 z M 13.306641 12.707031 C 13.022076 12.707031 12.768729 12.802411 12.587891 12.974609 C 12.407052 13.146802 12.302734 13.393618 12.302734 13.671875 C 12.302734 14.224317 12.737512 14.632813 13.306641 14.632812 C 13.871607 14.632812 14.304688 14.224317 14.304688 13.671875 C 14.304688 13.115361 13.871607 12.707031 13.306641 12.707031 z " /></g></svg>
