<?xml version="1.0" encoding="UTF-8" standalone="no"?>
<svg
   width="16"
   height="16"
   viewBox="0 0 16 16"
   version="1.1"
   id="svg1"
   sodipodi:docname="sparql-light.svg"
   inkscape:version="1.3 (0e150ed6c4, 2023-07-21)"
   xml:space="preserve"
   xmlns:inkscape="http://www.inkscape.org/namespaces/inkscape"
   xmlns:sodipodi="http://sodipodi.sourceforge.net/DTD/sodipodi-0.dtd"
   xmlns="http://www.w3.org/2000/svg"
   xmlns:svg="http://www.w3.org/2000/svg"
   xmlns:rdf="http://www.w3.org/1999/02/22-rdf-syntax-ns#"
   xmlns:cc="http://creativecommons.org/ns#"
   xmlns:dc="http://purl.org/dc/elements/1.1/"><sodipodi:namedview
     id="namedview1"
     pagecolor="#ffffff"
     bordercolor="#000000"
     borderopacity="0.25"
     inkscape:showpageshadow="2"
     inkscape:pageopacity="0.0"
     inkscape:pagecheckerboard="0"
     inkscape:deskcolor="#d1d1d1"
     inkscape:zoom="50.3125"
     inkscape:cx="12.631056"
     inkscape:cy="7.3341615"
     inkscape:window-width="1920"
     inkscape:window-height="1010"
     inkscape:window-x="-6"
     inkscape:window-y="-6"
     inkscape:window-maximized="1"
     inkscape:current-layer="svg1"
     showgrid="true"><inkscape:grid
       id="grid2"
       units="px"
       originx="0"
       originy="0"
       spacingx="1"
       spacingy="1"
       empcolor="#0099e5"
       empopacity="0.30196078"
       color="#0099e5"
       opacity="0.14901961"
       empspacing="5"
       dotted="false"
       gridanglex="30"
       gridanglez="30"
       visible="true" /></sodipodi:namedview><!-- Generator: Sketch 40.3 (33839) - http://www.bohemiancoding.com/sketch --><title
     id="title1">Slice</title><desc
     id="desc1">Created with Sketch.</desc><defs
     id="defs1" /><metadata
     id="metadata1"><rdf:RDF><cc:Work
         rdf:about=""><dc:title>Slice</dc:title></cc:Work></rdf:RDF></metadata><path
     id="path4"
     style="fill:#000000;stroke:none;stroke-width:1.88598;stroke-dasharray:none;stroke-dashoffset:0;stroke-opacity:1"
     d="M 11.029288,1.5244031 A 2.3990632,2.3990632 0 0 0 8.6302247,3.9234664 2.3990632,2.3990632 0 0 0 8.71691,4.5513461 L 5.9968784,6.3319008 A 2.3990632,2.3990632 0 0 0 4.3990648,5.7204209 2.3990632,2.3990632 0 0 0 2.0000016,8.1194842 2.3990632,2.3990632 0 0 0 4.3990648,10.518548 2.3990632,2.3990632 0 0 0 6.1491623,9.7407259 L 9.2557624,11.58688 a 2.3990632,2.3990632 0 0 0 -0.05389,0.489653 2.3990632,2.3990632 0 0 0 2.3990626,2.399064 2.3990632,2.3990632 0 0 0 2.399063,-2.399064 2.3990632,2.3990632 0 0 0 -1.775869,-2.3123781 L 12.118706,6.0484178 A 2.3990632,2.3990632 0 0 0 13.428351,3.9234664 2.3990632,2.3990632 0 0 0 11.029288,1.5244031 Z m 0,1.1995316 A 1.1995316,1.1995316 0 0 1 12.228819,3.9234664 1.1995316,1.1995316 0 0 1 11.029288,5.122998 1.1995316,1.1995316 0 0 1 9.8297564,3.9234664 1.1995316,1.1995316 0 0 1 11.029288,2.7239347 Z M 9.3166754,5.5939078 a 2.3990632,2.3990632 0 0 0 1.6095276,0.7169076 l 0.0984,3.4439675 A 2.3990632,2.3990632 0 0 0 9.7993024,10.513862 L 6.7254997,8.6864504 A 2.3990632,2.3990632 0 0 0 6.7981275,8.1194842 2.3990632,2.3990632 0 0 0 6.6599002,7.3322916 Z M 4.3990644,6.9199526 A 1.1995316,1.1995316 0 0 1 5.598596,8.1194842 1.1995316,1.1995316 0 0 1 4.3990644,9.3190159 1.1995316,1.1995316 0 0 1 3.1995327,8.1194842 1.1995316,1.1995316 0 0 1 4.3990644,6.9199526 Z m 7.2018746,3.9570484 a 1.1995316,1.1995316 0 0 1 1.199532,1.199532 1.1995316,1.1995316 0 0 1 -1.199532,1.199532 1.1995316,1.1995316 0 0 1 -1.199532,-1.199532 1.1995316,1.1995316 0 0 1 1.199532,-1.199532 z" /><g
     id="path7"><path
       style="color:#000000;fill:#1a1a1a;-inkscape-stroke:none"
       d="M 5.9428571,5.9229814 9.0434782,3.8956522"
       id="path17" /></g><g
     id="path8"><path
       style="color:#000000;fill:#1a1a1a;-inkscape-stroke:none"
       d="M 10.891925,8.7254659 10.77267,4.5316771"
       id="path20" /></g><g
     id="path9"><path
       style="color:#000000;fill:#1a1a1a;-inkscape-stroke:none"
       d="M 9.560248,9.3614907 6.0819868,7.29441"
       id="path22" /></g></svg>
