<?xml version="1.0" encoding="UTF-8" standalone="no"?>
<svg
   width="16"
   height="16"
   viewBox="0 0 16 16"
   fill="currentColor"
   version="1.1"
   id="svg1"
   sodipodi:docname="database-connection.svg"
   inkscape:version="1.4.3 (0d15f75042, 2025-12-25)"
   xmlns:inkscape="http://www.inkscape.org/namespaces/inkscape"
   xmlns:sodipodi="http://sodipodi.sourceforge.net/DTD/sodipodi-0.dtd"
   xmlns="http://www.w3.org/2000/svg"
   xmlns:svg="http://www.w3.org/2000/svg">
  <defs
     id="defs1" />
  <sodipodi:namedview
     id="namedview1"
     pagecolor="#ffffff"
     bordercolor="#000000"
     borderopacity="0.25"
     inkscape:showpageshadow="2"
     inkscape:pageopacity="0.0"
     inkscape:pagecheckerboard="0"
     inkscape:deskcolor="#d1d1d1"
     inkscape:zoom="14.719226"
     inkscape:cx="9.7151848"
     inkscape:cy="15.591852"
     inkscape:window-width="1920"
     inkscape:window-height="1040"
     inkscape:window-x="0"
     inkscape:window-y="0"
     inkscape:window-maximized="1"
     inkscape:current-layer="svg1"
     showgrid="false">
    <inkscape:grid
       id="grid1"
       units="px"
       originx="0"
       originy="0"
       spacingx="1"
       spacingy="1"
       empcolor="#0099e5"
       empopacity="0.30196078"
       color="#0099e5"
       opacity="0.14901961"
       empspacing="5"
       enabled="true"
       visible="false" />
  </sodipodi:namedview>
  <g
     id="path5"
     style="opacity:1;fill:#000000;fill-opacity:1" />
  <path
     id="path1-2"
     style="stroke-width:1;fill:#000000"
     d="M 7.9999999,0.25 C 4.9453569,0.25 2.642578,1.4009488 2.642578,2.9277344 v 9.6445316 c 0,1.480054 2.1630162,2.606186 5.078125,2.673828 A 5.5,5.5 0 0 1 6.8007811,14.107422 C 4.8842278,13.875591 3.7148437,13.120379 3.7148437,12.572266 V 4.5585938 c 1.3007679,0.747557 2.7861742,1.1111431 4.2851562,1.0488281 1.498982,0.06231 2.9843341,-0.3012712 4.2851561,-1.0488281 v 1.2480468 a 5.5,5.5 0 0 1 1.072266,0.265625 V 2.9277344 C 13.357422,1.4009488 11.054642,0.25 7.9999999,0.25 Z m 0,1.0722656 c 2.6153581,0 4.2851561,0.9497546 4.2851561,1.6054688 0,0.6557148 -1.669798,1.6074219 -4.2851561,1.6074218 -2.615357,0 -4.2851562,-0.951707 -4.2851562,-1.6074218 0,-0.6557142 1.6687272,-1.6054688 4.2851562,-1.6054688 z M 11.5,6.75 A 4.5,4.5 0 0 0 6.9999999,11.25 4.5,4.5 0 0 0 11.5,15.75 4.5,4.5 0 0 0 16,11.25 4.5,4.5 0 0 0 11.5,6.75 Z M 8.9531249,10.5 a 0.75,0.75 0 0 1 0.75,0.75 0.75,0.75 0 0 1 -0.75,0.75 0.75,0.75 0 0 1 -0.75,-0.75 0.75,0.75 0 0 1 0.75,-0.75 z M 11.5,10.5 A 0.75,0.75 0 0 1 12.25,11.25 0.75,0.75 0 0 1 11.5,12 0.75,0.75 0 0 1 10.75,11.25 0.75,0.75 0 0 1 11.5,10.5 Z m 2.546875,0 a 0.75,0.75 0 0 1 0.75,0.75 0.75,0.75 0 0 1 -0.75,0.75 0.75,0.75 0 0 1 -0.75,-0.75 0.75,0.75 0 0 1 0.75,-0.75 z" />
</svg>
