<?xml version="1.0" encoding="UTF-8" standalone="no"?>
<svg
   width="16"
   height="16"
   viewBox="0 0 16 16"
   version="1.1"
   id="svg1"
   sodipodi:docname="datalog-file.svg"
   inkscape:version="1.4.3 (0d15f75042, 2025-12-25)"
   xml:space="preserve"
   xmlns:inkscape="http://www.inkscape.org/namespaces/inkscape"
   xmlns:sodipodi="http://sodipodi.sourceforge.net/DTD/sodipodi-0.dtd"
   xmlns="http://www.w3.org/2000/svg"
   xmlns:svg="http://www.w3.org/2000/svg"
   xmlns:rdf="http://www.w3.org/1999/02/22-rdf-syntax-ns#"
   xmlns:cc="http://creativecommons.org/ns#"
   xmlns:dc="http://purl.org/dc/elements/1.1/"><sodipodi:namedview
     id="namedview1"
     pagecolor="#ffffff"
     bordercolor="#000000"
     borderopacity="0.25"
     inkscape:showpageshadow="2"
     inkscape:pageopacity="0.0"
     inkscape:pagecheckerboard="0"
     inkscape:deskcolor="#d1d1d1"
     inkscape:zoom="16"
     inkscape:cx="-0.15625"
     inkscape:cy="8.28125"
     inkscape:window-width="1920"
     inkscape:window-height="1040"
     inkscape:window-x="0"
     inkscape:window-y="0"
     inkscape:window-maximized="1"
     inkscape:current-layer="svg1"
     showgrid="false"><inkscape:grid
       id="grid2"
       units="px"
       originx="0"
       originy="0"
       spacingx="1"
       spacingy="1"
       empcolor="#0099e5"
       empopacity="0.30196078"
       color="#0099e5"
       opacity="0.14901961"
       empspacing="5"
       dotted="false"
       gridanglex="30"
       gridanglez="30"
       visible="false" /></sodipodi:namedview><!-- Generator: Sketch 40.3 (33839) - http://www.bohemiancoding.com/sketch --><title
     id="title1">Slice</title><desc
     id="desc1">Created with Sketch.</desc><defs
     id="defs1" /><metadata
     id="metadata1"><rdf:RDF><cc:Work
         rdf:about=""><dc:title>Slice</dc:title></cc:Work></rdf:RDF></metadata><g
     id="text1"
     style="opacity:1;fill:#000000;fill-opacity:1" /><path
     id="circle1"
     style="stroke-width:1.0163;stroke-linejoin:round;fill:#005fb8;fill-opacity:1"
     d="M 2.5301165 7.441194 A 1.1804156 1.1804156 0 0 0 1.6945704 7.094546 A 1.1804156 1.1804156 0 0 0 0.51513834 8.273978 A 1.1804156 1.1804156 0 0 0 1.6959514 9.4547911 A 1.1804156 1.1804156 0 0 0 2.8753834 8.275359 A 1.1804156 1.1804156 0 0 0 2.5301165 7.441194 z M 0.91426697 11.167315 C 0.82770451 11.080753 0.66911252 11.100348 0.55795144 11.211509 L -0.10219903 11.87166 C -0.2133601 11.982821 -0.23295566 12.141413 -0.1463932 12.227975 L 3.3532329 15.727602 C 3.4397955 15.814164 3.5983874 15.794569 3.7095485 15.683407 L 4.3696989 15.023257 C 4.48086 14.912096 4.5004557 14.753504 4.4138931 14.666941 L 0.91426697 11.167315 z M -2.2041844 12.175495 A 1.1804156 1.1804156 0 0 0 -3.0397305 11.828847 A 1.1804156 1.1804156 0 0 0 -4.2191625 13.008279 A 1.1804156 1.1804156 0 0 0 -3.0383495 14.189092 A 1.1804156 1.1804156 0 0 0 -1.8589174 13.00966 A 1.1804156 1.1804156 0 0 0 -2.2041844 12.175495 z "
     transform="rotate(-45)" /></svg>
