<?xml version="1.0" encoding="UTF-8" standalone="no"?>
<svg
   width="16"
   height="16"
   viewBox="0 0 16 16"
   version="1.1"
   id="svg1"
   sodipodi:docname="rdf-file.svg"
   inkscape:version="1.4.2 (ebf0e940d0, 2025-05-08)"
   xml:space="preserve"
   xmlns:inkscape="http://www.inkscape.org/namespaces/inkscape"
   xmlns:sodipodi="http://sodipodi.sourceforge.net/DTD/sodipodi-0.dtd"
   xmlns="http://www.w3.org/2000/svg"
   xmlns:svg="http://www.w3.org/2000/svg"
   xmlns:rdf="http://www.w3.org/1999/02/22-rdf-syntax-ns#"
   xmlns:cc="http://creativecommons.org/ns#"
   xmlns:dc="http://purl.org/dc/elements/1.1/"><sodipodi:namedview
     id="namedview1"
     pagecolor="#181818"
     bordercolor="#000000"
     borderopacity="0.25"
     inkscape:showpageshadow="2"
     inkscape:pageopacity="0.0"
     inkscape:pagecheckerboard="0"
     inkscape:deskcolor="#d1d1d1"
     inkscape:zoom="22.627417"
     inkscape:cx="13.412932"
     inkscape:cy="6.363961"
     inkscape:window-width="1920"
     inkscape:window-height="1051"
     inkscape:window-x="0"
     inkscape:window-y="0"
     inkscape:window-maximized="1"
     inkscape:current-layer="svg1"
     showgrid="false"><inkscape:grid
       id="grid2"
       units="px"
       originx="0"
       originy="0"
       spacingx="1"
       spacingy="1"
       empcolor="#0099e5"
       empopacity="0.30196078"
       color="#0099e5"
       opacity="0.14901961"
       empspacing="5"
       dotted="false"
       gridanglex="30"
       gridanglez="30"
       visible="false" /></sodipodi:namedview><!-- Generator: Sketch 40.3 (33839) - http://www.bohemiancoding.com/sketch --><title
     id="title1">Slice</title><desc
     id="desc1">Created with Sketch.</desc><defs
     id="defs1" /><metadata
     id="metadata1"><rdf:RDF><cc:Work
         rdf:about=""><dc:title>Slice</dc:title></cc:Work></rdf:RDF></metadata><g
     id="path4-5"
     style="fill:#005fb8;fill-opacity:1;stroke:#005fb8;stroke-opacity:1;stroke-width:0.23695177;stroke-dasharray:none"
     transform="matrix(0.88203602,0,0,0.88203602,1.7432057,1.7696394)"><path
       id="path1"
       style="baseline-shift:baseline;display:inline;overflow:visible;fill:#005fb8;fill-opacity:1;stroke:#005fb8;stroke-width:0.23695177;stroke-dasharray:none;stroke-opacity:1;enable-background:accumulate;stop-color:#000000;stop-opacity:1"
       d="M 11.280815,1.018774 C 11.046546,1.009384 10.808259,1.034461 10.570084,1.098279 9.2998196,1.4386451 8.5432381,2.7480342 8.8836044,4.0182984 8.931819,4.1949093 9.0108983,4.3610319 9.0980286,4.5218331 L 7.1176192,6.7335306 C 6.6178335,6.5079773 6.0593547,6.4277172 5.5275098,6.5697012 4.2572459,6.9100675 3.5006639,8.2170469 3.8410302,9.4873111 4.1813963,10.757575 5.4907855,11.514157 6.7610493,11.173791 7.3639257,11.007305 7.8484195,10.58238 8.1608274,10.043849 l 3.1874466,0.896243 c 0.01138,0.135714 0.02585,0.270465 0.06023,0.402347 0.340366,1.270264 1.647345,2.026845 2.917609,1.68648 1.270264,-0.340366 2.029256,-1.647347 1.68889,-2.917611 C 15.743319,9.1046346 14.837577,8.420336 13.803306,8.3766437 L 12.822739,5.0904177 C 13.439436,4.49343 13.709045,3.6192409 13.490104,2.7847591 13.213556,1.7526695 12.295979,1.0594668 11.280815,1.018774 Z m -0.06505,1.3515929 c 0.443439,0.011725 0.842827,0.3126155 0.963703,0.7637344 0.147358,0.5499355 -0.175247,1.1126866 -0.725182,1.2600412 -0.549939,0.1473549 -1.11269,-0.1752509 -1.260045,-0.7251862 -0.147355,-0.5499356 0.175249,-1.1126866 0.725186,-1.2600413 0.06874,-0.018419 0.138886,-0.031975 0.207196,-0.036139 0.02989,-0.00182 0.05958,-0.00319 0.08914,-0.0024 z m -0.416801,2.7537803 c 0.06401,-0.00171 0.127969,0.00477 0.190332,0.019274 0.253895,0.060449 0.458217,0.2483519 0.539673,0.4963069 l 0.968522,2.9561578 c 0.186734,0.5664313 -0.329377,1.1141132 -0.905885,0.9612942 L 8.4788493,8.735623 C 7.9158669,8.5888829 7.7262159,7.8854257 8.139144,7.4755817 L 10.285792,5.3433896 C 10.42235,5.2071242 10.6061,5.1286209 10.798964,5.1241472 Z M 6.1731906,7.8417888 C 6.6167587,7.8534524 7.0160164,8.1544042 7.1368932,8.6055231 7.284248,9.1554583 6.9616424,9.7182091 6.411707,9.8655641 5.8617716,10.012919 5.2990208,9.6879041 5.1516659,9.1379688 5.0043111,8.5880334 5.3269166,8.0252822 5.8768521,7.8779276 c 0.068741,-0.018419 0.138887,-0.029566 0.2071961,-0.03373 0.029885,-0.00182 0.059572,-0.00319 0.089142,-0.0024 z m 7.5674764,1.8575373 c 0.443567,0.01166 0.842825,0.3102049 0.963701,0.7613239 0.147356,0.549937 -0.177658,1.112688 -0.727594,1.260042 -0.549935,0.147356 -1.110278,-0.177659 -1.257632,-0.727595 -0.147355,-0.549936 0.175249,-1.1102779 0.725185,-1.2576329 0.06874,-0.01842 0.138888,-0.02957 0.207197,-0.03373 0.02989,-0.0018 0.05957,-0.0032 0.08914,-0.0024 z"
       sodipodi:nodetypes="ssccccsccccsccccsssssssscccccccccssssssssssssss" /></g><g
     id="path4"
     style="opacity:1;stroke:#ffffff;stroke-opacity:1;stroke-width:0.01;stroke-dasharray:none" /></svg>
