<?xml version="1.0" encoding="UTF-8" standalone="no"?>
<svg
   width="16"
   height="16"
   viewBox="0 0 16 16"
   version="1.1"
   id="svg1"
   sodipodi:docname="11-rdf-class-tree-active.svg"
   inkscape:version="1.3 (0e150ed6c4, 2023-07-21)"
   xmlns:inkscape="http://www.inkscape.org/namespaces/inkscape"
   xmlns:sodipodi="http://sodipodi.sourceforge.net/DTD/sodipodi-0.dtd"
   xmlns="http://www.w3.org/2000/svg"
   xmlns:svg="http://www.w3.org/2000/svg"
   xmlns:rdf="http://www.w3.org/1999/02/22-rdf-syntax-ns#"
   xmlns:cc="http://creativecommons.org/ns#"
   xmlns:dc="http://purl.org/dc/elements/1.1/">
  <sodipodi:namedview
     id="namedview1"
     pagecolor="#ffffff"
     bordercolor="#000000"
     borderopacity="0.25"
     inkscape:showpageshadow="2"
     inkscape:pageopacity="0.0"
     inkscape:pagecheckerboard="0"
     inkscape:deskcolor="#d1d1d1"
     inkscape:zoom="32"
     inkscape:cx="4.546875"
     inkscape:cy="8.9375"
     inkscape:window-width="1920"
     inkscape:window-height="1010"
     inkscape:window-x="-6"
     inkscape:window-y="-6"
     inkscape:window-maximized="1"
     inkscape:current-layer="svg1"
     showgrid="true">
    <inkscape:grid
       id="grid1"
       units="px"
       originx="0"
       originy="0"
       spacingx="1"
       spacingy="1"
       empcolor="#0099e5"
       empopacity="0.30196078"
       color="#0099e5"
       opacity="0.14901961"
       empspacing="5"
       dotted="false"
       gridanglex="30"
       gridanglez="30"
       visible="true" />
  </sodipodi:namedview>
  <!-- Generator: Sketch 40.3 (33839) - http://www.bohemiancoding.com/sketch -->
  <title
     id="title1">Slice</title>
  <desc
     id="desc1">Created with Sketch.</desc>
  <defs
     id="defs1" />
  <path
     id="rect3"
     style="fill:#000000;stroke:none;stroke-width:1.5;stroke-linecap:round;stroke-dasharray:none;stroke-dashoffset:0"
     d="M 2.0039062 0 C 0.89423293 0 0 0.89423293 0 2.0039062 L 0 13.996094 C 0 15.105767 0.89423293 16 2.0039062 16 L 13.996094 16 C 15.105767 16 16 15.105767 16 13.996094 L 16 2.0039062 C 16 0.89423293 15.105767 0 13.996094 0 L 2.0039062 0 z M 8 3 C 10.752535 3 13 5.2474653 13 8 C 13 10.752535 10.752535 13 8 13 C 5.2474653 13 3 10.752535 3 8 C 3 5.2474653 5.2474653 3 8 3 z M 8 4.5 C 6.0581237 4.5 4.5 6.0581237 4.5 8 C 4.5 9.9418763 6.0581237 11.5 8 11.5 C 9.9418763 11.5 11.5 9.9418763 11.5 8 C 11.5 6.0581237 9.9418763 4.5 8 4.5 z " />
  <metadata
     id="metadata1">
    <rdf:RDF>
      <cc:Work
         rdf:about="">
        <dc:title>Slice</dc:title>
      </cc:Work>
    </rdf:RDF>
  </metadata>
</svg>
