<?xml version="1.0" encoding="UTF-8" standalone="no"?>
<svg
   width="16"
   height="16"
   viewBox="0 0 16 16"
   version="1.1"
   id="svg1"
   sodipodi:docname="13-rdf-property-tree-active.svg"
   inkscape:version="1.3 (0e150ed6c4, 2023-07-21)"
   xmlns:inkscape="http://www.inkscape.org/namespaces/inkscape"
   xmlns:sodipodi="http://sodipodi.sourceforge.net/DTD/sodipodi-0.dtd"
   xmlns="http://www.w3.org/2000/svg"
   xmlns:svg="http://www.w3.org/2000/svg"
   xmlns:rdf="http://www.w3.org/1999/02/22-rdf-syntax-ns#"
   xmlns:cc="http://creativecommons.org/ns#"
   xmlns:dc="http://purl.org/dc/elements/1.1/">
  <sodipodi:namedview
     id="namedview1"
     pagecolor="#ffffff"
     bordercolor="#000000"
     borderopacity="0.25"
     inkscape:showpageshadow="2"
     inkscape:pageopacity="0.0"
     inkscape:pagecheckerboard="0"
     inkscape:deskcolor="#d1d1d1"
     inkscape:zoom="35.57631"
     inkscape:cx="6.0855103"
     inkscape:cy="7.2239083"
     inkscape:window-width="1920"
     inkscape:window-height="1010"
     inkscape:window-x="-6"
     inkscape:window-y="-6"
     inkscape:window-maximized="1"
     inkscape:current-layer="svg1"
     showgrid="true">
    <inkscape:grid
       id="grid5"
       units="px"
       originx="0"
       originy="0"
       spacingx="1"
       spacingy="1"
       empcolor="#0099e5"
       empopacity="0.30196078"
       color="#0099e5"
       opacity="0.14901961"
       empspacing="5"
       dotted="false"
       gridanglex="30"
       gridanglez="30"
       visible="true" />
  </sodipodi:namedview>
  <!-- Generator: Sketch 40.3 (33839) - http://www.bohemiancoding.com/sketch -->
  <title
     id="title1">Slice</title>
  <desc
     id="desc1">Created with Sketch.</desc>
  <defs
     id="defs1" />
  <path
     id="rect3"
     style="fill:#000000;stroke:none;stroke-width:1.5;stroke-linecap:round;stroke-dasharray:none;stroke-dashoffset:0"
     d="M 2.0039062 0 C 0.89423668 0 2.9605918e-16 0.89423638 0 2.0039062 L 0 13.996094 C 0 15.105764 0.89423668 16 2.0039062 16 L 13.996094 16 C 15.105764 16 16 15.105764 16 13.996094 L 16 2.0039062 C 16 0.89423638 15.105764 8.8817753e-16 13.996094 0 L 2.0039062 0 z M 5 2 C 6.6479659 2 8 3.3520341 8 5 C 8 5.5639816 7.8427299 6.0925913 7.5683594 6.5449219 L 10.332031 9.2929688 C 10.681528 9.1060865 11.07907 9 11.5 9 C 12.871824 9 14 10.128176 14 11.5 C 14 12.871824 12.871824 14 11.5 14 C 10.128176 14 9 12.871824 9 11.5 C 9 11.089942 9.1013177 10.702268 9.2792969 10.359375 L 6.4960938 7.5957031 C 6.0545655 7.8523918 5.5440229 8 5 8 C 3.3520341 8 2 6.6479659 2 5 C 2 3.3520341 3.3520341 2 5 2 z M 5 3.5 C 4.1626918 3.5 3.5 4.1626918 3.5 5 C 3.5 5.8373082 4.1626918 6.5 5 6.5 C 5.8373082 6.5 6.5 5.8373082 6.5 5 C 6.5 4.1626918 5.8373082 3.5 5 3.5 z M 11.5 10.5 C 10.938835 10.5 10.5 10.938835 10.5 11.5 C 10.5 12.061165 10.938835 12.5 11.5 12.5 C 12.061165 12.5 12.5 12.061165 12.5 11.5 C 12.5 10.938835 12.061165 10.5 11.5 10.5 z " />
  <metadata
     id="metadata1">
    <rdf:RDF>
      <cc:Work
         rdf:about="">
        <dc:title>Slice</dc:title>
      </cc:Work>
    </rdf:RDF>
  </metadata>
  <g
     id="g6" />
  <g
     id="path2">
    <path
       style="color:#000000;fill:#000000;stroke-linecap:round;-inkscape-stroke:none"
       d="M 6.9962733,7.0360248 9.9975156,10.017392"
       id="path6" />
  </g>
</svg>
