<?xml version="1.0" encoding="UTF-8" standalone="no"?>
<svg
   width="16"
   height="16"
   viewBox="0 0 16 16"
   version="1.1"
   id="svg1"
   sodipodi:docname="14-rdf-individual-tree.svg"
   inkscape:version="1.3 (0e150ed6c4, 2023-07-21)"
   xmlns:inkscape="http://www.inkscape.org/namespaces/inkscape"
   xmlns:sodipodi="http://sodipodi.sourceforge.net/DTD/sodipodi-0.dtd"
   xmlns="http://www.w3.org/2000/svg"
   xmlns:svg="http://www.w3.org/2000/svg"
   xmlns:rdf="http://www.w3.org/1999/02/22-rdf-syntax-ns#"
   xmlns:cc="http://creativecommons.org/ns#"
   xmlns:dc="http://purl.org/dc/elements/1.1/">
  <sodipodi:namedview
     id="namedview1"
     pagecolor="#ffffff"
     bordercolor="#000000"
     borderopacity="0.25"
     inkscape:showpageshadow="2"
     inkscape:pageopacity="0.0"
     inkscape:pagecheckerboard="0"
     inkscape:deskcolor="#d1d1d1"
     inkscape:zoom="25.15625"
     inkscape:cx="4.9093168"
     inkscape:cy="11.806211"
     inkscape:window-width="1920"
     inkscape:window-height="1010"
     inkscape:window-x="-6"
     inkscape:window-y="-6"
     inkscape:window-maximized="1"
     inkscape:current-layer="svg1"
     showgrid="true">
    <inkscape:grid
       id="grid5"
       units="px"
       originx="0"
       originy="0"
       spacingx="1"
       spacingy="1"
       empcolor="#0099e5"
       empopacity="0.30196078"
       color="#0099e5"
       opacity="0.14901961"
       empspacing="5"
       dotted="false"
       gridanglex="30"
       gridanglez="30"
       visible="true" />
  </sodipodi:namedview>
  <!-- Generator: Sketch 40.3 (33839) - http://www.bohemiancoding.com/sketch -->
  <title
     id="title1">Slice</title>
  <desc
     id="desc1">Created with Sketch.</desc>
  <defs
     id="defs1" />
  <metadata
     id="metadata1">
    <rdf:RDF>
      <cc:Work
         rdf:about="">
        <dc:title>Slice</dc:title>
      </cc:Work>
    </rdf:RDF>
  </metadata>
  <g
     id="path7">
    <path
       id="path10"
       style="color:#000000;fill:#000000;stroke-linecap:round;-inkscape-stroke:none"
       d="M 4.5 2 C 3.1281744 2 2 3.1281744 2 4.5 C 2 5.8718256 3.1281744 7 4.5 7 C 5.8718256 7 7 5.8718256 7 4.5 C 7 3.1281744 5.8718256 2 4.5 2 z M 11.5 2 C 10.128174 2 9 3.1281744 9 4.5 C 9 5.8718256 10.128174 7 11.5 7 C 12.871826 7 14 5.8718256 14 4.5 C 14 3.1281744 12.871826 2 11.5 2 z M 4.5 9 C 3.1281744 9 2 10.128174 2 11.5 C 2 12.871826 3.1281744 14 4.5 14 C 5.8718256 14 7 12.871826 7 11.5 C 7 10.128174 5.8718256 9 4.5 9 z M 11.5 9 C 10.128174 9 9 10.128174 9 11.5 C 9 12.871826 10.128174 14 11.5 14 C 12.871826 14 14 12.871826 14 11.5 C 14 10.128174 12.871826 9 11.5 9 z " />
  </g>
  <g
     id="circle7" />
  <g
     id="circle8" />
  <g
     id="circle9" />
</svg>
