<?xml version="1.0" encoding="UTF-8" standalone="no"?>
<svg
   width="16"
   height="16"
   viewBox="0 0 16 16"
   version="1.1"
   id="svg1"
   sodipodi:docname="ue010-ontology.svg"
   inkscape:version="1.4.2 (ebf0e940d0, 2025-05-08)"
   xml:space="preserve"
   xmlns:inkscape="http://www.inkscape.org/namespaces/inkscape"
   xmlns:sodipodi="http://sodipodi.sourceforge.net/DTD/sodipodi-0.dtd"
   xmlns="http://www.w3.org/2000/svg"
   xmlns:svg="http://www.w3.org/2000/svg"
   xmlns:rdf="http://www.w3.org/1999/02/22-rdf-syntax-ns#"
   xmlns:cc="http://creativecommons.org/ns#"
   xmlns:dc="http://purl.org/dc/elements/1.1/"><sodipodi:namedview
     id="namedview1"
     pagecolor="#ffffff"
     bordercolor="#000000"
     borderopacity="0.25"
     inkscape:showpageshadow="2"
     inkscape:pageopacity="0.0"
     inkscape:pagecheckerboard="false"
     inkscape:deskcolor="#d1d1d1"
     inkscape:zoom="22.627417"
     inkscape:cx="5.0381358"
     inkscape:cy="15.733126"
     inkscape:window-width="1920"
     inkscape:window-height="1051"
     inkscape:window-x="0"
     inkscape:window-y="0"
     inkscape:window-maximized="1"
     inkscape:current-layer="svg1"
     showgrid="true"
     showborder="false"><inkscape:grid
       id="grid2"
       units="px"
       originx="0"
       originy="0"
       spacingx="1"
       spacingy="1"
       empcolor="#0099e5"
       empopacity="0.30196078"
       color="#0099e5"
       opacity="0.14901961"
       empspacing="5"
       dotted="false"
       gridanglex="30"
       gridanglez="30"
       visible="true" /></sodipodi:namedview><!-- Generator: Sketch 40.3 (33839) - http://www.bohemiancoding.com/sketch --><title
     id="title1">Slice</title><desc
     id="desc1">Created with Sketch.</desc><defs
     id="defs1" /><path
     id="circle13"
     style="baseline-shift:baseline;display:inline;overflow:visible;opacity:1;vector-effect:none;fill:#000000;stroke-width:0.946696;stroke-linecap:round;stroke-linejoin:round;enable-background:accumulate;stop-color:#000000;stop-opacity:1"
     d="m 8.014086,0.89047113 c -2.0824928,0 -3.7867862,1.70429357 -3.7867862,3.78678637 0,1.2008595 0.5667818,2.2763009 1.4459312,2.9713699 L 4.1607351,9.405193 C 4.0467461,9.3876044 3.9298942,9.3793075 3.811271,9.3793075 2.5432303,9.3793075 1.5,10.422538 1.5,11.690578 1.5,12.958618 2.5432303,14 3.811271,14 c 1.2680406,0 2.309422,-1.041382 2.309422,-2.309422 0,-0.6757 -0.2955182,-1.287993 -0.763644,-1.7121895 L 6.8399604,8.2754441 c 0.3702233,0.1217563 0.7645569,0.1885998 1.1741256,0.1885998 0.4146863,0 0.8146958,-0.067609 1.1889179,-0.1922978 l 1.5291371,1.7565659 c -0.43744,0.421562 -0.711872,1.012747 -0.711872,1.662266 0,1.26804 1.043231,2.309422 2.311271,2.309422 1.26804,0 2.309422,-1.041382 2.309422,-2.309422 0,-1.26804 -1.041382,-2.3112705 -2.309422,-2.3112705 -0.144047,0 -0.28453,0.013105 -0.421576,0.038829 l -1.54208,-1.7806026 c 0.871582,-0.6953708 1.432989,-1.7654669 1.432989,-2.9602759 0,-2.0824929 -1.704294,-3.78678637 -3.786787,-3.78678687 z m 0,1.50140157 c 1.2709921,0 2.285385,1.0143926 2.285384,2.2853848 0,1.2709921 -1.0143919,2.2853847 -2.285384,2.2853847 -1.270992,0 -2.2853846,-1.0143927 -2.2853846,-2.2853847 0,-1.2709922 1.0143926,-2.2853847 2.2853846,-2.2853848 z M 3.811271,10.705052 c 0.5517548,0 0.9836769,0.433771 0.9836769,0.985526 0,0.551755 -0.4319221,0.983677 -0.9836769,0.983677 -0.5517548,0 -0.985526,-0.431922 -0.985526,-0.983677 0,-0.551755 0.4337712,-0.985526 0.985526,-0.985526 z m 8.520269,0 c 0.551755,0 0.983677,0.433771 0.983677,0.985526 0,0.551755 -0.431922,0.983677 -0.983677,0.983677 -0.551754,0 -0.985525,-0.431922 -0.985525,-0.983677 0,-0.551755 0.433771,-0.985526 0.985525,-0.985526 z"
     sodipodi:nodetypes="ssccssssccsccssssccsssssssssssssssss" /><metadata
     id="metadata1"><rdf:RDF><cc:Work
         rdf:about=""><dc:title>Slice</dc:title></cc:Work></rdf:RDF></metadata><g
     id="path4"
     style="opacity:1;stroke:#ffffff;stroke-opacity:1;stroke-width:0.01;stroke-dasharray:none" /></svg>
