<?xml version="1.0" encoding="UTF-8" standalone="no"?>
<svg
   width="16"
   height="16"
   viewBox="0 0 16 16"
   version="1.1"
   id="svg1"
   sodipodi:docname="ue005-rdf-concept-scheme.svg"
   inkscape:version="1.4.2 (ebf0e940d0, 2025-05-08)"
   xml:space="preserve"
   xmlns:inkscape="http://www.inkscape.org/namespaces/inkscape"
   xmlns:sodipodi="http://sodipodi.sourceforge.net/DTD/sodipodi-0.dtd"
   xmlns="http://www.w3.org/2000/svg"
   xmlns:svg="http://www.w3.org/2000/svg"
   xmlns:rdf="http://www.w3.org/1999/02/22-rdf-syntax-ns#"
   xmlns:cc="http://creativecommons.org/ns#"
   xmlns:dc="http://purl.org/dc/elements/1.1/"><sodipodi:namedview
     id="namedview1"
     pagecolor="#ffffff"
     bordercolor="#000000"
     borderopacity="0.25"
     inkscape:showpageshadow="2"
     inkscape:pageopacity="0.0"
     inkscape:pagecheckerboard="false"
     inkscape:deskcolor="#d1d1d1"
     inkscape:zoom="16"
     inkscape:cx="-22.84375"
     inkscape:cy="17.34375"
     inkscape:window-width="1920"
     inkscape:window-height="1080"
     inkscape:window-x="0"
     inkscape:window-y="0"
     inkscape:window-maximized="1"
     inkscape:current-layer="svg1"
     showgrid="true"
     showborder="false"><inkscape:grid
       id="grid2"
       units="px"
       originx="0"
       originy="0"
       spacingx="1"
       spacingy="1"
       empcolor="#0099e5"
       empopacity="0.30196078"
       color="#0099e5"
       opacity="0.14901961"
       empspacing="5"
       dotted="false"
       gridanglex="30"
       gridanglez="30"
       visible="true" /></sodipodi:namedview><!-- Generator: Sketch 40.3 (33839) - http://www.bohemiancoding.com/sketch --><title
     id="title1">Slice</title><desc
     id="desc1">Created with Sketch.</desc><defs
     id="defs1" /><metadata
     id="metadata1"><rdf:RDF><cc:Work
         rdf:about=""><dc:title>Slice</dc:title></cc:Work></rdf:RDF></metadata><g
     id="path4"
     style="opacity:1;stroke:#ffffff;stroke-opacity:1;stroke-width:0.01;stroke-dasharray:none" /><path
     id="rect1"
     style="baseline-shift:baseline;display:inline;overflow:visible;vector-effect:none;fill:#000000;stroke-linecap:round;stroke-linejoin:round;enable-background:accumulate;stop-color:#000000;stop-opacity:1;opacity:1"
     d="M 2.6445312 0.9453125 A 0.70006999 0.70006999 0 0 0 1.9453125 1.6445312 L 1.9453125 7.3359375 A 0.70006999 0.70006999 0 0 0 2.6445312 8.0351562 L 7.0820312 8.0351562 L 9 10.691406 L 9 14.40625 A 0.59299927 0.59299927 0 0 0 9.59375 15 L 13.40625 15 A 0.59299927 0.59299927 0 0 0 14 14.40625 L 14 10.59375 A 0.59299927 0.59299927 0 0 0 13.40625 10 L 10.052734 10 L 8.5957031 7.984375 A 0.70006999 0.70006999 0 0 0 9.0351562 7.3359375 L 9.0351562 1.6445312 A 0.70006999 0.70006999 0 0 0 8.3359375 0.9453125 L 2.6445312 0.9453125 z M 3.3457031 2.3457031 L 7.6347656 2.3457031 L 7.6347656 6.6347656 L 3.3457031 6.6347656 L 3.3457031 2.3457031 z M 10.185547 11.185547 L 12.814453 11.185547 L 12.814453 13.814453 L 10.185547 13.814453 L 10.185547 11.185547 z " /></svg>
