<?xml version="1.0" encoding="UTF-8" standalone="no"?>
<svg
   width="16"
   height="16"
   viewBox="0 0 16 16"
   version="1.1"
   id="svg1"
   sodipodi:docname="ue006-rdf-ontology.svg"
   inkscape:version="1.4.2 (ebf0e940d0, 2025-05-08)"
   xml:space="preserve"
   xmlns:inkscape="http://www.inkscape.org/namespaces/inkscape"
   xmlns:sodipodi="http://sodipodi.sourceforge.net/DTD/sodipodi-0.dtd"
   xmlns="http://www.w3.org/2000/svg"
   xmlns:svg="http://www.w3.org/2000/svg"
   xmlns:rdf="http://www.w3.org/1999/02/22-rdf-syntax-ns#"
   xmlns:cc="http://creativecommons.org/ns#"
   xmlns:dc="http://purl.org/dc/elements/1.1/"><sodipodi:namedview
     id="namedview1"
     pagecolor="#ffffff"
     bordercolor="#000000"
     borderopacity="0.25"
     inkscape:showpageshadow="2"
     inkscape:pageopacity="0.0"
     inkscape:pagecheckerboard="false"
     inkscape:deskcolor="#d1d1d1"
     inkscape:zoom="15.999999"
     inkscape:cx="5.1250002"
     inkscape:cy="8.7500004"
     inkscape:window-width="1920"
     inkscape:window-height="1051"
     inkscape:window-x="0"
     inkscape:window-y="0"
     inkscape:window-maximized="1"
     inkscape:current-layer="svg1"
     showgrid="true"
     showborder="false"><inkscape:grid
       id="grid2"
       units="px"
       originx="0"
       originy="0"
       spacingx="1"
       spacingy="1"
       empcolor="#0099e5"
       empopacity="0.30196078"
       color="#0099e5"
       opacity="0.14901961"
       empspacing="5"
       dotted="false"
       gridanglex="30"
       gridanglez="30"
       visible="true" /></sodipodi:namedview><!-- Generator: Sketch 40.3 (33839) - http://www.bohemiancoding.com/sketch --><title
     id="title1">Slice</title><desc
     id="desc1">Created with Sketch.</desc><defs
     id="defs1" /><metadata
     id="metadata1"><rdf:RDF><cc:Work
         rdf:about=""><dc:title>Slice</dc:title></cc:Work></rdf:RDF></metadata><g
     id="path4"
     style="opacity:1;stroke:#ffffff;stroke-opacity:1;stroke-width:0.01;stroke-dasharray:none" /><path
     id="path1"
     style="baseline-shift:baseline;display:inline;overflow:visible;vector-effect:none;fill:#000000;enable-background:accumulate;stop-color:#000000;stop-opacity:1;opacity:1"
     d="M 6 1.0839844 C 3.8459101 1.0839844 2.0839844 2.8459101 2.0839844 5 C 2.0839844 7.1540899 3.8459101 8.9160156 6 8.9160156 C 6.6379292 8.9160156 7.241827 8.7617585 7.7753906 8.4882812 L 9.5976562 10.884766 C 9.2259072 11.321478 9 11.885694 9 12.5 C 9 13.873904 10.126096 15 11.5 15 C 12.873904 15 14 13.873904 14 12.5 C 14 11.126096 12.873904 10 11.5 10 C 11.245762 10 10.99928 10.039772 10.767578 10.111328 L 10.765625 10.111328 L 8.8867188 7.6386719 C 9.5249402 6.941296 9.9160156 6.0142267 9.9160156 5 C 9.9160156 2.8459101 8.1540899 1.0839844 6 1.0839844 z M 6 2.484375 C 7.3974738 2.484375 8.515625 3.6025262 8.515625 5 C 8.515625 6.3974738 7.3974738 7.515625 6 7.515625 C 4.6025262 7.515625 3.484375 6.3974738 3.484375 5 C 3.484375 3.6025262 4.6025262 2.484375 6 2.484375 z M 11.5 11.150391 C 12.252609 11.150391 12.849609 11.747391 12.849609 12.5 C 12.849609 13.252609 12.252609 13.849609 11.5 13.849609 C 10.747391 13.849609 10.150391 13.252609 10.150391 12.5 C 10.150391 11.747391 10.747391 11.150391 11.5 11.150391 z " /></svg>
