<?xml version="1.0" encoding="UTF-8" standalone="no"?>
<svg
   width="16"
   height="16"
   viewBox="0 0 16 16"
   version="1.1"
   id="svg1"
   sodipodi:docname="ue006-rdf-ontology.svg"
   inkscape:version="1.4.2 (ebf0e940d0, 2025-05-08)"
   xml:space="preserve"
   xmlns:inkscape="http://www.inkscape.org/namespaces/inkscape"
   xmlns:sodipodi="http://sodipodi.sourceforge.net/DTD/sodipodi-0.dtd"
   xmlns="http://www.w3.org/2000/svg"
   xmlns:svg="http://www.w3.org/2000/svg"
   xmlns:rdf="http://www.w3.org/1999/02/22-rdf-syntax-ns#"
   xmlns:cc="http://creativecommons.org/ns#"
   xmlns:dc="http://purl.org/dc/elements/1.1/"><sodipodi:namedview
     id="namedview1"
     pagecolor="#ffffff"
     bordercolor="#000000"
     borderopacity="0.25"
     inkscape:showpageshadow="2"
     inkscape:pageopacity="0.0"
     inkscape:pagecheckerboard="false"
     inkscape:deskcolor="#d1d1d1"
     inkscape:zoom="45.254834"
     inkscape:cx="5.3916892"
     inkscape:cy="7.8665629"
     inkscape:window-width="1920"
     inkscape:window-height="1051"
     inkscape:window-x="0"
     inkscape:window-y="0"
     inkscape:window-maximized="1"
     inkscape:current-layer="svg1"
     showgrid="true"
     showborder="false"><inkscape:grid
       id="grid2"
       units="px"
       originx="0"
       originy="0"
       spacingx="1"
       spacingy="1"
       empcolor="#0099e5"
       empopacity="0.30196078"
       color="#0099e5"
       opacity="0.14901961"
       empspacing="5"
       dotted="false"
       gridanglex="30"
       gridanglez="30"
       visible="true" /></sodipodi:namedview><!-- Generator: Sketch 40.3 (33839) - http://www.bohemiancoding.com/sketch --><title
     id="title1">Slice</title><desc
     id="desc1">Created with Sketch.</desc><defs
     id="defs1" /><metadata
     id="metadata1"><rdf:RDF><cc:Work
         rdf:about=""><dc:title>Slice</dc:title></cc:Work></rdf:RDF></metadata><g
     id="path4"
     style="opacity:1;stroke:#ffffff;stroke-opacity:1;stroke-width:0.01;stroke-dasharray:none" /><path
     id="path1"
     style="baseline-shift:baseline;display:inline;overflow:visible;opacity:1;vector-effect:none;fill:#000000;enable-background:accumulate;stop-color:#000000;stop-opacity:1"
     d="m -18.625002,1.0839844 c -2.154089,0 -3.916015,1.7619257 -3.916015,3.9160156 0,2.1540899 1.761926,3.9160156 3.916015,3.9160156 0.63793,0 1.241827,-0.1542571 1.775391,-0.4277344 l 1.822266,2.3964848 c -0.371749,0.436712 -0.597657,1.000928 -0.597657,1.615234 0,1.373904 1.126096,2.5 2.5,2.5 1.373904,0 2.5,-1.126096 2.5,-2.5 0,-1.373904 -1.126096,-2.5 -2.5,-2.5 -0.254238,0 -0.50072,0.03977 -0.732422,0.111328 h -0.002 L -15.738283,7.6386719 C -15.100061,6.941296 -14.708986,6.0142267 -14.708986,5 c 0,-2.1540899 -1.761926,-3.9160156 -3.916016,-3.9160156 z m 0,1.4003906 c 1.397474,0 2.515625,1.1181512 2.515625,2.515625 0,1.3974738 -1.118151,2.515625 -2.515625,2.515625 -1.397473,0 -2.515625,-1.1181512 -2.515625,-2.515625 0,-1.3974738 1.118152,-2.515625 2.515625,-2.515625 z m 5.5,8.666016 c 0.752609,0 1.349609,0.597 1.349609,1.349609 0,0.752609 -0.597,1.349609 -1.349609,1.349609 -0.752609,0 -1.349609,-0.597 -1.349609,-1.349609 0,-0.752609 0.597,-1.349609 1.349609,-1.349609 z" /><g
     id="rect2"
     transform="translate(20,2.9999999)" /><path
     id="path8"
     style="baseline-shift:baseline;display:inline;overflow:visible;vector-effect:none;fill:#000000;stroke-linejoin:round;enable-background:accumulate;stop-color:#000000"
     d="M 6.5019531 1.9101562 C 3.9790898 1.9101562 1.9179686 3.9712773 1.9179688 6.4941406 C 1.9179688 8.8349179 3.693638 10.774652 5.9648438 11.042969 C 6.141518 11.063841 6.319867 11.078125 6.5019531 11.078125 C 6.6840354 11.07812 6.8623922 11.063844 7.0390625 11.042969 C 9.3102185 10.774605 11.085937 8.8348822 11.085938 6.4941406 C 11.085938 3.9712773 9.0248165 1.9101562 6.5019531 1.9101562 z M 11.449219 8.7226562 C 10.89994 9.9345881 9.9186298 10.912433 8.703125 11.455078 C 8.745622 12.876425 9.9244908 14.029297 11.355469 14.029297 C 12.812992 14.029296 14.009766 12.832523 14.009766 11.375 C 14.009765 9.9490027 12.863752 8.7728804 11.449219 8.7226562 z " /><g
     id="circle3"
     style="opacity:1" /></svg>
